<?xml version="1.0" encoding="UTF-8" standalone="no"?>
<!-- Created with Inkscape (http://www.inkscape.org/) -->

<svg
   xmlns:ns0="http://www.iki.fi/pav/software/textext/"
   xmlns:dc="http://purl.org/dc/elements/1.1/"
   xmlns:cc="http://creativecommons.org/ns#"
   xmlns:rdf="http://www.w3.org/1999/02/22-rdf-syntax-ns#"
   xmlns:svg="http://www.w3.org/2000/svg"
   xmlns="http://www.w3.org/2000/svg"
   xmlns:xlink="http://www.w3.org/1999/xlink"
   xmlns:sodipodi="http://sodipodi.sourceforge.net/DTD/sodipodi-0.dtd"
   xmlns:inkscape="http://www.inkscape.org/namespaces/inkscape"
   width="744.09448"
   height="1052.3622"
   id="svg7549"
   version="1.1"
   inkscape:version="0.48.3.1 r9886"
   sodipodi:docname="bauform-leuchtdiode.svg"
   inkscape:export-filename="/home/waldgeist/data/pics/physik/Own/elektrizitaet-magnetismus/bauteile/bauform-transistor-npn.png"
   inkscape:export-xdpi="90"
   inkscape:export-ydpi="90">
  <sodipodi:namedview
     id="base"
     pagecolor="#ffffff"
     bordercolor="#666666"
     borderopacity="1.0"
     inkscape:pageopacity="0.0"
     inkscape:pageshadow="2"
     inkscape:zoom="0.3535534"
     inkscape:cx="387.56191"
     inkscape:cy="778.133"
     inkscape:document-units="px"
     inkscape:current-layer="layer1"
     showgrid="false"
     inkscape:window-width="1280"
     inkscape:window-height="974"
     inkscape:window-x="0"
     inkscape:window-y="0"
     inkscape:window-maximized="1"
     inkscape:object-nodes="true"
     inkscape:snap-smooth-nodes="true"
     inkscape:object-paths="true"
     showguides="false"
     inkscape:guide-bbox="true"
     inkscape:snap-global="true"
     inkscape:snap-midpoints="true">
    <sodipodi:guide
       id="guide3107"
       orientation="1052.3622,0"
       position="0.0,0" />
    <sodipodi:guide
       id="guide3109"
       orientation="1052.3622,0"
       position="372.0472,0" />
    <sodipodi:guide
       id="guide3111"
       orientation="1052.3622,0"
       position="744.0945,0" />
    <sodipodi:guide
       id="guide3113"
       orientation="0,744.0945"
       position="0,0.0" />
    <sodipodi:guide
       id="guide3115"
       orientation="0,744.0945"
       position="0,526.1811" />
    <sodipodi:guide
       id="guide3117"
       orientation="0,744.0945"
       position="0,1052.3622" />
  </sodipodi:namedview>
  <title
     id="title18502">Leuchtdiode (Bauform)</title>
  <defs
     id="defs7551">
    <inkscape:path-effect
       effect="spiro"
       id="path-effect67667"
       is_visible="true" />
    <inkscape:path-effect
       effect="spiro"
       id="path-effect67661"
       is_visible="true" />
    <marker
       inkscape:stockid="TriangleInM"
       orient="auto"
       refY="0"
       refX="0"
       id="TriangleInM"
       style="overflow:visible">
      <path
         id="path13059"
         d="m 5.77,0 -8.65,5 0,-10 8.65,5 z"
         style="fill-rule:evenodd;stroke:#000000;stroke-width:1pt;marker-start:none"
         transform="scale(-0.4,-0.4)"
         inkscape:connector-curvature="0" />
    </marker>
    <marker
       inkscape:stockid="TriangleInM"
       orient="auto"
       refY="0"
       refX="0"
       id="TriangleInM-5"
       style="overflow:visible">
      <path
         id="path13059-5"
         d="m 5.77,0 -8.65,5 0,-10 8.65,5 z"
         style="fill-rule:evenodd;stroke:#000000;stroke-width:1pt;marker-start:none"
         transform="scale(-0.4,-0.4)"
         inkscape:connector-curvature="0" />
    </marker>
    <marker
       inkscape:stockid="TriangleOutM"
       orient="auto"
       refY="0"
       refX="0"
       id="TriangleOutM"
       style="overflow:visible">
      <path
         id="path13068"
         d="m 5.77,0 -8.65,5 0,-10 8.65,5 z"
         style="fill-rule:evenodd;stroke:#000000;stroke-width:1pt;marker-start:none"
         transform="scale(0.4,0.4)"
         inkscape:connector-curvature="0" />
    </marker>
    <marker
       inkscape:stockid="TriangleOutM"
       orient="auto"
       refY="0"
       refX="0"
       id="marker18293"
       style="overflow:visible">
      <path
         id="path18295"
         d="m 5.77,0 -8.65,5 0,-10 8.65,5 z"
         style="fill-rule:evenodd;stroke:#000000;stroke-width:1pt;marker-start:none"
         transform="scale(0.4,0.4)"
         inkscape:connector-curvature="0" />
    </marker>
    <marker
       inkscape:stockid="TriangleOutM"
       orient="auto"
       refY="0"
       refX="0"
       id="TriangleOutM-0"
       style="overflow:visible">
      <path
         id="path13068-6"
         d="m 5.77,0 -8.65,5 0,-10 8.65,5 z"
         style="fill-rule:evenodd;stroke:#000000;stroke-width:1pt;marker-start:none"
         transform="scale(0.4,0.4)"
         inkscape:connector-curvature="0" />
    </marker>
    <marker
       inkscape:stockid="TriangleOutM"
       orient="auto"
       refY="0"
       refX="0"
       id="marker18346"
       style="overflow:visible">
      <path
         id="path18348"
         d="m 5.77,0 -8.65,5 0,-10 8.65,5 z"
         style="fill-rule:evenodd;stroke:#000000;stroke-width:1pt;marker-start:none"
         transform="scale(0.4,0.4)"
         inkscape:connector-curvature="0" />
    </marker>
    <marker
       inkscape:stockid="TriangleOutM"
       orient="auto"
       refY="0"
       refX="0"
       id="TriangleOutM-9"
       style="overflow:visible">
      <path
         id="path13068-9"
         d="m 5.77,0 -8.65,5 0,-10 8.65,5 z"
         style="fill-rule:evenodd;stroke:#000000;stroke-width:1pt;marker-start:none"
         transform="scale(0.4,0.4)"
         inkscape:connector-curvature="0" />
    </marker>
    <marker
       inkscape:stockid="TriangleOutM"
       orient="auto"
       refY="0"
       refX="0"
       id="marker18407"
       style="overflow:visible">
      <path
         id="path18409"
         d="m 5.77,0 -8.65,5 0,-10 8.65,5 z"
         style="fill-rule:evenodd;stroke:#000000;stroke-width:1pt;marker-start:none"
         transform="scale(0.4,0.4)"
         inkscape:connector-curvature="0" />
    </marker>
    <marker
       inkscape:stockid="TriangleOutM"
       orient="auto"
       refY="0"
       refX="0"
       id="TriangleOutM-02"
       style="overflow:visible">
      <path
         id="path13068-0"
         d="m 5.77,0 -8.65,5 0,-10 8.65,5 z"
         style="fill-rule:evenodd;stroke:#000000;stroke-width:1pt;marker-start:none"
         transform="scale(0.4,0.4)"
         inkscape:connector-curvature="0" />
    </marker>
    <marker
       inkscape:stockid="TriangleOutM"
       orient="auto"
       refY="0"
       refX="0"
       id="marker18451"
       style="overflow:visible">
      <path
         id="path18453"
         d="m 5.77,0 -8.65,5 0,-10 8.65,5 z"
         style="fill-rule:evenodd;stroke:#000000;stroke-width:1pt;marker-start:none"
         transform="scale(0.4,0.4)"
         inkscape:connector-curvature="0" />
    </marker>
    <marker
       inkscape:stockid="TriangleOutM"
       orient="auto"
       refY="0"
       refX="0"
       id="TriangleOutM-6"
       style="overflow:visible">
      <path
         id="path13068-64"
         d="m 5.77,0 -8.65,5 0,-10 8.65,5 z"
         style="fill-rule:evenodd;stroke:#000000;stroke-width:1pt;marker-start:none"
         transform="scale(0.4,0.4)"
         inkscape:connector-curvature="0" />
    </marker>
    <marker
       inkscape:stockid="TriangleOutM"
       orient="auto"
       refY="0"
       refX="0"
       id="marker18536"
       style="overflow:visible">
      <path
         id="path18538"
         d="m 5.77,0 -8.65,5 0,-10 8.65,5 z"
         style="fill-rule:evenodd;stroke:#000000;stroke-width:1pt;marker-start:none"
         transform="scale(0.4,0.4)"
         inkscape:connector-curvature="0" />
    </marker>
    <marker
       inkscape:stockid="TriangleOutM"
       orient="auto"
       refY="0"
       refX="0"
       id="TriangleOutM-4"
       style="overflow:visible">
      <path
         id="path13068-1"
         d="m 5.77,0 -8.65,5 0,-10 8.65,5 z"
         style="fill-rule:evenodd;stroke:#000000;stroke-width:1pt;marker-start:none"
         transform="scale(0.4,0.4)"
         inkscape:connector-curvature="0" />
    </marker>
    <marker
       inkscape:stockid="TriangleOutM"
       orient="auto"
       refY="0"
       refX="0"
       id="marker18536-7"
       style="overflow:visible">
      <path
         id="path18538-8"
         d="m 5.77,0 -8.65,5 0,-10 8.65,5 z"
         style="fill-rule:evenodd;stroke:#000000;stroke-width:1pt;marker-start:none"
         transform="scale(0.4,0.4)"
         inkscape:connector-curvature="0" />
    </marker>
    <marker
       inkscape:stockid="TriangleOutM"
       orient="auto"
       refY="0"
       refX="0"
       id="TriangleOutM-61"
       style="overflow:visible">
      <path
         id="path13068-2"
         d="m 5.77,0 -8.65,5 0,-10 8.65,5 z"
         style="fill-rule:evenodd;stroke:#000000;stroke-width:1pt;marker-start:none"
         transform="scale(0.4,0.4)"
         inkscape:connector-curvature="0" />
    </marker>
    <marker
       inkscape:stockid="TriangleOutM"
       orient="auto"
       refY="0"
       refX="0"
       id="marker18603"
       style="overflow:visible">
      <path
         id="path18605"
         d="m 5.77,0 -8.65,5 0,-10 8.65,5 z"
         style="fill-rule:evenodd;stroke:#000000;stroke-width:1pt;marker-start:none"
         transform="scale(0.4,0.4)"
         inkscape:connector-curvature="0" />
    </marker>
    <marker
       inkscape:stockid="TriangleOutM"
       orient="auto"
       refY="0"
       refX="0"
       id="TriangleOutM-46"
       style="overflow:visible">
      <path
         id="path13068-7"
         d="m 5.77,0 -8.65,5 0,-10 8.65,5 z"
         style="fill-rule:evenodd;stroke:#000000;stroke-width:1pt;marker-start:none"
         transform="scale(0.4,0.4)"
         inkscape:connector-curvature="0" />
    </marker>
    <marker
       inkscape:stockid="TriangleOutM"
       orient="auto"
       refY="0"
       refX="0"
       id="marker18647"
       style="overflow:visible">
      <path
         id="path18649"
         d="m 5.77,0 -8.65,5 0,-10 8.65,5 z"
         style="fill-rule:evenodd;stroke:#000000;stroke-width:1pt;marker-start:none"
         transform="scale(0.4,0.4)"
         inkscape:connector-curvature="0" />
    </marker>
    <marker
       inkscape:stockid="TriangleOutM"
       orient="auto"
       refY="0"
       refX="0"
       id="TriangleOutM-8"
       style="overflow:visible">
      <path
         id="path13068-10"
         d="m 5.77,0 -8.65,5 0,-10 8.65,5 z"
         style="fill-rule:evenodd;stroke:#000000;stroke-width:1pt;marker-start:none"
         transform="scale(0.4,0.4)"
         inkscape:connector-curvature="0" />
    </marker>
    <marker
       inkscape:stockid="TriangleOutM"
       orient="auto"
       refY="0"
       refX="0"
       id="marker18694"
       style="overflow:visible">
      <path
         id="path18696"
         d="m 5.77,0 -8.65,5 0,-10 8.65,5 z"
         style="fill-rule:evenodd;stroke:#000000;stroke-width:1pt;marker-start:none"
         transform="scale(0.4,0.4)"
         inkscape:connector-curvature="0" />
    </marker>
    <marker
       inkscape:stockid="TriangleOutM"
       orient="auto"
       refY="0"
       refX="0"
       id="TriangleOutM-7"
       style="overflow:visible">
      <path
         id="path13068-71"
         d="m 5.77,0 -8.65,5 0,-10 8.65,5 z"
         style="fill-rule:evenodd;stroke:#000000;stroke-width:1pt;marker-start:none"
         transform="scale(0.4,0.4)"
         inkscape:connector-curvature="0" />
    </marker>
    <marker
       inkscape:stockid="TriangleOutM"
       orient="auto"
       refY="0"
       refX="0"
       id="marker18877"
       style="overflow:visible">
      <path
         id="path18879"
         d="m 5.77,0 -8.65,5 0,-10 8.65,5 z"
         style="fill-rule:evenodd;stroke:#000000;stroke-width:1pt;marker-start:none"
         transform="scale(0.4,0.4)"
         inkscape:connector-curvature="0" />
    </marker>
    <marker
       inkscape:stockid="TriangleOutM"
       orient="auto"
       refY="0"
       refX="0"
       id="TriangleOutM-5"
       style="overflow:visible">
      <path
         id="path13068-74"
         d="m 5.77,0 -8.65,5 0,-10 8.65,5 z"
         style="fill-rule:evenodd;stroke:#000000;stroke-width:1pt;marker-start:none"
         transform="scale(0.4,0.4)"
         inkscape:connector-curvature="0" />
    </marker>
    <marker
       inkscape:stockid="TriangleOutM"
       orient="auto"
       refY="0"
       refX="0"
       id="marker19763"
       style="overflow:visible">
      <path
         id="path19765"
         d="m 5.77,0 -8.65,5 0,-10 8.65,5 z"
         style="fill-rule:evenodd;stroke:#000000;stroke-width:1pt;marker-start:none"
         transform="scale(0.4,0.4)"
         inkscape:connector-curvature="0" />
    </marker>
    <marker
       inkscape:stockid="TriangleOutM"
       orient="auto"
       refY="0"
       refX="0"
       id="marker133346-4"
       style="overflow:visible">
      <path
         id="path133348-1"
         d="m 5.77,0 -8.65,5 0,-10 8.65,5 z"
         style="fill-rule:evenodd;stroke:#000000;stroke-width:1pt;marker-start:none"
         transform="scale(0.4,0.4)"
         inkscape:connector-curvature="0" />
    </marker>
    <marker
       inkscape:stockid="TriangleOutM"
       orient="auto"
       refY="0"
       refX="0"
       id="marker133346-4-7"
       style="overflow:visible">
      <path
         id="path133348-1-6"
         d="m 5.77,0 -8.65,5 0,-10 8.65,5 z"
         style="fill-rule:evenodd;stroke:#000000;stroke-width:1pt;marker-start:none"
         transform="scale(0.4,0.4)"
         inkscape:connector-curvature="0" />
    </marker>
    <marker
       inkscape:stockid="TriangleOutM"
       orient="auto"
       refY="0"
       refX="0"
       id="TriangleOutM-3"
       style="overflow:visible">
      <path
         id="path13068-3"
         d="m 5.77,0 -8.65,5 0,-10 8.65,5 z"
         style="fill-rule:evenodd;stroke:#000000;stroke-width:1pt;marker-start:none"
         transform="scale(0.4,0.4)"
         inkscape:connector-curvature="0" />
    </marker>
    <marker
       inkscape:stockid="TriangleInM"
       orient="auto"
       refY="0"
       refX="0"
       id="TriangleInM-54"
       style="overflow:visible">
      <path
         id="path13059-6"
         d="m 5.77,0 -8.65,5 0,-10 8.65,5 z"
         style="fill-rule:evenodd;stroke:#000000;stroke-width:1pt;marker-start:none"
         transform="scale(-0.4,-0.4)"
         inkscape:connector-curvature="0" />
    </marker>
    <marker
       inkscape:stockid="TriangleOutM"
       orient="auto"
       refY="0"
       refX="0"
       id="TriangleOutM-2"
       style="overflow:visible">
      <path
         id="path13068-31"
         d="m 5.77,0 -8.65,5 0,-10 8.65,5 z"
         style="fill-rule:evenodd;stroke:#000000;stroke-width:1pt;marker-start:none"
         transform="scale(0.4,0.4)"
         inkscape:connector-curvature="0" />
    </marker>
  </defs>
  <metadata
     id="metadata7554">
    <rdf:RDF>
      <cc:Work
         rdf:about="">
        <dc:format>image/svg+xml</dc:format>
        <dc:type
           rdf:resource="http://purl.org/dc/dcmitype/StillImage" />
        <dc:title>Leuchtdiode (Bauform)</dc:title>
        <cc:license
           rdf:resource="http://creativecommons.org/licenses/by-nc-sa/3.0/" />
        <dc:date>2012-06-07</dc:date>
        <dc:creator>
          <cc:Agent>
            <dc:title>Bernhard Grotz</dc:title>
          </cc:Agent>
        </dc:creator>
        <dc:rights>
          <cc:Agent>
            <dc:title>Bernhard Grotz</dc:title>
          </cc:Agent>
        </dc:rights>
        <dc:publisher>
          <cc:Agent>
            <dc:title>Bernhard Grotz</dc:title>
          </cc:Agent>
        </dc:publisher>
        <dc:language>de-DE</dc:language>
        <dc:subject>
          <rdf:Bag>
            <rdf:li>Physik</rdf:li>
            <rdf:li>Elektronik</rdf:li>
            <rdf:li>Bauform</rdf:li>
            <rdf:li>Leuchtdiode</rdf:li>
            <rdf:li>Anode</rdf:li>
            <rdf:li>Kathode</rdf:li>
          </rdf:Bag>
        </dc:subject>
      </cc:Work>
      <cc:License
         rdf:about="http://creativecommons.org/licenses/by-nc-sa/3.0/">
        <cc:permits
           rdf:resource="http://creativecommons.org/ns#Reproduction" />
        <cc:permits
           rdf:resource="http://creativecommons.org/ns#Distribution" />
        <cc:requires
           rdf:resource="http://creativecommons.org/ns#Notice" />
        <cc:requires
           rdf:resource="http://creativecommons.org/ns#Attribution" />
        <cc:prohibits
           rdf:resource="http://creativecommons.org/ns#CommercialUse" />
        <cc:permits
           rdf:resource="http://creativecommons.org/ns#DerivativeWorks" />
        <cc:requires
           rdf:resource="http://creativecommons.org/ns#ShareAlike" />
      </cc:License>
    </rdf:RDF>
  </metadata>
  <g
     transform="translate(0,6.2302535e-5)"
     id="layer1"
     inkscape:groupmode="layer"
     inkscape:label="Ebene 1">
    <rect
       ry="2.9501348"
       y="325.35352"
       x="129.83292"
       height="401.655"
       width="484.42865"
       id="rect9809"
       style="color:#000000;fill:#ffffff;fill-opacity:1;fill-rule:nonzero;stroke:#ffffff;stroke-width:1.00000012;stroke-linecap:round;stroke-linejoin:round;stroke-miterlimit:4;stroke-opacity:1;stroke-dasharray:none;stroke-dashoffset:0;marker:none;visibility:visible;display:inline;overflow:visible;enable-background:accumulate"
       inkscape:export-filename="/home/waldgeist/data/pics/physik/Own/elektronik/bauform-leuchtdiode.png"
       inkscape:export-xdpi="150"
       inkscape:export-ydpi="150" />
    <g
       id="g4072"
       transform="translate(238.49126,47.29297)"
       inkscape:export-filename="/home/waldgeist/data/pics/physik/Own/elektronik/bauform-leuchtdiode.png"
       inkscape:export-xdpi="150"
       inkscape:export-ydpi="150">
      <path
         transform="translate(0,-6.2302535e-5)"
         id="path7451"
         d="m 277.46875,422.625 c -19.94436,0 -36.125,16.18064 -36.125,36.125 0,19.94436 16.18064,36.09375 36.125,36.09375 13.44061,0 25.03191,-7.41963 31.25,-18.3125 l 0,-35.59375 c -6.21809,-10.89287 -17.80939,-18.3125 -31.25,-18.3125 z"
         style="color:#000000;fill:#ffff00;fill-opacity:0.78431373;fill-rule:nonzero;stroke:#000000;stroke-width:1;stroke-linecap:round;stroke-linejoin:round;stroke-miterlimit:4;stroke-opacity:1;stroke-dasharray:none;stroke-dashoffset:0;marker:none;visibility:visible;display:inline;overflow:visible;enable-background:accumulate"
         inkscape:connector-curvature="0" />
      <g
         id="g9652"
         transform="matrix(2.1969553,0,0,2.1969553,155.80965,-1408.0137)">
        <path
           transform="matrix(0.62499959,0,0,0.62499959,36.632342,817.96192)"
           d="m 21.213202,50.779785 c 0,2.343146 -1.899494,4.242641 -4.24264,4.242641 -2.343146,0 -4.242641,-1.899495 -4.242641,-4.242641 0,-2.343145 1.899495,-4.24264 4.242641,-4.24264 2.343146,0 4.24264,1.899495 4.24264,4.24264 z"
           sodipodi:ry="4.2426405"
           sodipodi:rx="4.2426405"
           sodipodi:cy="50.779785"
           sodipodi:cx="16.970562"
           id="path9640"
           style="color:#000000;fill:#b3b3b3;fill-opacity:0.78431373;fill-rule:nonzero;stroke:#000000;stroke-width:0.72828114;stroke-linecap:round;stroke-linejoin:round;stroke-miterlimit:4;stroke-opacity:1;stroke-dasharray:none;stroke-dashoffset:0;marker:none;visibility:visible;display:inline;overflow:visible;enable-background:accumulate"
           sodipodi:type="arc" />
        <rect
           ry="1.3037281"
           y="847.04761"
           x="53.949665"
           height="5.3033209"
           width="9.9965239"
           id="rect9650"
           style="color:#000000;fill:#b3b3b3;fill-opacity:1;fill-rule:nonzero;stroke:#000000;stroke-width:0.45517543;stroke-linecap:round;stroke-linejoin:round;stroke-miterlimit:4;stroke-opacity:1;stroke-dasharray:none;stroke-dashoffset:0;marker:none;visibility:visible;display:inline;overflow:visible;enable-background:accumulate" />
        <path
           sodipodi:type="arc"
           style="color:#000000;fill:#b3b3b3;fill-opacity:0.78431373;fill-rule:nonzero;stroke:#000000;stroke-width:0.72828114;stroke-linecap:round;stroke-linejoin:round;stroke-miterlimit:4;stroke-opacity:1;stroke-dasharray:none;stroke-dashoffset:0;marker:none;visibility:visible;display:inline;overflow:visible;enable-background:accumulate"
           id="path11714"
           sodipodi:cx="16.970562"
           sodipodi:cy="50.779785"
           sodipodi:rx="4.2426405"
           sodipodi:ry="4.2426405"
           d="m 21.213202,50.779785 c 0,2.343146 -1.899494,4.242641 -4.24264,4.242641 -2.343146,0 -4.242641,-1.899495 -4.242641,-4.242641 0,-2.343145 1.899495,-4.24264 4.242641,-4.24264 2.343146,0 4.24264,1.899495 4.24264,4.24264 z"
           transform="matrix(0.62499959,0,0,0.62499959,36.632342,817.96192)" />
      </g>
    </g>
    <g
       transform="matrix(2.1969553,0,0,2.1969553,199.5041,-1486.3724)"
       id="g9854"
       inkscape:export-filename="/home/waldgeist/data/pics/physik/Own/elektronik/bauform-leuchtdiode.png"
       inkscape:export-xdpi="150"
       inkscape:export-ydpi="150">
      <g
         id="g9656"
         transform="matrix(1.5760357,0,0,1.5760357,-222.55248,729.50752)"
         ns0:preamble="/home/waldgeist/data/sphinx/inkscape-preamble.tex"
         ns0:text="$A$">
        <defs
           id="defs9658">
          <g
             id="g9660">
            <symbol
               id="symbol9662"
               overflow="visible"
               style="overflow:visible">
              <path
                 id="path9664"
                 d="M 1.78125,-1.140625 C 1.390625,-0.484375 1,-0.34375 0.5625,-0.3125 0.4375,-0.296875 0.34375,-0.296875 0.34375,-0.109375 0.34375,-0.046875 0.40625,0 0.484375,0 0.75,0 1.0625,-0.03125 1.328125,-0.03125 c 0.34375,0 0.6875,0.03125 1,0.03125 0.0625,0 0.1875,0 0.1875,-0.1875 0,-0.109375 -0.078125,-0.125 -0.15625,-0.125 -0.21875,-0.015625 -0.46875,-0.09375 -0.46875,-0.34375 0,-0.125 0.0625,-0.234375 0.140625,-0.375 l 0.765625,-1.265625 2.5,0 c 0.015625,0.203125 0.15625,1.5625 0.15625,1.65625 0,0.296875 -0.515625,0.328125 -0.71875,0.328125 C 4.59375,-0.3125 4.5,-0.3125 4.5,-0.109375 4.5,0 4.609375,0 4.640625,0 5.046875,0 5.46875,-0.03125 5.875,-0.03125 6.125,-0.03125 6.765625,0 7.015625,0 7.0625,0 7.1875,0 7.1875,-0.203125 7.1875,-0.3125 7.09375,-0.3125 6.953125,-0.3125 6.34375,-0.3125 6.34375,-0.375 6.3125,-0.671875 l -0.609375,-6.21875 c -0.015625,-0.203125 -0.015625,-0.25 -0.1875,-0.25 -0.15625,0 -0.203125,0.078125 -0.265625,0.171875 z M 2.984375,-2.609375 4.9375,-5.90625 5.265625,-2.609375 z m 0,0"
                 style="stroke:none"
                 inkscape:connector-curvature="0" />
            </symbol>
          </g>
        </defs>
        <g
           id="g9666">
          <g
             id="g9668"
             style="fill:#000000;fill-opacity:1">
            <use
               id="use9670"
               y="134.765"
               x="223.43201"
               xlink:href="#textext-63192e1f-0"
               width="372.04724"
               height="262.20471" />
          </g>
        </g>
      </g>
      <g
         ns0:text="$K$"
         ns0:preamble="/home/waldgeist/data/sphinx/inkscape-preamble.tex"
         transform="matrix(1.5760357,0,0,1.5760357,-208.14293,729.50752)"
         id="g9672">
        <defs
           id="defs9674">
          <g
             id="g9676">
            <symbol
               style="overflow:visible"
               overflow="visible"
               id="symbol9678">
              <path
                 inkscape:connector-curvature="0"
                 style="stroke:none"
                 d="M 5.078125,-4.03125 C 5.0625,-4.0625 5.03125,-4.140625 5.03125,-4.171875 c 0,0 0.171875,-0.140625 0.28125,-0.21875 l 1.75,-1.34375 C 8,-6.4375 8.390625,-6.46875 8.6875,-6.5 8.765625,-6.515625 8.859375,-6.515625 8.859375,-6.703125 8.859375,-6.734375 8.828125,-6.8125 8.75,-6.8125 c -0.21875,0 -0.46875,0.03125 -0.703125,0.03125 -0.359375,0 -0.75,-0.03125 -1.109375,-0.03125 -0.0625,0 -0.1875,0 -0.1875,0.203125 0,0.0625 0.046875,0.09375 0.125,0.109375 0.21875,0.015625 0.296875,0.0625 0.296875,0.203125 0,0.1875 -0.296875,0.421875 -0.359375,0.46875 L 2.9375,-2.84375 3.734375,-6.046875 C 3.8125,-6.40625 3.84375,-6.5 4.5625,-6.5 c 0.25,0 0.34375,0 0.34375,-0.203125 0,-0.078125 -0.078125,-0.109375 -0.140625,-0.109375 -0.28125,0 -1,0.03125 -1.28125,0.03125 C 3.203125,-6.78125 2.5,-6.8125 2.203125,-6.8125 2.140625,-6.8125 2,-6.8125 2,-6.625 2,-6.5 2.09375,-6.5 2.296875,-6.5 c 0.125,0 0.3125,0.015625 0.421875,0.015625 0.15625,0.03125 0.21875,0.046875 0.21875,0.171875 0,0.03125 0,0.0625 -0.03125,0.1875 L 1.5625,-0.78125 c -0.09375,0.390625 -0.109375,0.46875 -0.90625,0.46875 -0.171875,0 -0.28125,0 -0.28125,0.1875 C 0.375,0 0.5,0 0.53125,0 0.8125,0 1.515625,-0.03125 1.796875,-0.03125 2,-0.03125 2.21875,-0.015625 2.4375,-0.015625 2.65625,-0.015625 2.875,0 3.078125,0 3.15625,0 3.28125,0 3.28125,-0.203125 3.28125,-0.3125 3.1875,-0.3125 3,-0.3125 c -0.375,0 -0.640625,0 -0.640625,-0.171875 0,-0.078125 0.046875,-0.296875 0.078125,-0.4375 C 2.578125,-1.453125 2.71875,-1.96875 2.84375,-2.5 l 1.484375,-1.15625 1.15625,2.6875 c 0.125,0.265625 0.125,0.296875 0.125,0.34375 0,0.3125 -0.4375,0.3125 -0.53125,0.3125 -0.109375,0 -0.21875,0 -0.21875,0.203125 C 4.859375,0 4.984375,0 5,0 5.40625,0 5.828125,-0.03125 6.21875,-0.03125 6.4375,-0.03125 6.984375,0 7.203125,0 7.25,0 7.375,0 7.375,-0.203125 7.375,-0.3125 7.265625,-0.3125 7.171875,-0.3125 c -0.40625,0 -0.53125,-0.09375 -0.6875,-0.4375 z m 0,0"
                 id="path9680" />
            </symbol>
          </g>
        </defs>
        <g
           id="g9682">
          <g
             style="fill:#000000;fill-opacity:1"
             id="g9684">
            <use
               height="262.20471"
               width="372.04724"
               xlink:href="#textext-20b7b5f6-0"
               x="223.43201"
               y="134.765"
               id="use9686" />
          </g>
        </g>
      </g>
    </g>
    <g
       transform="matrix(2.1969553,0,0,2.1969553,-73.141047,-1443.9)"
       id="g8405"
       inkscape:export-filename="/home/waldgeist/data/pics/physik/Own/elektronik/bauform-leuchtdiode.png"
       inkscape:export-xdpi="150"
       inkscape:export-ydpi="150">
      <path
         style="color:#000000;fill:#b7b7b7;fill-opacity:1;fill-rule:nonzero;stroke:#000000;stroke-width:0.45517543;stroke-linecap:round;stroke-linejoin:round;stroke-miterlimit:4;stroke-opacity:1;stroke-dashoffset:0;marker:none;visibility:visible;display:inline;overflow:visible;enable-background:accumulate"
         d="m 133.70257,841.29077 3.8297,0 3.33927,6.92027 -3.33927,0 0,25.60664 -3.8297,0 z"
         id="rect8400"
         inkscape:connector-curvature="0"
         sodipodi:nodetypes="ccccccc" />
      <path
         style="color:#000000;fill:#b7b7b7;fill-opacity:1;fill-rule:nonzero;stroke:#000000;stroke-width:0.49115998;stroke-linecap:round;stroke-linejoin:round;stroke-miterlimit:4;stroke-opacity:1;stroke-dashoffset:0;marker:none;visibility:visible;display:inline;overflow:visible;enable-background:accumulate"
         d="m 140.81756,841.29077 11.30256,0 0,32.52691 -3.80447,2e-5 0,-22.041 z"
         id="rect8402"
         inkscape:connector-curvature="0"
         sodipodi:nodetypes="cccccc" />
    </g>
    <rect
       y="475.83826"
       x="220.71886"
       height="151.85284"
       width="8.2923355"
       id="rect8409"
       style="color:#000000;fill:#b7b7b7;fill-opacity:1;fill-rule:nonzero;stroke:#000000;stroke-width:0.99999994;stroke-linecap:round;stroke-linejoin:round;stroke-miterlimit:4;stroke-opacity:1;stroke-dasharray:none;stroke-dashoffset:0;marker:none;visibility:visible;display:inline;overflow:visible;enable-background:accumulate"
       inkscape:export-filename="/home/waldgeist/data/pics/physik/Own/elektronik/bauform-leuchtdiode.png"
       inkscape:export-xdpi="150"
       inkscape:export-ydpi="150" />
    <g
       id="g8735"
       transform="matrix(3.46248,0,0,3.46248,-563.48162,232.46419)"
       ns0:preamble="/home/waldgeist/data/sphinx/inkscape-preamble.tex"
       ns0:text="$A$"
       inkscape:export-filename="/home/waldgeist/data/pics/physik/Own/elektronik/bauform-leuchtdiode.png"
       inkscape:export-xdpi="150"
       inkscape:export-ydpi="150">
      <defs
         id="defs8737">
        <g
           id="g8739">
          <symbol
             id="textext-63192e1f-0"
             overflow="visible"
             style="overflow:visible">
            <path
               id="path8742"
               d="M 1.78125,-1.140625 C 1.390625,-0.484375 1,-0.34375 0.5625,-0.3125 0.4375,-0.296875 0.34375,-0.296875 0.34375,-0.109375 0.34375,-0.046875 0.40625,0 0.484375,0 0.75,0 1.0625,-0.03125 1.328125,-0.03125 c 0.34375,0 0.6875,0.03125 1,0.03125 0.0625,0 0.1875,0 0.1875,-0.1875 0,-0.109375 -0.078125,-0.125 -0.15625,-0.125 -0.21875,-0.015625 -0.46875,-0.09375 -0.46875,-0.34375 0,-0.125 0.0625,-0.234375 0.140625,-0.375 l 0.765625,-1.265625 2.5,0 c 0.015625,0.203125 0.15625,1.5625 0.15625,1.65625 0,0.296875 -0.515625,0.328125 -0.71875,0.328125 C 4.59375,-0.3125 4.5,-0.3125 4.5,-0.109375 4.5,0 4.609375,0 4.640625,0 5.046875,0 5.46875,-0.03125 5.875,-0.03125 6.125,-0.03125 6.765625,0 7.015625,0 7.0625,0 7.1875,0 7.1875,-0.203125 7.1875,-0.3125 7.09375,-0.3125 6.953125,-0.3125 6.34375,-0.3125 6.34375,-0.375 6.3125,-0.671875 l -0.609375,-6.21875 c -0.015625,-0.203125 -0.015625,-0.25 -0.1875,-0.25 -0.15625,0 -0.203125,0.078125 -0.265625,0.171875 z M 2.984375,-2.609375 4.9375,-5.90625 5.265625,-2.609375 z m 0,0"
               style="stroke:none"
               inkscape:connector-curvature="0" />
          </symbol>
        </g>
      </defs>
      <g
         id="textext-63192e1f-1">
        <g
           id="g8745"
           style="fill:#000000;fill-opacity:1">
          <use
             id="use8747"
             y="134.765"
             x="223.43201"
             xlink:href="#textext-63192e1f-0"
             width="372.04724"
             height="262.20471" />
        </g>
      </g>
    </g>
    <g
       ns0:text="$K$"
       ns0:preamble="/home/waldgeist/data/sphinx/inkscape-preamble.tex"
       transform="matrix(3.46248,0,0,3.46248,-531.08838,232.46419)"
       id="g9333"
       inkscape:export-filename="/home/waldgeist/data/pics/physik/Own/elektronik/bauform-leuchtdiode.png"
       inkscape:export-xdpi="150"
       inkscape:export-ydpi="150">
      <defs
         id="defs9335">
        <g
           id="g9337">
          <symbol
             style="overflow:visible"
             overflow="visible"
             id="textext-20b7b5f6-0">
            <path
               inkscape:connector-curvature="0"
               style="stroke:none"
               d="M 5.078125,-4.03125 C 5.0625,-4.0625 5.03125,-4.140625 5.03125,-4.171875 c 0,0 0.171875,-0.140625 0.28125,-0.21875 l 1.75,-1.34375 C 8,-6.4375 8.390625,-6.46875 8.6875,-6.5 8.765625,-6.515625 8.859375,-6.515625 8.859375,-6.703125 8.859375,-6.734375 8.828125,-6.8125 8.75,-6.8125 c -0.21875,0 -0.46875,0.03125 -0.703125,0.03125 -0.359375,0 -0.75,-0.03125 -1.109375,-0.03125 -0.0625,0 -0.1875,0 -0.1875,0.203125 0,0.0625 0.046875,0.09375 0.125,0.109375 0.21875,0.015625 0.296875,0.0625 0.296875,0.203125 0,0.1875 -0.296875,0.421875 -0.359375,0.46875 L 2.9375,-2.84375 3.734375,-6.046875 C 3.8125,-6.40625 3.84375,-6.5 4.5625,-6.5 c 0.25,0 0.34375,0 0.34375,-0.203125 0,-0.078125 -0.078125,-0.109375 -0.140625,-0.109375 -0.28125,0 -1,0.03125 -1.28125,0.03125 C 3.203125,-6.78125 2.5,-6.8125 2.203125,-6.8125 2.140625,-6.8125 2,-6.8125 2,-6.625 2,-6.5 2.09375,-6.5 2.296875,-6.5 c 0.125,0 0.3125,0.015625 0.421875,0.015625 0.15625,0.03125 0.21875,0.046875 0.21875,0.171875 0,0.03125 0,0.0625 -0.03125,0.1875 L 1.5625,-0.78125 c -0.09375,0.390625 -0.109375,0.46875 -0.90625,0.46875 -0.171875,0 -0.28125,0 -0.28125,0.1875 C 0.375,0 0.5,0 0.53125,0 0.8125,0 1.515625,-0.03125 1.796875,-0.03125 2,-0.03125 2.21875,-0.015625 2.4375,-0.015625 2.65625,-0.015625 2.875,0 3.078125,0 3.15625,0 3.28125,0 3.28125,-0.203125 3.28125,-0.3125 3.1875,-0.3125 3,-0.3125 c -0.375,0 -0.640625,0 -0.640625,-0.171875 0,-0.078125 0.046875,-0.296875 0.078125,-0.4375 C 2.578125,-1.453125 2.71875,-1.96875 2.84375,-2.5 l 1.484375,-1.15625 1.15625,2.6875 c 0.125,0.265625 0.125,0.296875 0.125,0.34375 0,0.3125 -0.4375,0.3125 -0.53125,0.3125 -0.109375,0 -0.21875,0 -0.21875,0.203125 C 4.859375,0 4.984375,0 5,0 5.40625,0 5.828125,-0.03125 6.21875,-0.03125 6.4375,-0.03125 6.984375,0 7.203125,0 7.25,0 7.375,0 7.375,-0.203125 7.375,-0.3125 7.265625,-0.3125 7.171875,-0.3125 c -0.40625,0 -0.53125,-0.09375 -0.6875,-0.4375 z m 0,0"
               id="path9340" />
          </symbol>
        </g>
      </defs>
      <g
         id="textext-20b7b5f6-1">
        <g
           style="fill:#000000;fill-opacity:1"
           id="g9343">
          <use
             height="262.20471"
             width="372.04724"
             xlink:href="#textext-20b7b5f6-0"
             x="223.43201"
             y="134.765"
             id="use9345" />
        </g>
      </g>
    </g>
    <rect
       style="color:#000000;fill:#b7b7b7;fill-opacity:1;fill-rule:nonzero;stroke:#000000;stroke-width:0.99999988;stroke-linecap:round;stroke-linejoin:round;stroke-miterlimit:4;stroke-opacity:1;stroke-dasharray:none;stroke-dashoffset:0;marker:none;visibility:visible;display:inline;overflow:visible;enable-background:accumulate"
       id="rect11716"
       width="8.2923355"
       height="117.55817"
       x="252.70183"
       y="475.83844"
       inkscape:export-filename="/home/waldgeist/data/pics/physik/Own/elektronik/bauform-leuchtdiode.png"
       inkscape:export-xdpi="150"
       inkscape:export-ydpi="150" />
    <g
       ns0:text="+"
       ns0:preamble="/home/waldgeist/data/sphinx/inkscape-preamble.tex"
       transform="matrix(3.46248,0,0,3.46248,-562.18096,190.29083)"
       id="g11850"
       inkscape:export-filename="/home/waldgeist/data/pics/physik/Own/elektronik/bauform-leuchtdiode.png"
       inkscape:export-xdpi="150"
       inkscape:export-ydpi="150">
      <defs
         id="defs11852">
        <g
           id="g11854">
          <symbol
             style="overflow:visible"
             overflow="visible"
             id="textext-ca1f0c83-0">
            <path
               inkscape:connector-curvature="0"
               style="stroke:none"
               d="m 4.078125,-2.296875 2.78125,0 C 7,-2.296875 7.1875,-2.296875 7.1875,-2.5 7.1875,-2.6875 7,-2.6875 6.859375,-2.6875 l -2.78125,0 0,-2.796875 c 0,-0.140625 0,-0.328125 -0.203125,-0.328125 -0.203125,0 -0.203125,0.1875 -0.203125,0.328125 l 0,2.796875 -2.78125,0 c -0.140625,0 -0.328125,0 -0.328125,0.1875 0,0.203125 0.1875,0.203125 0.328125,0.203125 l 2.78125,0 0,2.796875 c 0,0.140625 0,0.328125 0.203125,0.328125 0.203125,0 0.203125,-0.1875 0.203125,-0.328125 z m 0,0"
               id="path11857" />
          </symbol>
        </g>
      </defs>
      <g
         id="textext-ca1f0c83-1">
        <g
           style="fill:#000000;fill-opacity:1"
           id="g11860">
          <use
             height="1052.3622"
             width="744.09448"
             xlink:href="#textext-ca1f0c83-0"
             x="223.43201"
             y="134.765"
             id="use11862" />
        </g>
      </g>
    </g>
    <g
       id="g12126"
       transform="matrix(3.46248,0,0,3.46248,-530.19799,154.9459)"
       ns0:preamble="/home/waldgeist/data/sphinx/inkscape-preamble.tex"
       ns0:text="$-$"
       inkscape:export-filename="/home/waldgeist/data/pics/physik/Own/elektronik/bauform-leuchtdiode.png"
       inkscape:export-xdpi="150"
       inkscape:export-ydpi="150">
      <defs
         id="defs12128">
        <g
           id="g12130">
          <symbol
             id="textext-9eeb94e6-0"
             overflow="visible"
             style="overflow:visible">
            <path
               id="path12133"
               d="m 6.5625,-2.296875 c 0.171875,0 0.359375,0 0.359375,-0.203125 0,-0.1875 -0.1875,-0.1875 -0.359375,-0.1875 l -5.390625,0 c -0.171875,0 -0.34375,0 -0.34375,0.1875 0,0.203125 0.171875,0.203125 0.34375,0.203125 z m 0,0"
               style="stroke:none"
               inkscape:connector-curvature="0" />
          </symbol>
        </g>
      </defs>
      <g
         id="textext-9eeb94e6-1">
        <g
           id="g12136"
           style="fill:#000000;fill-opacity:1">
          <use
             id="use12138"
             y="134.765"
             x="223.43201"
             xlink:href="#textext-9eeb94e6-0"
             width="744.09448"
             height="1052.3622" />
        </g>
      </g>
    </g>
    <path
       style="opacity:0.9;color:#000000;fill:#ffff00;fill-opacity:1;fill-rule:nonzero;stroke:#b3b3b3;stroke-width:1.12711096;stroke-linecap:round;stroke-linejoin:bevel;stroke-miterlimit:4;stroke-opacity:1;stroke-dasharray:none;stroke-dashoffset:0;marker:none;visibility:visible;display:inline;overflow:visible;enable-background:accumulate"
       d="m 199.85862,475.70774 c -1.61247,0 -2.9106,1.60901 -2.9106,3.60766 0,1.99867 1.29813,3.60769 2.9106,3.60769 l 80.73739,0 c 0.2121,0 0.43374,-0.0255 0.63273,-0.0785 l 0,-7.09772 c -0.19899,-0.053 -0.42063,-0.0391 -0.63273,-0.0391 l -80.73739,0 z"
       id="rect13464"
       inkscape:connector-curvature="0"
       inkscape:export-filename="/home/waldgeist/data/pics/physik/Own/elektronik/bauform-leuchtdiode.png"
       inkscape:export-xdpi="150"
       inkscape:export-ydpi="150" />
    <rect
       style="color:#000000;fill:#b7b7b7;fill-opacity:1;fill-rule:nonzero;stroke:#000000;stroke-width:0.5;stroke-linecap:round;stroke-linejoin:bevel;stroke-miterlimit:4;stroke-opacity:1;stroke-dasharray:none;stroke-dashoffset:0;marker:none;visibility:visible;display:inline;overflow:visible;enable-background:accumulate"
       id="rect67657"
       width="9.6993809"
       height="1.3243805"
       x="243.86369"
       y="402.30383"
       rx="0"
       ry="0"
       inkscape:export-filename="/home/waldgeist/data/pics/physik/Own/elektronik/bauform-leuchtdiode.png"
       inkscape:export-xdpi="150"
       inkscape:export-ydpi="150" />
    <path
       style="fill:none;stroke:#808080;stroke-width:0.5;stroke-linecap:butt;stroke-linejoin:miter;stroke-opacity:1"
       d="m 224.80436,404.37823 c 0,0 -0.13874,-4.82687 1.59339,-6.82006 3.39197,-3.9032 8.33016,-5.40612 12.99309,-5.2149 3.0938,0.12687 6.4149,1.31094 8.3085,4.15425 1.46665,2.20222 1.01402,5.80632 1.01402,5.80632"
       id="path67663"
       inkscape:connector-curvature="0"
       sodipodi:nodetypes="csasc"
       inkscape:export-filename="/home/waldgeist/data/pics/physik/Own/elektronik/bauform-leuchtdiode.png"
       inkscape:export-xdpi="150"
       inkscape:export-ydpi="150" />
    <path
       inkscape:connector-curvature="0"
       id="rect8395"
       d="m 240.22731,353.77675 c -19.78916,0 -35.85825,13.84882 -36.11245,31.032 -0.002,0.13752 0,0.27387 0,0.41192 l 0,90.4871 72.2249,0 0,-90.4871 c 0,-0.13796 0.002,-0.27429 0,-0.41192 -0.25418,-17.18318 -16.32329,-31.032 -36.11245,-31.032 z"
       style="opacity:0.5;color:#000000;fill:#ffff00;fill-opacity:1;fill-rule:nonzero;stroke:#000000;stroke-width:1.00000012;stroke-linecap:round;stroke-linejoin:round;stroke-miterlimit:4;stroke-opacity:1;stroke-dasharray:none;stroke-dashoffset:0;marker:none;visibility:visible;display:inline;overflow:visible;enable-background:accumulate"
       inkscape:export-filename="/home/waldgeist/data/pics/physik/Own/elektronik/bauform-leuchtdiode.png"
       inkscape:export-xdpi="150"
       inkscape:export-ydpi="150" />
  </g>
</svg>
