<?xml version="1.0" encoding="UTF-8" standalone="no"?>
<!-- Created with Inkscape (http://www.inkscape.org/) -->

<svg
   xmlns:ns0="http://www.iki.fi/pav/software/textext/"
   xmlns:dc="http://purl.org/dc/elements/1.1/"
   xmlns:cc="http://creativecommons.org/ns#"
   xmlns:rdf="http://www.w3.org/1999/02/22-rdf-syntax-ns#"
   xmlns:svg="http://www.w3.org/2000/svg"
   xmlns="http://www.w3.org/2000/svg"
   xmlns:xlink="http://www.w3.org/1999/xlink"
   xmlns:sodipodi="http://sodipodi.sourceforge.net/DTD/sodipodi-0.dtd"
   xmlns:inkscape="http://www.inkscape.org/namespaces/inkscape"
   width="1052.3622"
   height="744.09448"
   id="svg7549"
   version="1.1"
   inkscape:version="0.48.3.1 r9886"
   sodipodi:docname="bauform-transistor-npn.svg"
   inkscape:export-filename="/home/waldgeist/data/pics/physik/Own/elektronik/bauform-transistor-npn.png"
   inkscape:export-xdpi="90"
   inkscape:export-ydpi="90">
  <sodipodi:namedview
     id="base"
     pagecolor="#ffffff"
     bordercolor="#666666"
     borderopacity="1.0"
     inkscape:pageopacity="0.0"
     inkscape:pageshadow="2"
     inkscape:zoom="0.5"
     inkscape:cx="686.08569"
     inkscape:cy="473.29682"
     inkscape:document-units="px"
     inkscape:current-layer="layer1"
     showgrid="false"
     inkscape:window-width="1280"
     inkscape:window-height="974"
     inkscape:window-x="0"
     inkscape:window-y="0"
     inkscape:window-maximized="1"
     inkscape:object-nodes="true"
     inkscape:snap-smooth-nodes="true"
     inkscape:object-paths="true"
     showguides="false"
     inkscape:guide-bbox="true"
     inkscape:snap-global="true"
     inkscape:snap-midpoints="true">
    <sodipodi:guide
       id="guide3886"
       orientation="262.2047,0"
       position="0.0,0" />
    <sodipodi:guide
       id="guide3888"
       orientation="262.2047,0"
       position="62.0079,0" />
    <sodipodi:guide
       id="guide3890"
       orientation="262.2047,0"
       position="124.0157,0" />
    <sodipodi:guide
       id="guide3892"
       orientation="262.2047,0"
       position="186.0236,0" />
    <sodipodi:guide
       id="guide3894"
       orientation="262.2047,0"
       position="248.0315,0" />
    <sodipodi:guide
       id="guide3896"
       orientation="262.2047,0"
       position="310.0394,0" />
    <sodipodi:guide
       id="guide3898"
       orientation="262.2047,0"
       position="372.0472,0" />
    <sodipodi:guide
       id="guide3900"
       orientation="0,372.0472"
       position="0,0.0" />
    <sodipodi:guide
       id="guide3902"
       orientation="0,372.0472"
       position="0,131.1024" />
    <sodipodi:guide
       id="guide3904"
       orientation="0,372.0472"
       position="0,262.2047" />
  </sodipodi:namedview>
  <title
     id="title18502">Bauformen Transistor npn</title>
  <defs
     id="defs7551">
    <marker
       style="overflow:visible"
       id="TriangleInM"
       refX="0"
       refY="0"
       orient="auto"
       inkscape:stockid="TriangleInM">
      <path
         inkscape:connector-curvature="0"
         transform="scale(-0.4,-0.4)"
         style="fill-rule:evenodd;stroke:#000000;stroke-width:1pt;marker-start:none"
         d="m 5.77,0 -8.65,5 0,-10 8.65,5 z"
         id="path13059" />
    </marker>
    <marker
       style="overflow:visible"
       id="TriangleInM-5"
       refX="0"
       refY="0"
       orient="auto"
       inkscape:stockid="TriangleInM">
      <path
         inkscape:connector-curvature="0"
         transform="scale(-0.4,-0.4)"
         style="fill-rule:evenodd;stroke:#000000;stroke-width:1pt;marker-start:none"
         d="m 5.77,0 -8.65,5 0,-10 8.65,5 z"
         id="path13059-5" />
    </marker>
    <marker
       style="overflow:visible"
       id="TriangleOutM"
       refX="0"
       refY="0"
       orient="auto"
       inkscape:stockid="TriangleOutM">
      <path
         inkscape:connector-curvature="0"
         transform="scale(0.4,0.4)"
         style="fill-rule:evenodd;stroke:#000000;stroke-width:1pt;marker-start:none"
         d="m 5.77,0 -8.65,5 0,-10 8.65,5 z"
         id="path13068" />
    </marker>
    <marker
       style="overflow:visible"
       id="marker18293"
       refX="0"
       refY="0"
       orient="auto"
       inkscape:stockid="TriangleOutM">
      <path
         inkscape:connector-curvature="0"
         transform="scale(0.4,0.4)"
         style="fill-rule:evenodd;stroke:#000000;stroke-width:1pt;marker-start:none"
         d="m 5.77,0 -8.65,5 0,-10 8.65,5 z"
         id="path18295" />
    </marker>
    <marker
       style="overflow:visible"
       id="TriangleOutM-0"
       refX="0"
       refY="0"
       orient="auto"
       inkscape:stockid="TriangleOutM">
      <path
         inkscape:connector-curvature="0"
         transform="scale(0.4,0.4)"
         style="fill-rule:evenodd;stroke:#000000;stroke-width:1pt;marker-start:none"
         d="m 5.77,0 -8.65,5 0,-10 8.65,5 z"
         id="path13068-6" />
    </marker>
    <marker
       style="overflow:visible"
       id="marker18346"
       refX="0"
       refY="0"
       orient="auto"
       inkscape:stockid="TriangleOutM">
      <path
         inkscape:connector-curvature="0"
         transform="scale(0.4,0.4)"
         style="fill-rule:evenodd;stroke:#000000;stroke-width:1pt;marker-start:none"
         d="m 5.77,0 -8.65,5 0,-10 8.65,5 z"
         id="path18348" />
    </marker>
    <marker
       style="overflow:visible"
       id="TriangleOutM-9"
       refX="0"
       refY="0"
       orient="auto"
       inkscape:stockid="TriangleOutM">
      <path
         inkscape:connector-curvature="0"
         transform="scale(0.4,0.4)"
         style="fill-rule:evenodd;stroke:#000000;stroke-width:1pt;marker-start:none"
         d="m 5.77,0 -8.65,5 0,-10 8.65,5 z"
         id="path13068-9" />
    </marker>
    <marker
       style="overflow:visible"
       id="marker18407"
       refX="0"
       refY="0"
       orient="auto"
       inkscape:stockid="TriangleOutM">
      <path
         inkscape:connector-curvature="0"
         transform="scale(0.4,0.4)"
         style="fill-rule:evenodd;stroke:#000000;stroke-width:1pt;marker-start:none"
         d="m 5.77,0 -8.65,5 0,-10 8.65,5 z"
         id="path18409" />
    </marker>
    <marker
       style="overflow:visible"
       id="TriangleOutM-02"
       refX="0"
       refY="0"
       orient="auto"
       inkscape:stockid="TriangleOutM">
      <path
         inkscape:connector-curvature="0"
         transform="scale(0.4,0.4)"
         style="fill-rule:evenodd;stroke:#000000;stroke-width:1pt;marker-start:none"
         d="m 5.77,0 -8.65,5 0,-10 8.65,5 z"
         id="path13068-0" />
    </marker>
    <marker
       style="overflow:visible"
       id="marker18451"
       refX="0"
       refY="0"
       orient="auto"
       inkscape:stockid="TriangleOutM">
      <path
         inkscape:connector-curvature="0"
         transform="scale(0.4,0.4)"
         style="fill-rule:evenodd;stroke:#000000;stroke-width:1pt;marker-start:none"
         d="m 5.77,0 -8.65,5 0,-10 8.65,5 z"
         id="path18453" />
    </marker>
    <marker
       style="overflow:visible"
       id="TriangleOutM-6"
       refX="0"
       refY="0"
       orient="auto"
       inkscape:stockid="TriangleOutM">
      <path
         inkscape:connector-curvature="0"
         transform="scale(0.4,0.4)"
         style="fill-rule:evenodd;stroke:#000000;stroke-width:1pt;marker-start:none"
         d="m 5.77,0 -8.65,5 0,-10 8.65,5 z"
         id="path13068-64" />
    </marker>
    <marker
       style="overflow:visible"
       id="marker18536"
       refX="0"
       refY="0"
       orient="auto"
       inkscape:stockid="TriangleOutM">
      <path
         inkscape:connector-curvature="0"
         transform="scale(0.4,0.4)"
         style="fill-rule:evenodd;stroke:#000000;stroke-width:1pt;marker-start:none"
         d="m 5.77,0 -8.65,5 0,-10 8.65,5 z"
         id="path18538" />
    </marker>
    <marker
       style="overflow:visible"
       id="TriangleOutM-4"
       refX="0"
       refY="0"
       orient="auto"
       inkscape:stockid="TriangleOutM">
      <path
         inkscape:connector-curvature="0"
         transform="scale(0.4,0.4)"
         style="fill-rule:evenodd;stroke:#000000;stroke-width:1pt;marker-start:none"
         d="m 5.77,0 -8.65,5 0,-10 8.65,5 z"
         id="path13068-1" />
    </marker>
    <marker
       style="overflow:visible"
       id="marker18536-7"
       refX="0"
       refY="0"
       orient="auto"
       inkscape:stockid="TriangleOutM">
      <path
         inkscape:connector-curvature="0"
         transform="scale(0.4,0.4)"
         style="fill-rule:evenodd;stroke:#000000;stroke-width:1pt;marker-start:none"
         d="m 5.77,0 -8.65,5 0,-10 8.65,5 z"
         id="path18538-8" />
    </marker>
    <marker
       style="overflow:visible"
       id="TriangleOutM-61"
       refX="0"
       refY="0"
       orient="auto"
       inkscape:stockid="TriangleOutM">
      <path
         inkscape:connector-curvature="0"
         transform="scale(0.4,0.4)"
         style="fill-rule:evenodd;stroke:#000000;stroke-width:1pt;marker-start:none"
         d="m 5.77,0 -8.65,5 0,-10 8.65,5 z"
         id="path13068-2" />
    </marker>
    <marker
       style="overflow:visible"
       id="marker18603"
       refX="0"
       refY="0"
       orient="auto"
       inkscape:stockid="TriangleOutM">
      <path
         inkscape:connector-curvature="0"
         transform="scale(0.4,0.4)"
         style="fill-rule:evenodd;stroke:#000000;stroke-width:1pt;marker-start:none"
         d="m 5.77,0 -8.65,5 0,-10 8.65,5 z"
         id="path18605" />
    </marker>
    <marker
       style="overflow:visible"
       id="TriangleOutM-46"
       refX="0"
       refY="0"
       orient="auto"
       inkscape:stockid="TriangleOutM">
      <path
         inkscape:connector-curvature="0"
         transform="scale(0.4,0.4)"
         style="fill-rule:evenodd;stroke:#000000;stroke-width:1pt;marker-start:none"
         d="m 5.77,0 -8.65,5 0,-10 8.65,5 z"
         id="path13068-7" />
    </marker>
    <marker
       style="overflow:visible"
       id="marker18647"
       refX="0"
       refY="0"
       orient="auto"
       inkscape:stockid="TriangleOutM">
      <path
         inkscape:connector-curvature="0"
         transform="scale(0.4,0.4)"
         style="fill-rule:evenodd;stroke:#000000;stroke-width:1pt;marker-start:none"
         d="m 5.77,0 -8.65,5 0,-10 8.65,5 z"
         id="path18649" />
    </marker>
    <marker
       style="overflow:visible"
       id="TriangleOutM-8"
       refX="0"
       refY="0"
       orient="auto"
       inkscape:stockid="TriangleOutM">
      <path
         inkscape:connector-curvature="0"
         transform="scale(0.4,0.4)"
         style="fill-rule:evenodd;stroke:#000000;stroke-width:1pt;marker-start:none"
         d="m 5.77,0 -8.65,5 0,-10 8.65,5 z"
         id="path13068-10" />
    </marker>
    <marker
       style="overflow:visible"
       id="marker18694"
       refX="0"
       refY="0"
       orient="auto"
       inkscape:stockid="TriangleOutM">
      <path
         inkscape:connector-curvature="0"
         transform="scale(0.4,0.4)"
         style="fill-rule:evenodd;stroke:#000000;stroke-width:1pt;marker-start:none"
         d="m 5.77,0 -8.65,5 0,-10 8.65,5 z"
         id="path18696" />
    </marker>
    <marker
       style="overflow:visible"
       id="TriangleOutM-7"
       refX="0"
       refY="0"
       orient="auto"
       inkscape:stockid="TriangleOutM">
      <path
         inkscape:connector-curvature="0"
         transform="scale(0.4,0.4)"
         style="fill-rule:evenodd;stroke:#000000;stroke-width:1pt;marker-start:none"
         d="m 5.77,0 -8.65,5 0,-10 8.65,5 z"
         id="path13068-71" />
    </marker>
    <marker
       style="overflow:visible"
       id="marker18877"
       refX="0"
       refY="0"
       orient="auto"
       inkscape:stockid="TriangleOutM">
      <path
         inkscape:connector-curvature="0"
         transform="scale(0.4,0.4)"
         style="fill-rule:evenodd;stroke:#000000;stroke-width:1pt;marker-start:none"
         d="m 5.77,0 -8.65,5 0,-10 8.65,5 z"
         id="path18879" />
    </marker>
    <marker
       style="overflow:visible"
       id="TriangleOutM-5"
       refX="0"
       refY="0"
       orient="auto"
       inkscape:stockid="TriangleOutM">
      <path
         inkscape:connector-curvature="0"
         transform="scale(0.4,0.4)"
         style="fill-rule:evenodd;stroke:#000000;stroke-width:1pt;marker-start:none"
         d="m 5.77,0 -8.65,5 0,-10 8.65,5 z"
         id="path13068-74" />
    </marker>
    <marker
       style="overflow:visible"
       id="marker19763"
       refX="0"
       refY="0"
       orient="auto"
       inkscape:stockid="TriangleOutM">
      <path
         inkscape:connector-curvature="0"
         transform="scale(0.4,0.4)"
         style="fill-rule:evenodd;stroke:#000000;stroke-width:1pt;marker-start:none"
         d="m 5.77,0 -8.65,5 0,-10 8.65,5 z"
         id="path19765" />
    </marker>
    <marker
       style="overflow:visible"
       id="marker133346-4"
       refX="0"
       refY="0"
       orient="auto"
       inkscape:stockid="TriangleOutM">
      <path
         inkscape:connector-curvature="0"
         transform="scale(0.4,0.4)"
         style="fill-rule:evenodd;stroke:#000000;stroke-width:1pt;marker-start:none"
         d="m 5.77,0 -8.65,5 0,-10 8.65,5 z"
         id="path133348-1" />
    </marker>
    <marker
       style="overflow:visible"
       id="marker133346-4-7"
       refX="0"
       refY="0"
       orient="auto"
       inkscape:stockid="TriangleOutM">
      <path
         inkscape:connector-curvature="0"
         transform="scale(0.4,0.4)"
         style="fill-rule:evenodd;stroke:#000000;stroke-width:1pt;marker-start:none"
         d="m 5.77,0 -8.65,5 0,-10 8.65,5 z"
         id="path133348-1-6" />
    </marker>
    <marker
       style="overflow:visible"
       id="TriangleOutM-3"
       refX="0"
       refY="0"
       orient="auto"
       inkscape:stockid="TriangleOutM">
      <path
         inkscape:connector-curvature="0"
         transform="scale(0.4,0.4)"
         style="fill-rule:evenodd;stroke:#000000;stroke-width:1pt;marker-start:none"
         d="m 5.77,0 -8.65,5 0,-10 8.65,5 z"
         id="path13068-3" />
    </marker>
    <marker
       style="overflow:visible"
       id="TriangleInM-54"
       refX="0"
       refY="0"
       orient="auto"
       inkscape:stockid="TriangleInM">
      <path
         inkscape:connector-curvature="0"
         transform="scale(-0.4,-0.4)"
         style="fill-rule:evenodd;stroke:#000000;stroke-width:1pt;marker-start:none"
         d="m 5.77,0 -8.65,5 0,-10 8.65,5 z"
         id="path13059-6" />
    </marker>
    <marker
       style="overflow:visible"
       id="TriangleOutM-2"
       refX="0"
       refY="0"
       orient="auto"
       inkscape:stockid="TriangleOutM">
      <path
         inkscape:connector-curvature="0"
         transform="scale(0.4,0.4)"
         style="fill-rule:evenodd;stroke:#000000;stroke-width:1pt;marker-start:none"
         d="m 5.77,0 -8.65,5 0,-10 8.65,5 z"
         id="path13068-31" />
    </marker>
  </defs>
  <metadata
     id="metadata7554">
    <rdf:RDF>
      <cc:Work
         rdf:about="">
        <dc:format>image/svg+xml</dc:format>
        <dc:type
           rdf:resource="http://purl.org/dc/dcmitype/StillImage" />
        <dc:title>Bauformen Transistor npn</dc:title>
        <cc:license
           rdf:resource="http://creativecommons.org/licenses/by-nc-sa/3.0/" />
        <dc:date>2012-06-07</dc:date>
        <dc:creator>
          <cc:Agent>
            <dc:title>Bernhard Grotz</dc:title>
          </cc:Agent>
        </dc:creator>
        <dc:rights>
          <cc:Agent>
            <dc:title>Bernhard Grotz</dc:title>
          </cc:Agent>
        </dc:rights>
        <dc:publisher>
          <cc:Agent>
            <dc:title>Bernhard Grotz</dc:title>
          </cc:Agent>
        </dc:publisher>
        <dc:language>de-DE</dc:language>
        <dc:subject>
          <rdf:Bag>
            <rdf:li>Physik</rdf:li>
            <rdf:li>Elektronik</rdf:li>
            <rdf:li>Transistor</rdf:li>
            <rdf:li>npn</rdf:li>
            <rdf:li>TO-92</rdf:li>
            <rdf:li>TO-220</rdf:li>
            <rdf:li>Bauform</rdf:li>
          </rdf:Bag>
        </dc:subject>
      </cc:Work>
      <cc:License
         rdf:about="http://creativecommons.org/licenses/by-nc-sa/3.0/">
        <cc:permits
           rdf:resource="http://creativecommons.org/ns#Reproduction" />
        <cc:permits
           rdf:resource="http://creativecommons.org/ns#Distribution" />
        <cc:requires
           rdf:resource="http://creativecommons.org/ns#Notice" />
        <cc:requires
           rdf:resource="http://creativecommons.org/ns#Attribution" />
        <cc:prohibits
           rdf:resource="http://creativecommons.org/ns#CommercialUse" />
        <cc:permits
           rdf:resource="http://creativecommons.org/ns#DerivativeWorks" />
        <cc:requires
           rdf:resource="http://creativecommons.org/ns#ShareAlike" />
      </cc:License>
    </rdf:RDF>
  </metadata>
  <g
     inkscape:label="Ebene 1"
     inkscape:groupmode="layer"
     id="layer1"
     transform="translate(0,-308.26768)">
    <rect
       style="color:#000000;fill:#ffffff;fill-opacity:1;fill-rule:nonzero;stroke:#ffffff;stroke-width:1.5;marker:none;visibility:visible;display:inline;overflow:visible;enable-background:accumulate"
       id="rect3870"
       width="640"
       height="436"
       x="206.18109"
       y="462.31491"
       ry="2.2330883"
       inkscape:export-filename="/home/waldgeist/data/pics/physik/Own/elektronik/bauform-transistor-npn.png"
       inkscape:export-xdpi="150"
       inkscape:export-ydpi="150" />
    <g
       ns0:text="TO-220"
       ns0:preamble="/home/waldgeist/data/sphinx/inkscape-preamble.tex"
       transform="matrix(3.9083888,0,0,3.9083888,-243.04737,331.22436)"
       id="g25509"
       inkscape:export-filename="/home/waldgeist/data/pics/physik/Own/elektronik/bauform-transistor-npn.png"
       inkscape:export-xdpi="150"
       inkscape:export-ydpi="150">
      <defs
         id="defs25511">
        <g
           id="g25513">
          <symbol
             style="overflow:visible"
             overflow="visible"
             id="textext-36d77760-0">
            <path
               inkscape:connector-curvature="0"
               style="stroke:none"
               d="m 6.640625,-6.75 -6.09375,0 -0.1875,2.25 0.25,0 C 0.75,-6.109375 0.890625,-6.4375 2.40625,-6.4375 c 0.171875,0 0.4375,0 0.53125,0.015625 0.21875,0.046875 0.21875,0.15625 0.21875,0.375 l 0,5.265625 c 0,0.328125 0,0.46875 -1.046875,0.46875 l -0.40625,0 0,0.3125 C 2.109375,-0.03125 3.125,-0.03125 3.59375,-0.03125 c 0.453125,0 1.484375,0 1.890625,0.03125 l 0,-0.3125 -0.40625,0 c -1.046875,0 -1.046875,-0.140625 -1.046875,-0.46875 l 0,-5.265625 c 0,-0.1875 0,-0.328125 0.1875,-0.375 0.109375,-0.015625 0.375,-0.015625 0.5625,-0.015625 1.515625,0 1.65625,0.328125 1.796875,1.9375 l 0.25,0 z m 0,0"
               id="path25516" />
          </symbol>
          <symbol
             style="overflow:visible"
             overflow="visible"
             id="textext-36d77760-1">
            <path
               inkscape:connector-curvature="0"
               style="stroke:none"
               d="m 7.1875,-3.375 c 0,-2.03125 -1.5,-3.65625 -3.3125,-3.65625 -1.796875,0 -3.3125,1.59375 -3.3125,3.65625 0,2.046875 1.53125,3.59375 3.3125,3.59375 1.8125,0 3.3125,-1.578125 3.3125,-3.59375 z M 3.875,-0.046875 c -0.953125,0 -2.296875,-0.875 -2.296875,-3.46875 0,-2.578125 1.46875,-3.265625 2.296875,-3.265625 0.859375,0 2.28125,0.703125 2.28125,3.265625 0,2.640625 -1.359375,3.46875 -2.28125,3.46875 z m 0,0"
               id="path25519" />
          </symbol>
          <symbol
             style="overflow:visible"
             overflow="visible"
             id="textext-36d77760-2">
            <path
               inkscape:connector-curvature="0"
               style="stroke:none"
               d="m 2.75,-1.859375 0,-0.578125 -2.640625,0 0,0.578125 z m 0,0"
               id="path25522" />
          </symbol>
          <symbol
             style="overflow:visible"
             overflow="visible"
             id="textext-36d77760-3">
            <path
               inkscape:connector-curvature="0"
               style="stroke:none"
               d="m 1.265625,-0.765625 1.0625,-1.03125 c 1.546875,-1.375 2.140625,-1.90625 2.140625,-2.90625 0,-1.140625 -0.890625,-1.9375 -2.109375,-1.9375 -1.125,0 -1.859375,0.921875 -1.859375,1.8125 0,0.546875 0.5,0.546875 0.53125,0.546875 0.171875,0 0.515625,-0.109375 0.515625,-0.53125 0,-0.25 -0.1875,-0.515625 -0.53125,-0.515625 -0.078125,0 -0.09375,0 -0.125,0.015625 0.21875,-0.65625 0.765625,-1.015625 1.34375,-1.015625 0.90625,0 1.328125,0.8125 1.328125,1.625 C 3.5625,-3.90625 3.078125,-3.125 2.515625,-2.5 l -1.90625,2.125 C 0.5,-0.265625 0.5,-0.234375 0.5,0 l 3.703125,0 0.265625,-1.734375 -0.234375,0 C 4.171875,-1.4375 4.109375,-1 4,-0.84375 3.9375,-0.765625 3.28125,-0.765625 3.0625,-0.765625 z m 0,0"
               id="path25525" />
          </symbol>
          <symbol
             style="overflow:visible"
             overflow="visible"
             id="textext-36d77760-4">
            <path
               inkscape:connector-curvature="0"
               style="stroke:none"
               d="m 4.578125,-3.1875 c 0,-0.796875 -0.046875,-1.59375 -0.390625,-2.328125 -0.453125,-0.96875 -1.28125,-1.125 -1.6875,-1.125 -0.609375,0 -1.328125,0.265625 -1.75,1.1875 -0.3125,0.6875 -0.359375,1.46875 -0.359375,2.265625 0,0.75 0.03125,1.640625 0.453125,2.40625 0.421875,0.796875 1.15625,1 1.640625,1 0.53125,0 1.296875,-0.203125 1.734375,-1.15625 0.3125,-0.6875 0.359375,-1.46875 0.359375,-2.25 z M 2.484375,0 C 2.09375,0 1.5,-0.25 1.328125,-1.203125 1.21875,-1.796875 1.21875,-2.71875 1.21875,-3.3125 c 0,-0.640625 0,-1.296875 0.078125,-1.828125 0.1875,-1.1875 0.9375,-1.28125 1.1875,-1.28125 0.328125,0 0.984375,0.1875 1.171875,1.171875 0.109375,0.5625 0.109375,1.3125 0.109375,1.9375 0,0.75 0,1.421875 -0.109375,2.0625 C 3.5,-0.296875 2.9375,0 2.484375,0 z m 0,0"
               id="path25528" />
          </symbol>
        </g>
      </defs>
      <g
         id="textext-36d77760-5">
        <g
           style="fill:#000000;fill-opacity:1"
           id="g25531">
          <use
             height="262.20471"
             width="372.04724"
             xlink:href="#textext-36d77760-0"
             x="223.43201"
             y="134.765"
             id="use25533" />
          <use
             height="262.20471"
             width="372.04724"
             xlink:href="#textext-36d77760-1"
             x="230.62698"
             y="134.765"
             id="use25535" />
          <use
             height="262.20471"
             width="372.04724"
             xlink:href="#textext-36d77760-2"
             x="238.3759"
             y="134.765"
             id="use25537" />
          <use
             height="262.20471"
             width="372.04724"
             xlink:href="#textext-36d77760-3"
             x="241.69644"
             y="134.765"
             id="use25539" />
          <use
             height="262.20471"
             width="372.04724"
             xlink:href="#textext-36d77760-3"
             x="246.67773"
             y="134.765"
             id="use25541" />
          <use
             height="262.20471"
             width="372.04724"
             xlink:href="#textext-36d77760-4"
             x="251.65904"
             y="134.765"
             id="use25543" />
        </g>
      </g>
    </g>
    <g
       transform="matrix(1.4620253,0,0,1.4620253,378.46849,-709.61818)"
       id="g26002"
       inkscape:export-filename="/home/waldgeist/data/pics/physik/Own/elektronik/bauform-transistor-npn.png"
       inkscape:export-xdpi="150"
       inkscape:export-ydpi="150">
      <g
         id="g25991">
        <g
           transform="translate(-0.10937141,0.11346645)"
           id="g25979">
          <path
             transform="translate(0,790.15746)"
             inkscape:connector-curvature="0"
             id="path25981"
             d="m 195.01584,150.16621 -0.25266,21.80611 1.59721,2.12402 0,44.36746 2.88185,2.88184 3.60381,-0.96564 0,-46.28876 1.52684,-2.13151 0,-28.7656"
             style="fill:#e6e6e6;stroke:#000000;stroke-width:0.68398267px;stroke-linecap:round;stroke-linejoin:round;stroke-opacity:1"
             sodipodi:nodetypes="ccccccccc" />
          <path
             sodipodi:nodetypes="ccccc"
             inkscape:connector-curvature="0"
             id="path25983"
             d="m 199.24224,1011.5031 0.15468,0 0,-46.37164 1.56147,-2.22142 0,-25.43292"
             style="fill:none;stroke:#000000;stroke-width:0.68398267px;stroke-linecap:round;stroke-linejoin:round;stroke-opacity:1" />
        </g>
        <g
           id="g25860"
           transform="translate(27.367466,15.800616)">
          <path
             sodipodi:nodetypes="ccccccccc"
             style="fill:#e6e6e6;stroke:#000000;stroke-width:0.68398267px;stroke-linecap:round;stroke-linejoin:round;stroke-opacity:1"
             d="m 195.01584,150.16621 -0.25266,21.80611 1.59721,2.12402 0,44.36746 2.88185,2.88184 3.60381,-0.96564 0,-46.28876 1.52684,-2.13151 0,-28.7656"
             id="path25862"
             inkscape:connector-curvature="0"
             transform="translate(0,790.15746)" />
          <path
             style="fill:none;stroke:#000000;stroke-width:0.68398267px;stroke-linecap:round;stroke-linejoin:round;stroke-opacity:1"
             d="m 199.24224,1011.5031 0.15468,0 0,-46.37164 1.56147,-2.22142 0,-25.43292"
             id="path25864"
             inkscape:connector-curvature="0"
             sodipodi:nodetypes="ccccc" />
        </g>
        <g
           transform="translate(13.629047,7.957041)"
           id="g25985">
          <path
             transform="translate(0,790.15746)"
             inkscape:connector-curvature="0"
             id="path25987"
             d="m 195.01584,150.16621 -0.25266,21.80611 1.59721,2.12402 0,44.36746 2.88185,2.88184 3.60381,-0.96564 0,-46.28876 1.52684,-2.13151 0,-28.7656"
             style="fill:#e6e6e6;stroke:#000000;stroke-width:0.68398267px;stroke-linecap:round;stroke-linejoin:round;stroke-opacity:1"
             sodipodi:nodetypes="ccccccccc" />
          <path
             sodipodi:nodetypes="ccccc"
             inkscape:connector-curvature="0"
             id="path25989"
             d="m 199.24224,1011.5031 0.15468,0 0,-46.37164 1.56147,-2.22142 0,-25.43292"
             style="fill:none;stroke:#000000;stroke-width:0.68398267px;stroke-linecap:round;stroke-linejoin:round;stroke-opacity:1" />
        </g>
      </g>
      <path
         style="fill:#000000;stroke:#000000;stroke-width:0.68398267px;stroke-linecap:round;stroke-linejoin:round;stroke-opacity:1"
         d="m 225.40813,167.71321 0,-45.1621 23.71515,-17.40041 0,45.1621 z"
         id="path25965"
         inkscape:connector-curvature="0"
         transform="translate(0,790.15746)" />
      <path
         style="fill:#000000;stroke:#000000;stroke-width:0.68398267px;stroke-linecap:round;stroke-linejoin:round;stroke-opacity:1"
         d="m 181.91378,97.18724 16.66033,-12.18149 43.65436,25.20386 -16.82034,12.3415 z"
         id="path25963"
         inkscape:connector-curvature="0"
         transform="translate(0,790.15746)" />
      <path
         style="fill:#000000;stroke:#000000;stroke-width:0.68398267px;stroke-linecap:round;stroke-linejoin:round;stroke-opacity:1"
         d="m 181.75377,142.50935 0,-45.1621 43.65436,25.20386 0,45.1621 -43.65436,-25.20386 z"
         id="path25961"
         inkscape:connector-curvature="0"
         transform="translate(0,790.15746)" />
      <path
         style="fill:none;stroke:#b3b3b3;stroke-width:0.68398267;stroke-linecap:round;stroke-linejoin:miter;stroke-opacity:1"
         d="m 181.75377,932.66681 43.65436,25.20386"
         id="path25816"
         inkscape:connector-curvature="0" />
      <path
         style="fill:none;stroke:#b3b3b3;stroke-width:0.68398267;stroke-linecap:round;stroke-linejoin:miter;stroke-opacity:1"
         d="m 225.40813,957.87067 0,-45.1621"
         id="path25820"
         inkscape:connector-curvature="0" />
      <path
         inkscape:connector-curvature="0"
         id="path25822"
         d="m 181.75377,932.66681 0,-45.1621"
         style="fill:none;stroke:#b3b3b3;stroke-width:0.68398267;stroke-linecap:round;stroke-linejoin:miter;stroke-opacity:1" />
      <path
         style="fill:none;stroke:#b3b3b3;stroke-width:0.68398267;stroke-linecap:round;stroke-linejoin:miter;stroke-opacity:1"
         d="m 249.12328,940.47026 0,-45.1621"
         id="path25824"
         inkscape:connector-curvature="0" />
      <path
         style="fill:none;stroke:#b3b3b3;stroke-width:0.68398267;stroke-linecap:round;stroke-linejoin:miter;stroke-opacity:1"
         d="m 225.40813,912.70857 23.71515,-17.40041"
         id="path25826"
         inkscape:connector-curvature="0"
         sodipodi:nodetypes="cc" />
      <path
         sodipodi:nodetypes="cc"
         inkscape:connector-curvature="0"
         id="path25834"
         d="m 225.40813,957.87067 23.71515,-17.40041"
         style="fill:none;stroke:#b3b3b3;stroke-width:0.68398267;stroke-linecap:round;stroke-linejoin:miter;stroke-opacity:1" />
      <path
         style="fill:#ffffff;stroke:#000000;stroke-width:0.68398267px;stroke-linecap:butt;stroke-linejoin:miter;stroke-opacity:1"
         d="m 242.22847,110.20961 -43.65436,-25.20386 0.0678,-10.1861 -2.24327,-1.28004 0,-9.98004 2.24327,-1.89171 0,-7.01551 -2.24327,-1.30215 0,-9.28567 47.93765,27.67682 0,8.72479 -2.10777,1.2235 0,6.59175 2.10777,1.77745 0,9.37722 -2.10777,1.20272 z"
         id="path25955"
         inkscape:connector-curvature="0"
         transform="translate(0,790.15746)" />
      <path
         sodipodi:nodetypes="cc"
         inkscape:connector-curvature="0"
         id="path25836"
         d="m 181.91378,887.3447 16.72808,-12.27381"
         style="fill:none;stroke:#b3b3b3;stroke-width:0.68398267;stroke-linecap:round;stroke-linejoin:miter;stroke-opacity:1" />
      <path
         inkscape:connector-curvature="0"
         id="path25818"
         d="m 181.75377,887.50471 43.65436,25.20386"
         style="fill:none;stroke:#b3b3b3;stroke-width:0.68398267;stroke-linecap:round;stroke-linejoin:miter;stroke-opacity:1" />
      <path
         inkscape:connector-curvature="0"
         style="color:#000000;fill:none;stroke:#000000;stroke-width:0.68398267;stroke-linecap:round;stroke-linejoin:round;stroke-miterlimit:4;stroke-opacity:1;stroke-dasharray:none;stroke-dashoffset:0;marker:none;visibility:visible;display:inline;overflow:visible;enable-background:accumulate"
         d="m 216.9375,65.96875 c -0.75568,2.060714 -0.8049,4.674618 0.0625,7.53125 1.97817,6.514712 7.89362,11.789343 13.3125,11.96875 0.7567,-2.061149 0.77406,-4.67329 -0.0937,-7.53125 -1.97549,-6.505901 -7.86837,-11.775755 -13.28125,-11.96875 z"
         transform="translate(0,790.15746)"
         id="path25840" />
      <path
         style="fill:none;stroke:#333333;stroke-width:0.68398267;stroke-linecap:round;stroke-linejoin:miter;stroke-opacity:1"
         d="m 198.57411,875.16321 43.65436,25.20386"
         id="path25933"
         inkscape:connector-curvature="0" />
      <path
         style="fill:none;stroke:#000000;stroke-width:0.68398267;stroke-linecap:round;stroke-linejoin:round;stroke-opacity:1"
         d="m 242.22847,900.36707 0,-9.57083 2.10777,-1.20272 0,-9.37722 -2.10777,-1.77745 0,-6.59175 2.10777,-1.2235 0,-8.72479"
         id="path25842"
         inkscape:connector-curvature="0"
         sodipodi:nodetypes="cccccccc" />
      <path
         style="fill:none;stroke:#000000;stroke-width:0.68398267;stroke-linecap:round;stroke-linejoin:miter;stroke-miterlimit:4;stroke-opacity:1;stroke-dasharray:none"
         d="m 244.33624,861.89881 6.89481,-5.05891"
         id="path25872"
         inkscape:connector-curvature="0"
         sodipodi:nodetypes="cc" />
      <path
         sodipodi:nodetypes="cccccccc"
         inkscape:connector-curvature="0"
         id="path25896"
         d="m 249.12328,895.30816 0,-9.57083 2.10777,-1.20272 0,-9.37722 -2.10777,-1.77745 0,-6.59175 2.10777,-1.2235 0,-8.72479"
         style="fill:none;stroke:#000000;stroke-width:0.68398267;stroke-linecap:round;stroke-linejoin:round;stroke-miterlimit:4;stroke-opacity:1;stroke-dasharray:none" />
      <path
         sodipodi:nodetypes="cc"
         inkscape:connector-curvature="0"
         id="path25919"
         d="m 244.33624,870.6236 6.89481,-5.05891"
         style="fill:none;stroke:#000000;stroke-width:0.68398267;stroke-linecap:round;stroke-linejoin:miter;stroke-miterlimit:4;stroke-opacity:1;stroke-dasharray:none" />
      <path
         style="fill:none;stroke:#000000;stroke-width:0.68398267;stroke-linecap:round;stroke-linejoin:miter;stroke-miterlimit:4;stroke-opacity:1;stroke-dasharray:none"
         d="m 242.22847,878.43885 6.89481,-5.05891"
         id="path25921"
         inkscape:connector-curvature="0"
         sodipodi:nodetypes="cc" />
      <path
         sodipodi:nodetypes="cc"
         inkscape:connector-curvature="0"
         id="path25923"
         d="m 244.33624,880.2163 6.89481,-5.05891"
         style="fill:none;stroke:#000000;stroke-width:0.68398267;stroke-linecap:round;stroke-linejoin:miter;stroke-miterlimit:4;stroke-opacity:1;stroke-dasharray:none" />
      <path
         style="fill:none;stroke:#000000;stroke-width:0.68398267;stroke-linecap:round;stroke-linejoin:miter;stroke-miterlimit:4;stroke-opacity:1;stroke-dasharray:none"
         d="m 244.33624,889.59352 6.89481,-5.05891"
         id="path25925"
         inkscape:connector-curvature="0"
         sodipodi:nodetypes="cc" />
      <path
         inkscape:connector-curvature="0"
         id="path25935"
         d="m 196.39859,834.22199 47.93765,27.67682"
         style="fill:none;stroke:#000000;stroke-width:0.75109392;stroke-linecap:round;stroke-linejoin:miter;stroke-opacity:1" />
      <path
         sodipodi:nodetypes="cccccccc"
         inkscape:connector-curvature="0"
         id="path25941"
         d="m 198.64186,875.16321 0,-10.1861 -2.24327,-1.28004 0,-9.98004 2.24327,-1.89171 0,-7.01551 -2.24327,-1.30215 0,-9.28567"
         style="fill:none;stroke:#000000;stroke-width:0.72795296;stroke-linecap:round;stroke-linejoin:round;stroke-opacity:1" />
      <path
         sodipodi:nodetypes="cc"
         inkscape:connector-curvature="0"
         id="path25943"
         d="m 196.39859,834.22199 6.89481,-5.05891"
         style="fill:none;stroke:#000000;stroke-width:0.68398267;stroke-linecap:round;stroke-linejoin:miter;stroke-miterlimit:4;stroke-opacity:1;stroke-dasharray:none" />
      <path
         style="fill:none;stroke:#000000;stroke-width:0.75109392;stroke-linecap:round;stroke-linejoin:miter;stroke-opacity:1"
         d="m 203.2934,829.16308 47.93765,27.67682"
         id="path25945"
         inkscape:connector-curvature="0" />
      <path
         sodipodi:type="arc"
         style="color:#000000;fill:none;stroke:#000000;stroke-width:0.68398267;stroke-linecap:round;stroke-linejoin:round;stroke-miterlimit:4;stroke-opacity:1;stroke-dasharray:none;stroke-dashoffset:0;marker:none;visibility:visible;display:inline;overflow:visible;enable-background:accumulate"
         id="path25953"
         sodipodi:cx="221.70485"
         sodipodi:cy="77.924393"
         sodipodi:rx="9.9482946"
         sodipodi:ry="12.001118"
         d="m 231.65314,77.924393 c 0,6.628034 -4.454,12.001117 -9.94829,12.001117 -5.49429,0 -9.9483,-5.373083 -9.9483,-12.001117 0,-6.628035 4.45401,-12.001118 9.9483,-12.001118 5.49429,0 9.94829,5.373083 9.94829,12.001118 z"
         transform="matrix(1,0,0.30364589,1,-25.082607,790.15746)" />
      <path
         style="fill:#ffffff;stroke:#000000;stroke-width:0.68398267px;stroke-linecap:round;stroke-linejoin:round;stroke-opacity:1"
         d="m 244.33629,99.43606 -5e-5,-9.37722 6.89481,-5.05891 0,9.37722 z"
         id="path25957"
         inkscape:connector-curvature="0"
         transform="translate(0,790.15746)" />
      <path
         style="fill:#ffffff;stroke:#000000;stroke-width:0.68398267px;stroke-linecap:round;stroke-linejoin:round;stroke-opacity:1"
         d="m 244.33629,80.46614 0,-8.72479 6.89476,-5.05891 0,8.72479 z"
         id="path25959"
         inkscape:connector-curvature="0"
         transform="translate(0,790.15746)" />
    </g>
    <g
       id="g6433"
       transform="matrix(2.3042041,0,0,2.3042041,153.33042,489.58274)"
       ns0:preamble="/home/waldgeist/data/sphinx/inkscape-preamble.tex"
       ns0:text="$B$"
       inkscape:export-filename="/home/waldgeist/data/pics/physik/Own/elektronik/bauform-transistor-npn.png"
       inkscape:export-xdpi="150"
       inkscape:export-ydpi="150">
      <defs
         id="defs6435">
        <g
           id="g6437">
          <symbol
             id="symbol6439"
             overflow="visible"
             style="overflow:visible">
            <path
               id="path6441"
               d="M 1.59375,-0.78125 C 1.5,-0.390625 1.46875,-0.3125 0.6875,-0.3125 c -0.171875,0 -0.265625,0 -0.265625,0.203125 C 0.421875,0 0.515625,0 0.6875,0 L 4.25,0 C 5.828125,0 7,-1.171875 7,-2.15625 7,-2.875 6.421875,-3.453125 5.453125,-3.5625 6.484375,-3.75 7.53125,-4.484375 7.53125,-5.4375 c 0,-0.734375 -0.65625,-1.375 -1.84375,-1.375 l -3.359375,0 c -0.1875,0 -0.28125,0 -0.28125,0.203125 0,0.109375 0.09375,0.109375 0.28125,0.109375 0.015625,0 0.203125,0 0.375,0.015625 0.171875,0.03125 0.265625,0.03125 0.265625,0.171875 0,0.03125 -0.015625,0.0625 -0.03125,0.1875 z m 1.5,-2.875 0.625,-2.46875 C 3.8125,-6.46875 3.828125,-6.5 4.25,-6.5 l 1.296875,0 c 0.875,0 1.078125,0.59375 1.078125,1.03125 0,0.875 -0.859375,1.8125 -2.0625,1.8125 z m -0.4375,3.34375 c -0.140625,0 -0.15625,0 -0.21875,0 -0.109375,-0.015625 -0.140625,-0.03125 -0.140625,-0.109375 0,-0.03125 0,-0.046875 0.0625,-0.21875 l 0.6875,-2.78125 1.875,0 c 0.953125,0 1.15625,0.734375 1.15625,1.15625 C 6.078125,-1.28125 5.1875,-0.3125 4,-0.3125 z m 0,0"
               style="stroke:none"
               inkscape:connector-curvature="0" />
          </symbol>
        </g>
      </defs>
      <g
         id="g6443">
        <g
           id="g6445"
           style="fill:#000000;fill-opacity:1">
          <g
             id="use6447"
             transform="translate(223.43201,134.765)">
            <path
               inkscape:connector-curvature="0"
               style="stroke:none"
               d="M 1.59375,-0.78125 C 1.5,-0.390625 1.46875,-0.3125 0.6875,-0.3125 c -0.171875,0 -0.265625,0 -0.265625,0.203125 C 0.421875,0 0.515625,0 0.6875,0 L 4.25,0 C 5.828125,0 7,-1.171875 7,-2.15625 7,-2.875 6.421875,-3.453125 5.453125,-3.5625 6.484375,-3.75 7.53125,-4.484375 7.53125,-5.4375 c 0,-0.734375 -0.65625,-1.375 -1.84375,-1.375 l -3.359375,0 c -0.1875,0 -0.28125,0 -0.28125,0.203125 0,0.109375 0.09375,0.109375 0.28125,0.109375 0.015625,0 0.203125,0 0.375,0.015625 0.171875,0.03125 0.265625,0.03125 0.265625,0.171875 0,0.03125 -0.015625,0.0625 -0.03125,0.1875 z m 1.5,-2.875 0.625,-2.46875 C 3.8125,-6.46875 3.828125,-6.5 4.25,-6.5 l 1.296875,0 c 0.875,0 1.078125,0.59375 1.078125,1.03125 0,0.875 -0.859375,1.8125 -2.0625,1.8125 z m -0.4375,3.34375 c -0.140625,0 -0.15625,0 -0.21875,0 -0.109375,-0.015625 -0.140625,-0.03125 -0.140625,-0.109375 0,-0.03125 0,-0.046875 0.0625,-0.21875 l 0.6875,-2.78125 1.875,0 c 0.953125,0 1.15625,0.734375 1.15625,1.15625 C 6.078125,-1.28125 5.1875,-0.3125 4,-0.3125 z m 0,0"
               id="path6561" />
          </g>
        </g>
      </g>
    </g>
    <g
       ns0:text="$C$"
       ns0:preamble="/home/waldgeist/data/sphinx/inkscape-preamble.tex"
       transform="matrix(2.3042041,0,0,2.3042041,135.05534,478.51576)"
       id="g6449"
       inkscape:export-filename="/home/waldgeist/data/pics/physik/Own/elektronik/bauform-transistor-npn.png"
       inkscape:export-xdpi="150"
       inkscape:export-ydpi="150">
      <defs
         id="defs6451">
        <g
           id="g6453">
          <symbol
             overflow="visible"
             id="symbol6455"
             style="overflow:visible">
            <path
               style="stroke:none"
               d="m 7.578125,-6.921875 c 0,-0.03125 -0.015625,-0.109375 -0.109375,-0.109375 -0.03125,0 -0.046875,0.015625 -0.15625,0.125 L 6.625,-6.140625 C 6.53125,-6.28125 6.078125,-7.03125 4.96875,-7.03125 2.734375,-7.03125 0.5,-4.828125 0.5,-2.515625 0.5,-0.875 1.671875,0.21875 3.203125,0.21875 c 0.859375,0 1.625,-0.390625 2.15625,-0.859375 0.921875,-0.8125 1.09375,-1.71875 1.09375,-1.75 C 6.453125,-2.5 6.34375,-2.5 6.328125,-2.5 c -0.0625,0 -0.109375,0.03125 -0.125,0.109375 -0.09375,0.28125 -0.328125,1 -1.015625,1.578125 -0.6875,0.546875 -1.3125,0.71875 -1.828125,0.71875 -0.890625,0 -1.953125,-0.515625 -1.953125,-2.0625 0,-0.578125 0.203125,-2.1875 1.203125,-3.359375 0.609375,-0.703125 1.546875,-1.203125 2.4375,-1.203125 1.015625,0 1.609375,0.765625 1.609375,1.921875 0,0.40625 -0.03125,0.40625 -0.03125,0.515625 0,0.09375 0.109375,0.09375 0.140625,0.09375 0.125,0 0.125,-0.015625 0.1875,-0.203125 z m 0,0"
               id="path6457"
               inkscape:connector-curvature="0" />
          </symbol>
        </g>
      </defs>
      <g
         id="g6459">
        <g
           style="fill:#000000;fill-opacity:1"
           id="g6461">
          <g
             id="use6463"
             transform="translate(223.43201,134.765)">
            <path
               inkscape:connector-curvature="0"
               id="path6569"
               d="m 7.578125,-6.921875 c 0,-0.03125 -0.015625,-0.109375 -0.109375,-0.109375 -0.03125,0 -0.046875,0.015625 -0.15625,0.125 L 6.625,-6.140625 C 6.53125,-6.28125 6.078125,-7.03125 4.96875,-7.03125 2.734375,-7.03125 0.5,-4.828125 0.5,-2.515625 0.5,-0.875 1.671875,0.21875 3.203125,0.21875 c 0.859375,0 1.625,-0.390625 2.15625,-0.859375 0.921875,-0.8125 1.09375,-1.71875 1.09375,-1.75 C 6.453125,-2.5 6.34375,-2.5 6.328125,-2.5 c -0.0625,0 -0.109375,0.03125 -0.125,0.109375 -0.09375,0.28125 -0.328125,1 -1.015625,1.578125 -0.6875,0.546875 -1.3125,0.71875 -1.828125,0.71875 -0.890625,0 -1.953125,-0.515625 -1.953125,-2.0625 0,-0.578125 0.203125,-2.1875 1.203125,-3.359375 0.609375,-0.703125 1.546875,-1.203125 2.4375,-1.203125 1.015625,0 1.609375,0.765625 1.609375,1.921875 0,0.40625 -0.03125,0.40625 -0.03125,0.515625 0,0.09375 0.109375,0.09375 0.140625,0.09375 0.125,0 0.125,-0.015625 0.1875,-0.203125 z m 0,0"
               style="stroke:none" />
          </g>
        </g>
      </g>
    </g>
    <g
       id="g6465"
       transform="matrix(2.3042041,0,0,2.3042041,168.68146,498.24615)"
       ns0:preamble="/home/waldgeist/data/sphinx/inkscape-preamble.tex"
       ns0:text="$E$"
       inkscape:export-filename="/home/waldgeist/data/pics/physik/Own/elektronik/bauform-transistor-npn.png"
       inkscape:export-xdpi="150"
       inkscape:export-ydpi="150">
      <defs
         id="defs6467">
        <g
           id="g6469">
          <symbol
             id="symbol6471"
             overflow="visible"
             style="overflow:visible">
            <path
               id="path6473"
               d="M 7.0625,-2.328125 C 7.078125,-2.375 7.109375,-2.4375 7.109375,-2.46875 c 0,0 0,-0.109375 -0.125,-0.109375 -0.09375,0 -0.109375,0.0625 -0.125,0.125 -0.65625,1.46875 -1.015625,2.140625 -2.71875,2.140625 l -1.453125,0 c -0.140625,0 -0.171875,0 -0.21875,0 -0.109375,-0.015625 -0.140625,-0.03125 -0.140625,-0.109375 0,-0.03125 0,-0.046875 0.046875,-0.21875 L 3.0625,-3.375 l 0.984375,0 c 0.84375,0 0.84375,0.21875 0.84375,0.46875 0,0.0625 0,0.1875 -0.0625,0.484375 C 4.8125,-2.375 4.796875,-2.34375 4.796875,-2.3125 c 0,0.046875 0.03125,0.109375 0.125,0.109375 C 5,-2.203125 5.03125,-2.25 5.078125,-2.40625 l 0.5625,-2.328125 c 0,-0.0625 -0.046875,-0.109375 -0.125,-0.109375 -0.078125,0 -0.109375,0.0625 -0.125,0.171875 -0.21875,0.765625 -0.390625,1 -1.3125,1 l -0.9375,0 0.59375,-2.40625 C 3.828125,-6.4375 3.84375,-6.46875 4.28125,-6.46875 l 1.40625,0 c 1.203125,0 1.515625,0.28125 1.515625,1.109375 0,0.234375 0,0.25 -0.046875,0.53125 0,0.046875 -0.015625,0.125 -0.015625,0.171875 0,0.046875 0.03125,0.125 0.125,0.125 0.109375,0 0.125,-0.0625 0.140625,-0.25 L 7.609375,-6.515625 C 7.640625,-6.78125 7.59375,-6.78125 7.34375,-6.78125 l -5.046875,0 c -0.1875,0 -0.296875,0 -0.296875,0.203125 0,0.109375 0.09375,0.109375 0.28125,0.109375 0.375,0 0.65625,0 0.65625,0.171875 0,0.046875 0,0.0625 -0.0625,0.25 L 1.5625,-0.78125 c -0.09375,0.390625 -0.109375,0.46875 -0.90625,0.46875 -0.171875,0 -0.28125,0 -0.28125,0.1875 C 0.375,0 0.46875,0 0.65625,0 l 5.171875,0 c 0.234375,0 0.25,-0.015625 0.3125,-0.171875 z m 0,0"
               style="stroke:none"
               inkscape:connector-curvature="0" />
          </symbol>
        </g>
      </defs>
      <g
         id="g6475">
        <g
           id="g6477"
           style="fill:#000000;fill-opacity:1">
          <g
             id="use6479"
             transform="translate(224.70101,135.55813)">
            <path
               inkscape:connector-curvature="0"
               style="stroke:none"
               d="M 7.0625,-2.328125 C 7.078125,-2.375 7.109375,-2.4375 7.109375,-2.46875 c 0,0 0,-0.109375 -0.125,-0.109375 -0.09375,0 -0.109375,0.0625 -0.125,0.125 -0.65625,1.46875 -1.015625,2.140625 -2.71875,2.140625 l -1.453125,0 c -0.140625,0 -0.171875,0 -0.21875,0 -0.109375,-0.015625 -0.140625,-0.03125 -0.140625,-0.109375 0,-0.03125 0,-0.046875 0.046875,-0.21875 L 3.0625,-3.375 l 0.984375,0 c 0.84375,0 0.84375,0.21875 0.84375,0.46875 0,0.0625 0,0.1875 -0.0625,0.484375 C 4.8125,-2.375 4.796875,-2.34375 4.796875,-2.3125 c 0,0.046875 0.03125,0.109375 0.125,0.109375 C 5,-2.203125 5.03125,-2.25 5.078125,-2.40625 l 0.5625,-2.328125 c 0,-0.0625 -0.046875,-0.109375 -0.125,-0.109375 -0.078125,0 -0.109375,0.0625 -0.125,0.171875 -0.21875,0.765625 -0.390625,1 -1.3125,1 l -0.9375,0 0.59375,-2.40625 C 3.828125,-6.4375 3.84375,-6.46875 4.28125,-6.46875 l 1.40625,0 c 1.203125,0 1.515625,0.28125 1.515625,1.109375 0,0.234375 0,0.25 -0.046875,0.53125 0,0.046875 -0.015625,0.125 -0.015625,0.171875 0,0.046875 0.03125,0.125 0.125,0.125 0.109375,0 0.125,-0.0625 0.140625,-0.25 L 7.609375,-6.515625 C 7.640625,-6.78125 7.59375,-6.78125 7.34375,-6.78125 l -5.046875,0 c -0.1875,0 -0.296875,0 -0.296875,0.203125 0,0.109375 0.09375,0.109375 0.28125,0.109375 0.375,0 0.65625,0 0.65625,0.171875 0,0.046875 0,0.0625 -0.0625,0.25 L 1.5625,-0.78125 c -0.09375,0.390625 -0.109375,0.46875 -0.90625,0.46875 -0.171875,0 -0.28125,0 -0.28125,0.1875 C 0.375,0 0.46875,0 0.65625,0 l 5.171875,0 c 0.234375,0 0.25,-0.015625 0.3125,-0.171875 z m 0,0"
               id="path6577" />
          </g>
        </g>
      </g>
    </g>
    <g
       id="g25235"
       transform="matrix(3.9083888,0,0,3.9083888,-414.41343,331.22436)"
       ns0:preamble="/home/waldgeist/data/sphinx/inkscape-preamble.tex"
       ns0:text="TO-92"
       inkscape:export-filename="/home/waldgeist/data/pics/physik/Own/elektronik/bauform-transistor-npn.png"
       inkscape:export-xdpi="150"
       inkscape:export-ydpi="150">
      <defs
         id="defs25237">
        <g
           id="g25239">
          <symbol
             id="textext-d56c7041-0"
             overflow="visible"
             style="overflow:visible">
            <path
               id="path25242"
               d="m 6.640625,-6.75 -6.09375,0 -0.1875,2.25 0.25,0 C 0.75,-6.109375 0.890625,-6.4375 2.40625,-6.4375 c 0.171875,0 0.4375,0 0.53125,0.015625 0.21875,0.046875 0.21875,0.15625 0.21875,0.375 l 0,5.265625 c 0,0.328125 0,0.46875 -1.046875,0.46875 l -0.40625,0 0,0.3125 C 2.109375,-0.03125 3.125,-0.03125 3.59375,-0.03125 c 0.453125,0 1.484375,0 1.890625,0.03125 l 0,-0.3125 -0.40625,0 c -1.046875,0 -1.046875,-0.140625 -1.046875,-0.46875 l 0,-5.265625 c 0,-0.1875 0,-0.328125 0.1875,-0.375 0.109375,-0.015625 0.375,-0.015625 0.5625,-0.015625 1.515625,0 1.65625,0.328125 1.796875,1.9375 l 0.25,0 z m 0,0"
               style="stroke:none"
               inkscape:connector-curvature="0" />
          </symbol>
          <symbol
             id="textext-d56c7041-1"
             overflow="visible"
             style="overflow:visible">
            <path
               id="path25245"
               d="m 7.1875,-3.375 c 0,-2.03125 -1.5,-3.65625 -3.3125,-3.65625 -1.796875,0 -3.3125,1.59375 -3.3125,3.65625 0,2.046875 1.53125,3.59375 3.3125,3.59375 1.8125,0 3.3125,-1.578125 3.3125,-3.59375 z M 3.875,-0.046875 c -0.953125,0 -2.296875,-0.875 -2.296875,-3.46875 0,-2.578125 1.46875,-3.265625 2.296875,-3.265625 0.859375,0 2.28125,0.703125 2.28125,3.265625 0,2.640625 -1.359375,3.46875 -2.28125,3.46875 z m 0,0"
               style="stroke:none"
               inkscape:connector-curvature="0" />
          </symbol>
          <symbol
             id="textext-d56c7041-2"
             overflow="visible"
             style="overflow:visible">
            <path
               id="path25248"
               d="m 2.75,-1.859375 0,-0.578125 -2.640625,0 0,0.578125 z m 0,0"
               style="stroke:none"
               inkscape:connector-curvature="0" />
          </symbol>
          <symbol
             id="textext-d56c7041-3"
             overflow="visible"
             style="overflow:visible">
            <path
               id="path25251"
               d="m 3.65625,-3.171875 0,0.328125 c 0,2.328125 -1.03125,2.78125 -1.609375,2.78125 -0.171875,0 -0.71875,-0.015625 -0.984375,-0.359375 0.4375,0 0.515625,-0.28125 0.515625,-0.453125 0,-0.3125 -0.234375,-0.453125 -0.453125,-0.453125 -0.15625,0 -0.453125,0.078125 -0.453125,0.46875 0,0.671875 0.53125,1.078125 1.375,1.078125 1.296875,0 2.515625,-1.359375 2.515625,-3.5 0,-2.6875 -1.15625,-3.359375 -2.046875,-3.359375 -0.546875,0 -1.03125,0.1875 -1.453125,0.625 -0.421875,0.453125 -0.640625,0.875 -0.640625,1.625 0,1.234375 0.875,2.21875 1.984375,2.21875 0.609375,0 1.015625,-0.421875 1.25,-1 z M 2.421875,-2.40625 c -0.15625,0 -0.625,0 -0.921875,-0.625 -0.1875,-0.375 -0.1875,-0.859375 -0.1875,-1.359375 0,-0.53125 0,-1 0.21875,-1.375 0.265625,-0.5 0.640625,-0.625 0.984375,-0.625 0.46875,0 0.796875,0.34375 0.96875,0.78125 0.109375,0.328125 0.15625,0.953125 0.15625,1.40625 0,0.828125 -0.34375,1.796875 -1.21875,1.796875 z m 0,0"
               style="stroke:none"
               inkscape:connector-curvature="0" />
          </symbol>
          <symbol
             id="textext-d56c7041-4"
             overflow="visible"
             style="overflow:visible">
            <path
               id="path25254"
               d="m 1.265625,-0.765625 1.0625,-1.03125 c 1.546875,-1.375 2.140625,-1.90625 2.140625,-2.90625 0,-1.140625 -0.890625,-1.9375 -2.109375,-1.9375 -1.125,0 -1.859375,0.921875 -1.859375,1.8125 0,0.546875 0.5,0.546875 0.53125,0.546875 0.171875,0 0.515625,-0.109375 0.515625,-0.53125 0,-0.25 -0.1875,-0.515625 -0.53125,-0.515625 -0.078125,0 -0.09375,0 -0.125,0.015625 0.21875,-0.65625 0.765625,-1.015625 1.34375,-1.015625 0.90625,0 1.328125,0.8125 1.328125,1.625 C 3.5625,-3.90625 3.078125,-3.125 2.515625,-2.5 l -1.90625,2.125 C 0.5,-0.265625 0.5,-0.234375 0.5,0 l 3.703125,0 0.265625,-1.734375 -0.234375,0 C 4.171875,-1.4375 4.109375,-1 4,-0.84375 3.9375,-0.765625 3.28125,-0.765625 3.0625,-0.765625 z m 0,0"
               style="stroke:none"
               inkscape:connector-curvature="0" />
          </symbol>
        </g>
      </defs>
      <g
         id="textext-d56c7041-5">
        <g
           id="g25257"
           style="fill:#000000;fill-opacity:1">
          <use
             id="use25259"
             y="134.765"
             x="223.43201"
             xlink:href="#textext-d56c7041-0"
             width="372.04724"
             height="262.20471" />
          <use
             id="use25261"
             y="134.765"
             x="230.62698"
             xlink:href="#textext-d56c7041-1"
             width="372.04724"
             height="262.20471" />
          <use
             id="use25263"
             y="134.765"
             x="238.3759"
             xlink:href="#textext-d56c7041-2"
             width="372.04724"
             height="262.20471" />
          <use
             id="use25265"
             y="134.765"
             x="241.69644"
             xlink:href="#textext-d56c7041-3"
             width="372.04724"
             height="262.20471" />
          <use
             id="use25267"
             y="134.765"
             x="246.67773"
             xlink:href="#textext-d56c7041-4"
             width="372.04724"
             height="262.20471" />
        </g>
      </g>
    </g>
    <g
       transform="matrix(1.4620253,0,0,1.4620253,239.86753,-698.77389)"
       id="g3201"
       inkscape:export-filename="/home/waldgeist/data/pics/physik/Own/elektronik/bauform-transistor-npn.png"
       inkscape:export-xdpi="150"
       inkscape:export-ydpi="150">
      <path
         inkscape:connector-curvature="0"
         id="path24872-9"
         d="m 194.11682,919.53273 a 2.3154387,2.4255756 0 0 0 -2.27904,2.45566 l 0,94.45921 a 2.3154387,2.4255756 0 1 0 4.63042,0 l 0,-94.45921 a 2.3154387,2.4255756 0 0 0 -2.35138,-2.45566 z"
         style="font-size:medium;font-style:normal;font-variant:normal;font-weight:normal;font-stretch:normal;text-indent:0;text-align:start;text-decoration:none;line-height:normal;letter-spacing:normal;word-spacing:normal;text-transform:none;direction:ltr;block-progression:tb;writing-mode:lr-tb;text-anchor:start;baseline-shift:baseline;color:#000000;fill:#e6e6e6;fill-opacity:1;stroke:#000000;stroke-width:0.54315948;marker:none;visibility:visible;display:inline;overflow:visible;enable-background:accumulate;font-family:Sans;-inkscape-font-specification:Sans" />
      <path
         style="font-size:medium;font-style:normal;font-variant:normal;font-weight:normal;font-stretch:normal;text-indent:0;text-align:start;text-decoration:none;line-height:normal;letter-spacing:normal;word-spacing:normal;text-transform:none;direction:ltr;block-progression:tb;writing-mode:lr-tb;text-anchor:start;baseline-shift:baseline;color:#000000;fill:#e6e6e6;fill-opacity:1;stroke:#000000;stroke-width:0.54315948;marker:none;visibility:visible;display:inline;overflow:visible;enable-background:accumulate;font-family:Sans;-inkscape-font-specification:Sans"
         d="m 182.73821,912.96345 a 2.3154387,2.4255756 0 0 0 -2.27904,2.45566 l 0,94.45919 a 2.3154387,2.4255756 0 1 0 4.63043,0 l 0,-94.45919 a 2.3154387,2.4255756 0 0 0 -2.35139,-2.45566 z"
         id="path3187"
         inkscape:connector-curvature="0" />
      <path
         inkscape:connector-curvature="0"
         id="path3189"
         d="m 171.35961,906.39385 a 2.3154387,2.4255756 0 0 0 -2.27904,2.45566 l 0,94.45919 a 2.3154387,2.4255756 0 1 0 4.63042,0 l 0,-94.45919 a 2.3154387,2.4255756 0 0 0 -2.35138,-2.45566 z"
         style="font-size:medium;font-style:normal;font-variant:normal;font-weight:normal;font-stretch:normal;text-indent:0;text-align:start;text-decoration:none;line-height:normal;letter-spacing:normal;word-spacing:normal;text-transform:none;direction:ltr;block-progression:tb;writing-mode:lr-tb;text-anchor:start;baseline-shift:baseline;color:#000000;fill:#e6e6e6;fill-opacity:1;stroke:#000000;stroke-width:0.54315948;marker:none;visibility:visible;display:inline;overflow:visible;enable-background:accumulate;font-family:Sans;-inkscape-font-specification:Sans" />
      <path
         style="fill:#000000;stroke:#000000;stroke-width:0.68398267px;stroke-linecap:round;stroke-linejoin:round;stroke-opacity:1"
         d="m 160.15535,139.05249 0,-43.30561 28.17969,16.39324 0,43.20364 z"
         id="path26231"
         inkscape:connector-curvature="0"
         transform="translate(0,790.15746)" />
      <path
         inkscape:connector-curvature="0"
         id="path26135"
         d="m 160.15535,929.20995 28.17968,16.29126"
         style="fill:none;stroke:#808080;stroke-width:0.68398267;stroke-linecap:round;stroke-linejoin:miter;stroke-opacity:1" />
      <path
         style="fill:#000000;stroke:#000000;stroke-width:0.68398267px;stroke-linecap:round;stroke-linejoin:round;stroke-opacity:1"
         d="m 188.53115,112.12465 c 5.24419,-0.40494 22.09769,-4.11147 22.09769,-13.51564 l 0,43.20515 c -1.20979,9.52373 -14.16643,12.72543 -22.2938,13.5296 z"
         id="path26233"
         inkscape:connector-curvature="0"
         transform="translate(0,790.15746)"
         sodipodi:nodetypes="ccccc" />
      <path
         inkscape:connector-curvature="0"
         id="path26137"
         d="m 188.33504,945.50122 0,-43.20364"
         style="fill:none;stroke:#808080;stroke-width:0.68398267;stroke-linecap:round;stroke-linejoin:miter;stroke-opacity:1" />
      <path
         style="fill:none;stroke:#808080;stroke-width:0.68398267;stroke-linecap:round;stroke-linejoin:miter;stroke-opacity:1"
         d="m 160.15535,929.20995 0,-43.56835"
         id="path26139"
         inkscape:connector-curvature="0" />
      <path
         inkscape:connector-curvature="0"
         id="path26141"
         d="m 210.62884,931.97162 0,-43.20515"
         style="fill:none;stroke:#808080;stroke-width:0.68398267;stroke-linecap:round;stroke-linejoin:miter;stroke-opacity:1" />
      <path
         sodipodi:type="arc"
         style="color:#000000;fill:#000000;stroke:#808080;stroke-width:0.56483293;stroke-linecap:round;stroke-linejoin:round;stroke-miterlimit:4;stroke-opacity:1;stroke-dasharray:none;stroke-dashoffset:0;marker:none;visibility:visible;display:inline;overflow:visible;enable-background:accumulate"
         id="path26227"
         sodipodi:cx="178.54555"
         sodipodi:cy="98.724434"
         sodipodi:rx="21.125896"
         sodipodi:ry="11.263485"
         d="m 157.98129,96.144536 c 2.67244,-6.055274 14.04581,-9.808983 25.40314,-8.384144 11.35732,1.424838 18.39782,7.488667 15.72538,13.543938 -2.00153,4.53511 -9.03345,7.94517 -17.69065,8.5789"
         transform="matrix(1.2106813,0,0,1.2112126,-31.109643,769.19016)"
         sodipodi:start="3.372694"
         sodipodi:end="7.7175352"
         sodipodi:open="true" />
      <path
         style="fill:none;stroke:#808080;stroke-width:0.68398267;stroke-linecap:round;stroke-linejoin:miter;stroke-opacity:1"
         d="m 160.15535,885.90434 28.17969,16.26955"
         id="path26151"
         inkscape:connector-curvature="0" />
      <path
         transform="matrix(1.2106813,0,0,1.2112126,-31.10964,812.39532)"
         d="m 199.67144,98.724434 c 0,5.661746 -7.88287,10.443596 -18.41426,11.170316"
         sodipodi:ry="11.263485"
         sodipodi:rx="21.125896"
         sodipodi:cy="98.724434"
         sodipodi:cx="178.54555"
         id="path26229"
         style="color:#000000;fill:none;stroke:#808080;stroke-width:0.56483293;stroke-linecap:round;stroke-linejoin:round;stroke-miterlimit:4;stroke-opacity:1;stroke-dasharray:none;stroke-dashoffset:0;marker:none;visibility:visible;display:inline;overflow:visible;enable-background:accumulate"
         sodipodi:type="arc"
         sodipodi:start="0"
         sodipodi:end="1.4420853"
         sodipodi:open="true" />
    </g>
    <g
       ns0:text="$B$"
       ns0:preamble="/home/waldgeist/data/sphinx/inkscape-preamble.tex"
       transform="matrix(2.3042041,0,0,2.3042041,-28.527333,489.58274)"
       id="g6581"
       inkscape:export-filename="/home/waldgeist/data/pics/physik/Own/elektronik/bauform-transistor-npn.png"
       inkscape:export-xdpi="150"
       inkscape:export-ydpi="150">
      <defs
         id="defs6583">
        <g
           id="g6585">
          <symbol
             style="overflow:visible"
             overflow="visible"
             id="symbol6587">
            <path
               inkscape:connector-curvature="0"
               style="stroke:none"
               d="M 1.59375,-0.78125 C 1.5,-0.390625 1.46875,-0.3125 0.6875,-0.3125 c -0.171875,0 -0.265625,0 -0.265625,0.203125 C 0.421875,0 0.515625,0 0.6875,0 L 4.25,0 C 5.828125,0 7,-1.171875 7,-2.15625 7,-2.875 6.421875,-3.453125 5.453125,-3.5625 6.484375,-3.75 7.53125,-4.484375 7.53125,-5.4375 c 0,-0.734375 -0.65625,-1.375 -1.84375,-1.375 l -3.359375,0 c -0.1875,0 -0.28125,0 -0.28125,0.203125 0,0.109375 0.09375,0.109375 0.28125,0.109375 0.015625,0 0.203125,0 0.375,0.015625 0.171875,0.03125 0.265625,0.03125 0.265625,0.171875 0,0.03125 -0.015625,0.0625 -0.03125,0.1875 z m 1.5,-2.875 0.625,-2.46875 C 3.8125,-6.46875 3.828125,-6.5 4.25,-6.5 l 1.296875,0 c 0.875,0 1.078125,0.59375 1.078125,1.03125 0,0.875 -0.859375,1.8125 -2.0625,1.8125 z m -0.4375,3.34375 c -0.140625,0 -0.15625,0 -0.21875,0 -0.109375,-0.015625 -0.140625,-0.03125 -0.140625,-0.109375 0,-0.03125 0,-0.046875 0.0625,-0.21875 l 0.6875,-2.78125 1.875,0 c 0.953125,0 1.15625,0.734375 1.15625,1.15625 C 6.078125,-1.28125 5.1875,-0.3125 4,-0.3125 z m 0,0"
               id="path6589" />
          </symbol>
        </g>
      </defs>
      <g
         id="g6591">
        <g
           style="fill:#000000;fill-opacity:1"
           id="g6593">
          <g
             transform="translate(223.43201,134.765)"
             id="g6595">
            <path
               id="path6597"
               d="M 1.59375,-0.78125 C 1.5,-0.390625 1.46875,-0.3125 0.6875,-0.3125 c -0.171875,0 -0.265625,0 -0.265625,0.203125 C 0.421875,0 0.515625,0 0.6875,0 L 4.25,0 C 5.828125,0 7,-1.171875 7,-2.15625 7,-2.875 6.421875,-3.453125 5.453125,-3.5625 6.484375,-3.75 7.53125,-4.484375 7.53125,-5.4375 c 0,-0.734375 -0.65625,-1.375 -1.84375,-1.375 l -3.359375,0 c -0.1875,0 -0.28125,0 -0.28125,0.203125 0,0.109375 0.09375,0.109375 0.28125,0.109375 0.015625,0 0.203125,0 0.375,0.015625 0.171875,0.03125 0.265625,0.03125 0.265625,0.171875 0,0.03125 -0.015625,0.0625 -0.03125,0.1875 z m 1.5,-2.875 0.625,-2.46875 C 3.8125,-6.46875 3.828125,-6.5 4.25,-6.5 l 1.296875,0 c 0.875,0 1.078125,0.59375 1.078125,1.03125 0,0.875 -0.859375,1.8125 -2.0625,1.8125 z m -0.4375,3.34375 c -0.140625,0 -0.15625,0 -0.21875,0 -0.109375,-0.015625 -0.140625,-0.03125 -0.140625,-0.109375 0,-0.03125 0,-0.046875 0.0625,-0.21875 l 0.6875,-2.78125 1.875,0 c 0.953125,0 1.15625,0.734375 1.15625,1.15625 C 6.078125,-1.28125 5.1875,-0.3125 4,-0.3125 z m 0,0"
               style="stroke:none"
               inkscape:connector-curvature="0" />
          </g>
        </g>
      </g>
    </g>
    <g
       id="g6599"
       transform="matrix(2.3042041,0,0,2.3042041,-46.802415,478.51576)"
       ns0:preamble="/home/waldgeist/data/sphinx/inkscape-preamble.tex"
       ns0:text="$C$"
       inkscape:export-filename="/home/waldgeist/data/pics/physik/Own/elektronik/bauform-transistor-npn.png"
       inkscape:export-xdpi="150"
       inkscape:export-ydpi="150">
      <defs
         id="defs6601">
        <g
           id="g6603">
          <symbol
             style="overflow:visible"
             id="symbol6605"
             overflow="visible">
            <path
               inkscape:connector-curvature="0"
               id="path6607"
               d="m 7.578125,-6.921875 c 0,-0.03125 -0.015625,-0.109375 -0.109375,-0.109375 -0.03125,0 -0.046875,0.015625 -0.15625,0.125 L 6.625,-6.140625 C 6.53125,-6.28125 6.078125,-7.03125 4.96875,-7.03125 2.734375,-7.03125 0.5,-4.828125 0.5,-2.515625 0.5,-0.875 1.671875,0.21875 3.203125,0.21875 c 0.859375,0 1.625,-0.390625 2.15625,-0.859375 0.921875,-0.8125 1.09375,-1.71875 1.09375,-1.75 C 6.453125,-2.5 6.34375,-2.5 6.328125,-2.5 c -0.0625,0 -0.109375,0.03125 -0.125,0.109375 -0.09375,0.28125 -0.328125,1 -1.015625,1.578125 -0.6875,0.546875 -1.3125,0.71875 -1.828125,0.71875 -0.890625,0 -1.953125,-0.515625 -1.953125,-2.0625 0,-0.578125 0.203125,-2.1875 1.203125,-3.359375 0.609375,-0.703125 1.546875,-1.203125 2.4375,-1.203125 1.015625,0 1.609375,0.765625 1.609375,1.921875 0,0.40625 -0.03125,0.40625 -0.03125,0.515625 0,0.09375 0.109375,0.09375 0.140625,0.09375 0.125,0 0.125,-0.015625 0.1875,-0.203125 z m 0,0"
               style="stroke:none" />
          </symbol>
        </g>
      </defs>
      <g
         id="g6609">
        <g
           id="g6611"
           style="fill:#000000;fill-opacity:1">
          <g
             transform="translate(223.43201,134.765)"
             id="g6613">
            <path
               style="stroke:none"
               d="m 7.578125,-6.921875 c 0,-0.03125 -0.015625,-0.109375 -0.109375,-0.109375 -0.03125,0 -0.046875,0.015625 -0.15625,0.125 L 6.625,-6.140625 C 6.53125,-6.28125 6.078125,-7.03125 4.96875,-7.03125 2.734375,-7.03125 0.5,-4.828125 0.5,-2.515625 0.5,-0.875 1.671875,0.21875 3.203125,0.21875 c 0.859375,0 1.625,-0.390625 2.15625,-0.859375 0.921875,-0.8125 1.09375,-1.71875 1.09375,-1.75 C 6.453125,-2.5 6.34375,-2.5 6.328125,-2.5 c -0.0625,0 -0.109375,0.03125 -0.125,0.109375 -0.09375,0.28125 -0.328125,1 -1.015625,1.578125 -0.6875,0.546875 -1.3125,0.71875 -1.828125,0.71875 -0.890625,0 -1.953125,-0.515625 -1.953125,-2.0625 0,-0.578125 0.203125,-2.1875 1.203125,-3.359375 0.609375,-0.703125 1.546875,-1.203125 2.4375,-1.203125 1.015625,0 1.609375,0.765625 1.609375,1.921875 0,0.40625 -0.03125,0.40625 -0.03125,0.515625 0,0.09375 0.109375,0.09375 0.140625,0.09375 0.125,0 0.125,-0.015625 0.1875,-0.203125 z m 0,0"
               id="path6615"
               inkscape:connector-curvature="0" />
          </g>
        </g>
      </g>
    </g>
    <g
       ns0:text="$E$"
       ns0:preamble="/home/waldgeist/data/sphinx/inkscape-preamble.tex"
       transform="matrix(2.3042041,0,0,2.3042041,-13.176301,498.24615)"
       id="g6617"
       inkscape:export-filename="/home/waldgeist/data/pics/physik/Own/elektronik/bauform-transistor-npn.png"
       inkscape:export-xdpi="150"
       inkscape:export-ydpi="150">
      <defs
         id="defs6619">
        <g
           id="g6621">
          <symbol
             style="overflow:visible"
             overflow="visible"
             id="symbol6623">
            <path
               inkscape:connector-curvature="0"
               style="stroke:none"
               d="M 7.0625,-2.328125 C 7.078125,-2.375 7.109375,-2.4375 7.109375,-2.46875 c 0,0 0,-0.109375 -0.125,-0.109375 -0.09375,0 -0.109375,0.0625 -0.125,0.125 -0.65625,1.46875 -1.015625,2.140625 -2.71875,2.140625 l -1.453125,0 c -0.140625,0 -0.171875,0 -0.21875,0 -0.109375,-0.015625 -0.140625,-0.03125 -0.140625,-0.109375 0,-0.03125 0,-0.046875 0.046875,-0.21875 L 3.0625,-3.375 l 0.984375,0 c 0.84375,0 0.84375,0.21875 0.84375,0.46875 0,0.0625 0,0.1875 -0.0625,0.484375 C 4.8125,-2.375 4.796875,-2.34375 4.796875,-2.3125 c 0,0.046875 0.03125,0.109375 0.125,0.109375 C 5,-2.203125 5.03125,-2.25 5.078125,-2.40625 l 0.5625,-2.328125 c 0,-0.0625 -0.046875,-0.109375 -0.125,-0.109375 -0.078125,0 -0.109375,0.0625 -0.125,0.171875 -0.21875,0.765625 -0.390625,1 -1.3125,1 l -0.9375,0 0.59375,-2.40625 C 3.828125,-6.4375 3.84375,-6.46875 4.28125,-6.46875 l 1.40625,0 c 1.203125,0 1.515625,0.28125 1.515625,1.109375 0,0.234375 0,0.25 -0.046875,0.53125 0,0.046875 -0.015625,0.125 -0.015625,0.171875 0,0.046875 0.03125,0.125 0.125,0.125 0.109375,0 0.125,-0.0625 0.140625,-0.25 L 7.609375,-6.515625 C 7.640625,-6.78125 7.59375,-6.78125 7.34375,-6.78125 l -5.046875,0 c -0.1875,0 -0.296875,0 -0.296875,0.203125 0,0.109375 0.09375,0.109375 0.28125,0.109375 0.375,0 0.65625,0 0.65625,0.171875 0,0.046875 0,0.0625 -0.0625,0.25 L 1.5625,-0.78125 c -0.09375,0.390625 -0.109375,0.46875 -0.90625,0.46875 -0.171875,0 -0.28125,0 -0.28125,0.1875 C 0.375,0 0.46875,0 0.65625,0 l 5.171875,0 c 0.234375,0 0.25,-0.015625 0.3125,-0.171875 z m 0,0"
               id="path6625" />
          </symbol>
        </g>
      </defs>
      <g
         id="g6627">
        <g
           style="fill:#000000;fill-opacity:1"
           id="g6629">
          <g
             transform="translate(224.70101,135.55813)"
             id="g6631">
            <path
               id="path6633"
               d="M 7.0625,-2.328125 C 7.078125,-2.375 7.109375,-2.4375 7.109375,-2.46875 c 0,0 0,-0.109375 -0.125,-0.109375 -0.09375,0 -0.109375,0.0625 -0.125,0.125 -0.65625,1.46875 -1.015625,2.140625 -2.71875,2.140625 l -1.453125,0 c -0.140625,0 -0.171875,0 -0.21875,0 -0.109375,-0.015625 -0.140625,-0.03125 -0.140625,-0.109375 0,-0.03125 0,-0.046875 0.046875,-0.21875 L 3.0625,-3.375 l 0.984375,0 c 0.84375,0 0.84375,0.21875 0.84375,0.46875 0,0.0625 0,0.1875 -0.0625,0.484375 C 4.8125,-2.375 4.796875,-2.34375 4.796875,-2.3125 c 0,0.046875 0.03125,0.109375 0.125,0.109375 C 5,-2.203125 5.03125,-2.25 5.078125,-2.40625 l 0.5625,-2.328125 c 0,-0.0625 -0.046875,-0.109375 -0.125,-0.109375 -0.078125,0 -0.109375,0.0625 -0.125,0.171875 -0.21875,0.765625 -0.390625,1 -1.3125,1 l -0.9375,0 0.59375,-2.40625 C 3.828125,-6.4375 3.84375,-6.46875 4.28125,-6.46875 l 1.40625,0 c 1.203125,0 1.515625,0.28125 1.515625,1.109375 0,0.234375 0,0.25 -0.046875,0.53125 0,0.046875 -0.015625,0.125 -0.015625,0.171875 0,0.046875 0.03125,0.125 0.125,0.125 0.109375,0 0.125,-0.0625 0.140625,-0.25 L 7.609375,-6.515625 C 7.640625,-6.78125 7.59375,-6.78125 7.34375,-6.78125 l -5.046875,0 c -0.1875,0 -0.296875,0 -0.296875,0.203125 0,0.109375 0.09375,0.109375 0.28125,0.109375 0.375,0 0.65625,0 0.65625,0.171875 0,0.046875 0,0.0625 -0.0625,0.25 L 1.5625,-0.78125 c -0.09375,0.390625 -0.109375,0.46875 -0.90625,0.46875 -0.171875,0 -0.28125,0 -0.28125,0.1875 C 0.375,0 0.46875,0 0.65625,0 l 5.171875,0 c 0.234375,0 0.25,-0.015625 0.3125,-0.171875 z m 0,0"
               style="stroke:none"
               inkscape:connector-curvature="0" />
          </g>
        </g>
      </g>
    </g>
    <path
       sodipodi:type="arc"
       style="color:#000000;fill:#000000;fill-opacity:1;fill-rule:nonzero;stroke:#808080;stroke-width:0.52840114;stroke-linecap:round;stroke-linejoin:round;stroke-miterlimit:4;stroke-opacity:1;stroke-dasharray:none;stroke-dashoffset:0;marker:none;visibility:visible;display:inline;overflow:visible;enable-background:accumulate"
       id="path4226"
       sodipodi:cx="68.25"
       sodipodi:cy="127.20471"
       sodipodi:rx="14.75"
       sodipodi:ry="29.5"
       d="m 62.398174,100.12567 a 14.75,29.5 0 1 1 -0.07688,54.09111"
       transform="matrix(2.6159978,0,0,1.3691,152.9831,508.99481)"
       sodipodi:start="4.3044329"
       sodipodi:end="8.2676228"
       sodipodi:open="true"
       inkscape:export-filename="/home/waldgeist/data/pics/physik/Own/elektronik/bauform-transistor-npn.png"
       inkscape:export-xdpi="150"
       inkscape:export-ydpi="150" />
    <path
       style="fill:#808080;stroke:#808080;stroke-width:0.99999994px;stroke-linecap:round;stroke-linejoin:miter;stroke-opacity:1"
       d="m 316.01547,720.133 0,-74.03721"
       id="path4228"
       inkscape:connector-curvature="0"
       inkscape:export-filename="/home/waldgeist/data/pics/physik/Own/elektronik/bauform-transistor-npn.png"
       inkscape:export-xdpi="150"
       inkscape:export-ydpi="150" />
    <g
       id="g5180"
       transform="matrix(1.4620253,0,0,1.4620253,228.18054,-663.25793)"
       inkscape:export-filename="/home/waldgeist/data/pics/physik/Own/elektronik/bauform-transistor-npn.png"
       inkscape:export-xdpi="150"
       inkscape:export-ydpi="150">
      <path
         transform="matrix(1.7692308,0,0,1.7692308,-50.694113,702.18334)"
         d="m 70.268731,114.02165 c 0,0.95191 -0.77167,1.72357 -1.723573,1.72357 -0.951903,0 -1.723572,-0.77166 -1.723572,-1.72357 0,-0.9519 0.771669,-1.72357 1.723572,-1.72357 0.951903,0 1.723573,0.77167 1.723573,1.72357 z"
         sodipodi:ry="1.7235727"
         sodipodi:rx="1.7235727"
         sodipodi:cy="114.02165"
         sodipodi:cx="68.545158"
         id="path5172"
         style="color:#000000;fill:#e6e6e6;fill-opacity:1;fill-rule:nonzero;stroke:#808080;stroke-width:0.38659889;stroke-linecap:round;stroke-linejoin:round;stroke-miterlimit:4;stroke-opacity:1;stroke-dasharray:none;stroke-dashoffset:0;marker:none;visibility:visible;display:inline;overflow:visible;enable-background:accumulate"
         sodipodi:type="arc" />
      <path
         sodipodi:type="arc"
         style="color:#000000;fill:#e6e6e6;fill-opacity:1;fill-rule:nonzero;stroke:#808080;stroke-width:0.38659889;stroke-linecap:round;stroke-linejoin:round;stroke-miterlimit:4;stroke-opacity:1;stroke-dasharray:none;stroke-dashoffset:0;marker:none;visibility:visible;display:inline;overflow:visible;enable-background:accumulate"
         id="path5174"
         sodipodi:cx="68.545158"
         sodipodi:cy="114.02165"
         sodipodi:rx="1.7235727"
         sodipodi:ry="1.7235727"
         d="m 70.268731,114.02165 c 0,0.95191 -0.77167,1.72357 -1.723573,1.72357 -0.951903,0 -1.723572,-0.77166 -1.723572,-1.72357 0,-0.9519 0.771669,-1.72357 1.723572,-1.72357 0.951903,0 1.723573,0.77167 1.723573,1.72357 z"
         transform="matrix(1.7692308,0,0,1.7692308,-50.694113,719.16474)" />
      <path
         transform="matrix(1.7692308,0,0,1.7692308,-50.694113,736.14616)"
         d="m 70.268731,114.02165 c 0,0.95191 -0.77167,1.72357 -1.723573,1.72357 -0.951903,0 -1.723572,-0.77166 -1.723572,-1.72357 0,-0.9519 0.771669,-1.72357 1.723572,-1.72357 0.951903,0 1.723573,0.77167 1.723573,1.72357 z"
         sodipodi:ry="1.7235727"
         sodipodi:rx="1.7235727"
         sodipodi:cy="114.02165"
         sodipodi:cx="68.545158"
         id="path5178"
         style="color:#000000;fill:#e6e6e6;fill-opacity:1;fill-rule:nonzero;stroke:#808080;stroke-width:0.38659889;stroke-linecap:round;stroke-linejoin:round;stroke-miterlimit:4;stroke-opacity:1;stroke-dasharray:none;stroke-dashoffset:0;marker:none;visibility:visible;display:inline;overflow:visible;enable-background:accumulate"
         sodipodi:type="arc" />
    </g>
    <g
       id="g6637"
       transform="matrix(2.3042041,0,0,2.3042041,-221.56222,380.97707)"
       ns0:preamble="/home/waldgeist/data/sphinx/inkscape-preamble.tex"
       ns0:text="$B$"
       inkscape:export-filename="/home/waldgeist/data/pics/physik/Own/elektronik/bauform-transistor-npn.png"
       inkscape:export-xdpi="150"
       inkscape:export-ydpi="150">
      <defs
         id="defs6639">
        <g
           id="g6641">
          <symbol
             id="symbol6643"
             overflow="visible"
             style="overflow:visible">
            <path
               id="path6645"
               d="M 1.59375,-0.78125 C 1.5,-0.390625 1.46875,-0.3125 0.6875,-0.3125 c -0.171875,0 -0.265625,0 -0.265625,0.203125 C 0.421875,0 0.515625,0 0.6875,0 L 4.25,0 C 5.828125,0 7,-1.171875 7,-2.15625 7,-2.875 6.421875,-3.453125 5.453125,-3.5625 6.484375,-3.75 7.53125,-4.484375 7.53125,-5.4375 c 0,-0.734375 -0.65625,-1.375 -1.84375,-1.375 l -3.359375,0 c -0.1875,0 -0.28125,0 -0.28125,0.203125 0,0.109375 0.09375,0.109375 0.28125,0.109375 0.015625,0 0.203125,0 0.375,0.015625 0.171875,0.03125 0.265625,0.03125 0.265625,0.171875 0,0.03125 -0.015625,0.0625 -0.03125,0.1875 z m 1.5,-2.875 0.625,-2.46875 C 3.8125,-6.46875 3.828125,-6.5 4.25,-6.5 l 1.296875,0 c 0.875,0 1.078125,0.59375 1.078125,1.03125 0,0.875 -0.859375,1.8125 -2.0625,1.8125 z m -0.4375,3.34375 c -0.140625,0 -0.15625,0 -0.21875,0 -0.109375,-0.015625 -0.140625,-0.03125 -0.140625,-0.109375 0,-0.03125 0,-0.046875 0.0625,-0.21875 l 0.6875,-2.78125 1.875,0 c 0.953125,0 1.15625,0.734375 1.15625,1.15625 C 6.078125,-1.28125 5.1875,-0.3125 4,-0.3125 z m 0,0"
               style="stroke:none"
               inkscape:connector-curvature="0" />
          </symbol>
        </g>
      </defs>
      <g
         id="g6647">
        <g
           id="g6649"
           style="fill:#000000;fill-opacity:1">
          <g
             id="g6651"
             transform="translate(223.43201,134.765)">
            <path
               inkscape:connector-curvature="0"
               style="stroke:none"
               d="M 1.59375,-0.78125 C 1.5,-0.390625 1.46875,-0.3125 0.6875,-0.3125 c -0.171875,0 -0.265625,0 -0.265625,0.203125 C 0.421875,0 0.515625,0 0.6875,0 L 4.25,0 C 5.828125,0 7,-1.171875 7,-2.15625 7,-2.875 6.421875,-3.453125 5.453125,-3.5625 6.484375,-3.75 7.53125,-4.484375 7.53125,-5.4375 c 0,-0.734375 -0.65625,-1.375 -1.84375,-1.375 l -3.359375,0 c -0.1875,0 -0.28125,0 -0.28125,0.203125 0,0.109375 0.09375,0.109375 0.28125,0.109375 0.015625,0 0.203125,0 0.375,0.015625 0.171875,0.03125 0.265625,0.03125 0.265625,0.171875 0,0.03125 -0.015625,0.0625 -0.03125,0.1875 z m 1.5,-2.875 0.625,-2.46875 C 3.8125,-6.46875 3.828125,-6.5 4.25,-6.5 l 1.296875,0 c 0.875,0 1.078125,0.59375 1.078125,1.03125 0,0.875 -0.859375,1.8125 -2.0625,1.8125 z m -0.4375,3.34375 c -0.140625,0 -0.15625,0 -0.21875,0 -0.109375,-0.015625 -0.140625,-0.03125 -0.140625,-0.109375 0,-0.03125 0,-0.046875 0.0625,-0.21875 l 0.6875,-2.78125 1.875,0 c 0.953125,0 1.15625,0.734375 1.15625,1.15625 C 6.078125,-1.28125 5.1875,-0.3125 4,-0.3125 z m 0,0"
               id="path6653" />
          </g>
        </g>
      </g>
    </g>
    <g
       ns0:text="$C$"
       ns0:preamble="/home/waldgeist/data/sphinx/inkscape-preamble.tex"
       transform="matrix(2.3042041,0,0,2.3042041,-221.67023,354.59681)"
       id="g6655"
       inkscape:export-filename="/home/waldgeist/data/pics/physik/Own/elektronik/bauform-transistor-npn.png"
       inkscape:export-xdpi="150"
       inkscape:export-ydpi="150">
      <defs
         id="defs6657">
        <g
           id="g6659">
          <symbol
             overflow="visible"
             id="symbol6661"
             style="overflow:visible">
            <path
               style="stroke:none"
               d="m 7.578125,-6.921875 c 0,-0.03125 -0.015625,-0.109375 -0.109375,-0.109375 -0.03125,0 -0.046875,0.015625 -0.15625,0.125 L 6.625,-6.140625 C 6.53125,-6.28125 6.078125,-7.03125 4.96875,-7.03125 2.734375,-7.03125 0.5,-4.828125 0.5,-2.515625 0.5,-0.875 1.671875,0.21875 3.203125,0.21875 c 0.859375,0 1.625,-0.390625 2.15625,-0.859375 0.921875,-0.8125 1.09375,-1.71875 1.09375,-1.75 C 6.453125,-2.5 6.34375,-2.5 6.328125,-2.5 c -0.0625,0 -0.109375,0.03125 -0.125,0.109375 -0.09375,0.28125 -0.328125,1 -1.015625,1.578125 -0.6875,0.546875 -1.3125,0.71875 -1.828125,0.71875 -0.890625,0 -1.953125,-0.515625 -1.953125,-2.0625 0,-0.578125 0.203125,-2.1875 1.203125,-3.359375 0.609375,-0.703125 1.546875,-1.203125 2.4375,-1.203125 1.015625,0 1.609375,0.765625 1.609375,1.921875 0,0.40625 -0.03125,0.40625 -0.03125,0.515625 0,0.09375 0.109375,0.09375 0.140625,0.09375 0.125,0 0.125,-0.015625 0.1875,-0.203125 z m 0,0"
               id="path6663"
               inkscape:connector-curvature="0" />
          </symbol>
        </g>
      </defs>
      <g
         id="g6665">
        <g
           style="fill:#000000;fill-opacity:1"
           id="g6667">
          <g
             id="g6669"
             transform="translate(223.43201,134.765)">
            <path
               inkscape:connector-curvature="0"
               id="path6671"
               d="m 7.578125,-6.921875 c 0,-0.03125 -0.015625,-0.109375 -0.109375,-0.109375 -0.03125,0 -0.046875,0.015625 -0.15625,0.125 L 6.625,-6.140625 C 6.53125,-6.28125 6.078125,-7.03125 4.96875,-7.03125 2.734375,-7.03125 0.5,-4.828125 0.5,-2.515625 0.5,-0.875 1.671875,0.21875 3.203125,0.21875 c 0.859375,0 1.625,-0.390625 2.15625,-0.859375 0.921875,-0.8125 1.09375,-1.71875 1.09375,-1.75 C 6.453125,-2.5 6.34375,-2.5 6.328125,-2.5 c -0.0625,0 -0.109375,0.03125 -0.125,0.109375 -0.09375,0.28125 -0.328125,1 -1.015625,1.578125 -0.6875,0.546875 -1.3125,0.71875 -1.828125,0.71875 -0.890625,0 -1.953125,-0.515625 -1.953125,-2.0625 0,-0.578125 0.203125,-2.1875 1.203125,-3.359375 0.609375,-0.703125 1.546875,-1.203125 2.4375,-1.203125 1.015625,0 1.609375,0.765625 1.609375,1.921875 0,0.40625 -0.03125,0.40625 -0.03125,0.515625 0,0.09375 0.109375,0.09375 0.140625,0.09375 0.125,0 0.125,-0.015625 0.1875,-0.203125 z m 0,0"
               style="stroke:none" />
          </g>
        </g>
      </g>
    </g>
    <g
       id="g6673"
       transform="matrix(2.3042041,0,0,2.3042041,-224.686,404.95374)"
       ns0:preamble="/home/waldgeist/data/sphinx/inkscape-preamble.tex"
       ns0:text="$E$"
       inkscape:export-filename="/home/waldgeist/data/pics/physik/Own/elektronik/bauform-transistor-npn.png"
       inkscape:export-xdpi="150"
       inkscape:export-ydpi="150">
      <defs
         id="defs6675">
        <g
           id="g6677">
          <symbol
             id="symbol6679"
             overflow="visible"
             style="overflow:visible">
            <path
               id="path6681"
               d="M 7.0625,-2.328125 C 7.078125,-2.375 7.109375,-2.4375 7.109375,-2.46875 c 0,0 0,-0.109375 -0.125,-0.109375 -0.09375,0 -0.109375,0.0625 -0.125,0.125 -0.65625,1.46875 -1.015625,2.140625 -2.71875,2.140625 l -1.453125,0 c -0.140625,0 -0.171875,0 -0.21875,0 -0.109375,-0.015625 -0.140625,-0.03125 -0.140625,-0.109375 0,-0.03125 0,-0.046875 0.046875,-0.21875 L 3.0625,-3.375 l 0.984375,0 c 0.84375,0 0.84375,0.21875 0.84375,0.46875 0,0.0625 0,0.1875 -0.0625,0.484375 C 4.8125,-2.375 4.796875,-2.34375 4.796875,-2.3125 c 0,0.046875 0.03125,0.109375 0.125,0.109375 C 5,-2.203125 5.03125,-2.25 5.078125,-2.40625 l 0.5625,-2.328125 c 0,-0.0625 -0.046875,-0.109375 -0.125,-0.109375 -0.078125,0 -0.109375,0.0625 -0.125,0.171875 -0.21875,0.765625 -0.390625,1 -1.3125,1 l -0.9375,0 0.59375,-2.40625 C 3.828125,-6.4375 3.84375,-6.46875 4.28125,-6.46875 l 1.40625,0 c 1.203125,0 1.515625,0.28125 1.515625,1.109375 0,0.234375 0,0.25 -0.046875,0.53125 0,0.046875 -0.015625,0.125 -0.015625,0.171875 0,0.046875 0.03125,0.125 0.125,0.125 0.109375,0 0.125,-0.0625 0.140625,-0.25 L 7.609375,-6.515625 C 7.640625,-6.78125 7.59375,-6.78125 7.34375,-6.78125 l -5.046875,0 c -0.1875,0 -0.296875,0 -0.296875,0.203125 0,0.109375 0.09375,0.109375 0.28125,0.109375 0.375,0 0.65625,0 0.65625,0.171875 0,0.046875 0,0.0625 -0.0625,0.25 L 1.5625,-0.78125 c -0.09375,0.390625 -0.109375,0.46875 -0.90625,0.46875 -0.171875,0 -0.28125,0 -0.28125,0.1875 C 0.375,0 0.46875,0 0.65625,0 l 5.171875,0 c 0.234375,0 0.25,-0.015625 0.3125,-0.171875 z m 0,0"
               style="stroke:none"
               inkscape:connector-curvature="0" />
          </symbol>
        </g>
      </defs>
      <g
         id="g6683">
        <g
           id="g6685"
           style="fill:#000000;fill-opacity:1">
          <g
             id="g6687"
             transform="translate(224.70101,135.55813)">
            <path
               inkscape:connector-curvature="0"
               style="stroke:none"
               d="M 7.0625,-2.328125 C 7.078125,-2.375 7.109375,-2.4375 7.109375,-2.46875 c 0,0 0,-0.109375 -0.125,-0.109375 -0.09375,0 -0.109375,0.0625 -0.125,0.125 -0.65625,1.46875 -1.015625,2.140625 -2.71875,2.140625 l -1.453125,0 c -0.140625,0 -0.171875,0 -0.21875,0 -0.109375,-0.015625 -0.140625,-0.03125 -0.140625,-0.109375 0,-0.03125 0,-0.046875 0.046875,-0.21875 L 3.0625,-3.375 l 0.984375,0 c 0.84375,0 0.84375,0.21875 0.84375,0.46875 0,0.0625 0,0.1875 -0.0625,0.484375 C 4.8125,-2.375 4.796875,-2.34375 4.796875,-2.3125 c 0,0.046875 0.03125,0.109375 0.125,0.109375 C 5,-2.203125 5.03125,-2.25 5.078125,-2.40625 l 0.5625,-2.328125 c 0,-0.0625 -0.046875,-0.109375 -0.125,-0.109375 -0.078125,0 -0.109375,0.0625 -0.125,0.171875 -0.21875,0.765625 -0.390625,1 -1.3125,1 l -0.9375,0 0.59375,-2.40625 C 3.828125,-6.4375 3.84375,-6.46875 4.28125,-6.46875 l 1.40625,0 c 1.203125,0 1.515625,0.28125 1.515625,1.109375 0,0.234375 0,0.25 -0.046875,0.53125 0,0.046875 -0.015625,0.125 -0.015625,0.171875 0,0.046875 0.03125,0.125 0.125,0.125 0.109375,0 0.125,-0.0625 0.140625,-0.25 L 7.609375,-6.515625 C 7.640625,-6.78125 7.59375,-6.78125 7.34375,-6.78125 l -5.046875,0 c -0.1875,0 -0.296875,0 -0.296875,0.203125 0,0.109375 0.09375,0.109375 0.28125,0.109375 0.375,0 0.65625,0 0.65625,0.171875 0,0.046875 0,0.0625 -0.0625,0.25 L 1.5625,-0.78125 c -0.09375,0.390625 -0.109375,0.46875 -0.90625,0.46875 -0.171875,0 -0.28125,0 -0.28125,0.1875 C 0.375,0 0.46875,0 0.65625,0 l 5.171875,0 c 0.234375,0 0.25,-0.015625 0.3125,-0.171875 z m 0,0"
               id="path6689" />
          </g>
        </g>
      </g>
    </g>
  </g>
</svg>
