<?xml version="1.0" encoding="UTF-8" standalone="no"?>
<!-- Created with Inkscape (http://www.inkscape.org/) -->

<svg
   xmlns:ns0="http://www.iki.fi/pav/software/textext/"
   xmlns:dc="http://purl.org/dc/elements/1.1/"
   xmlns:cc="http://creativecommons.org/ns#"
   xmlns:rdf="http://www.w3.org/1999/02/22-rdf-syntax-ns#"
   xmlns:svg="http://www.w3.org/2000/svg"
   xmlns="http://www.w3.org/2000/svg"
   xmlns:xlink="http://www.w3.org/1999/xlink"
   xmlns:sodipodi="http://sodipodi.sourceforge.net/DTD/sodipodi-0.dtd"
   xmlns:inkscape="http://www.inkscape.org/namespaces/inkscape"
   width="372.04724"
   height="262.20471"
   id="svg7549"
   version="1.1"
   inkscape:version="0.48.4 r9939"
   sodipodi:docname="schaltzeichen-spannungsregler.svg"
   inkscape:export-filename="/home/waldgeist/data/homepage/pics/elektronik/bauteile/schaltzeichen-spannungsregler.png"
   inkscape:export-xdpi="150"
   inkscape:export-ydpi="150">
  <sodipodi:namedview
     id="base"
     pagecolor="#ffffff"
     bordercolor="#666666"
     borderopacity="1.0"
     inkscape:pageopacity="0.0"
     inkscape:pageshadow="2"
     inkscape:zoom="1.5120662"
     inkscape:cx="203.05732"
     inkscape:cy="196.05104"
     inkscape:document-units="px"
     inkscape:current-layer="layer1"
     showgrid="false"
     inkscape:window-width="1600"
     inkscape:window-height="1150"
     inkscape:window-x="0"
     inkscape:window-y="0"
     inkscape:window-maximized="1"
     inkscape:object-nodes="true"
     inkscape:snap-smooth-nodes="true"
     inkscape:object-paths="true"
     showguides="true"
     inkscape:guide-bbox="true"
     inkscape:snap-midpoints="true"
     inkscape:snap-global="true">
    <sodipodi:guide
       position="0.0,0"
       orientation="262.2047,0"
       id="guide15399" />
    <sodipodi:guide
       position="184.90703,36.193372"
       orientation="262.2047,0"
       id="guide15401" />
    <sodipodi:guide
       position="372.0472,0"
       orientation="262.2047,0"
       id="guide15403" />
    <sodipodi:guide
       position="0,0.0"
       orientation="0,372.0472"
       id="guide15405" />
    <sodipodi:guide
       position="0,131.1024"
       orientation="0,372.0472"
       id="guide15407" />
    <sodipodi:guide
       position="0,262.2047"
       orientation="0,372.0472"
       id="guide15409" />
    <sodipodi:guide
       orientation="0,1"
       position="-5.9587365,60.745222"
       id="guide19470" />
    <sodipodi:guide
       orientation="0,1"
       position="-17.865414,201.45949"
       id="guide19474" />
    <sodipodi:guide
       orientation="1,0"
       position="74.275355,-70.357137"
       id="guide19522" />
    <sodipodi:guide
       orientation="1,0"
       position="295.53874,-70.357137"
       id="guide19524" />
  </sodipodi:namedview>
  <title
     id="title18922">Schaltzeichen Spannungsregler</title>
  <defs
     id="defs7551" />
  <metadata
     id="metadata7554">
    <rdf:RDF>
      <cc:Work
         rdf:about="">
        <dc:format>image/svg+xml</dc:format>
        <dc:type
           rdf:resource="http://purl.org/dc/dcmitype/StillImage" />
        <dc:title>Schaltzeichen Spannungsregler</dc:title>
        <cc:license
           rdf:resource="http://creativecommons.org/licenses/by-nc-sa/3.0/" />
        <dc:date>2012-06-07</dc:date>
        <dc:creator>
          <cc:Agent>
            <dc:title>Bernhard Grotz</dc:title>
          </cc:Agent>
        </dc:creator>
        <dc:rights>
          <cc:Agent>
            <dc:title>Bernhard Grotz</dc:title>
          </cc:Agent>
        </dc:rights>
        <dc:publisher>
          <cc:Agent>
            <dc:title>Bernhard Grotz</dc:title>
          </cc:Agent>
        </dc:publisher>
        <dc:language>de-DE</dc:language>
        <dc:subject>
          <rdf:Bag>
            <rdf:li>Physik</rdf:li>
            <rdf:li>Elektronik</rdf:li>
            <rdf:li>Schaltzeichen</rdf:li>
            <rdf:li>Spannungsregler</rdf:li>
          </rdf:Bag>
        </dc:subject>
      </cc:Work>
      <cc:License
         rdf:about="http://creativecommons.org/licenses/by-nc-sa/3.0/">
        <cc:permits
           rdf:resource="http://creativecommons.org/ns#Reproduction" />
        <cc:permits
           rdf:resource="http://creativecommons.org/ns#Distribution" />
        <cc:requires
           rdf:resource="http://creativecommons.org/ns#Notice" />
        <cc:requires
           rdf:resource="http://creativecommons.org/ns#Attribution" />
        <cc:prohibits
           rdf:resource="http://creativecommons.org/ns#CommercialUse" />
        <cc:permits
           rdf:resource="http://creativecommons.org/ns#DerivativeWorks" />
        <cc:requires
           rdf:resource="http://creativecommons.org/ns#ShareAlike" />
      </cc:License>
    </rdf:RDF>
  </metadata>
  <g
     transform="translate(0,-790.15746)"
     id="layer1"
     inkscape:groupmode="layer"
     inkscape:label="Ebene 1">
    <g
       id="g15341"
       transform="translate(6.1054688e-6,-1.4150817e-6)">
      <g
         transform="matrix(0.98229117,0,0,0.98229117,51.65774,-326.68584)"
         id="g15343" />
    </g>
    <g
       id="g3189"
       transform="matrix(0.97922994,0,0,1,0.43354032,9.5703081e-7)">
      <path
         style="fill:none;stroke:#000000;stroke-width:3.03164864;stroke-linecap:round;stroke-linejoin:miter;stroke-miterlimit:4;stroke-opacity:1;stroke-dasharray:none"
         d="m 126.42567,921.25982 -51.017627,0"
         id="path33175-8"
         inkscape:connector-curvature="0" />
      <use
         style="stroke:#000000;stroke-width:3.10176611;stroke-linecap:round;stroke-miterlimit:4;stroke-dasharray:none"
         x="0"
         y="0"
         xlink:href="#path33175-8"
         id="use14571"
         transform="matrix(0.95529998,0,0,1,179.4843,0)"
         width="372.04724"
         height="262.20471" />
    </g>
    <g
       transform="matrix(0.78126421,0,0,0.78126421,40.690007,188.70029)"
       id="g3363">
      <g
         id="g33173"
         transform="matrix(0.98229117,0,0,0.98229117,44.251102,-326.68584)">
        <rect
           transform="matrix(0,1,-1,0,0,0)"
           style="fill:none;stroke:#000000;stroke-width:3.9091568;stroke-linecap:round;stroke-miterlimit:4;stroke-dasharray:none;stroke-dashoffset:0"
           id="rect33177"
           width="131.40912"
           height="161.03188"
           x="1221.4342"
           y="-224.84435" />
      </g>
      <path
         inkscape:connector-curvature="0"
         id="path33175-8-8"
         d="m 186.02362,1002.2002 0,25.5144"
         style="fill:none;stroke:#000000;stroke-width:3.83993006;stroke-linecap:round;stroke-linejoin:miter;stroke-miterlimit:4;stroke-opacity:1;stroke-dasharray:none" />
    </g>
    <g
       id="g19532"
       transform="translate(-10.209068,0.94950658)">
      <g
         transform="matrix(1.9283787,0,0,1.9283787,-289.4997,667.0009)"
         ns0:text="IN"
         ns0:preamble="/home/waldgeist/data/sphinx/inkscape-preamble.tex"
         id="g3395">
        <defs
           id="defs3397">
          <g
             id="g3399">
            <symbol
               style="overflow:visible"
               overflow="visible"
               id="textext-74234e95-0">
              <path
                 inkscape:connector-curvature="0"
                 style="stroke:none"
                 d="M 2.25,-6.03125 C 2.25,-6.390625 2.265625,-6.5 3.0625,-6.5 l 0.25,0 0,-0.3125 c -0.34375,0.03125 -1.125,0.03125 -1.515625,0.03125 -0.375,0 -1.171875,0 -1.515625,-0.03125 l 0,0.3125 0.25,0 c 0.796875,0 0.828125,0.109375 0.828125,0.46875 l 0,5.25 c 0,0.359375 -0.03125,0.46875 -0.828125,0.46875 l -0.25,0 0,0.3125 c 0.34375,-0.03125 1.140625,-0.03125 1.515625,-0.03125 0.390625,0 1.171875,0 1.515625,0.03125 l 0,-0.3125 -0.25,0 C 2.265625,-0.3125 2.25,-0.421875 2.25,-0.78125 z m 0,0"
                 id="path3402" />
            </symbol>
            <symbol
               style="overflow:visible"
               overflow="visible"
               id="textext-74234e95-1">
              <path
                 inkscape:connector-curvature="0"
                 style="stroke:none"
                 d="M 2.3125,-6.671875 C 2.21875,-6.796875 2.21875,-6.8125 2.03125,-6.8125 l -1.703125,0 0,0.3125 0.296875,0 c 0.140625,0 0.34375,0.015625 0.484375,0.015625 0.234375,0.03125 0.25,0.046875 0.25,0.234375 l 0,5.203125 c 0,0.265625 0,0.734375 -1.03125,0.734375 l 0,0.3125 C 0.671875,-0.015625 1.171875,-0.03125 1.5,-0.03125 c 0.328125,0 0.8125,0.015625 1.15625,0.03125 l 0,-0.3125 c -1.015625,0 -1.015625,-0.46875 -1.015625,-0.734375 l 0,-5.1875 c 0.046875,0.046875 0.046875,0.0625 0.09375,0.125 L 5.796875,-0.125 C 5.890625,-0.015625 5.90625,0 5.96875,0 6.109375,0 6.109375,-0.0625 6.109375,-0.265625 l 0,-5.5 c 0,-0.265625 0,-0.734375 1.03125,-0.734375 l 0,-0.3125 c -0.359375,0.015625 -0.84375,0.03125 -1.171875,0.03125 -0.328125,0 -0.8125,-0.015625 -1.15625,-0.03125 l 0,0.3125 c 1.015625,0 1.015625,0.46875 1.015625,0.734375 l 0,4.265625 z m 0,0"
                 id="path3405" />
            </symbol>
          </g>
        </defs>
        <g
           id="textext-74234e95-2">
          <g
             style="fill:#000000;fill-opacity:1"
             id="g3408">
            <use
               height="262.20471"
               width="372.04724"
               xlink:href="#textext-74234e95-0"
               x="223.43201"
               y="134.765"
               id="use3410" />
            <use
               height="262.20471"
               width="372.04724"
               xlink:href="#textext-74234e95-1"
               x="227.0295"
               y="134.765"
               id="use3412" />
          </g>
        </g>
      </g>
      <g
         id="g3498"
         transform="matrix(1.9283787,0,0,1.9283787,-222.81914,667.0009)"
         ns0:preamble="/home/waldgeist/data/sphinx/inkscape-preamble.tex"
         ns0:text="OUT">
        <defs
           id="defs3500">
          <g
             id="g3502">
            <symbol
               style="overflow:visible"
               id="textext-354745a9-0"
               overflow="visible">
              <path
                 inkscape:connector-curvature="0"
                 id="path3505"
                 d="m 7.1875,-3.375 c 0,-2.03125 -1.5,-3.65625 -3.3125,-3.65625 -1.796875,0 -3.3125,1.59375 -3.3125,3.65625 0,2.046875 1.53125,3.59375 3.3125,3.59375 1.8125,0 3.3125,-1.578125 3.3125,-3.59375 z M 3.875,-0.046875 c -0.953125,0 -2.296875,-0.875 -2.296875,-3.46875 0,-2.578125 1.46875,-3.265625 2.296875,-3.265625 0.859375,0 2.28125,0.703125 2.28125,3.265625 0,2.640625 -1.359375,3.46875 -2.28125,3.46875 z m 0,0"
                 style="stroke:none" />
            </symbol>
            <symbol
               style="overflow:visible"
               id="textext-354745a9-1"
               overflow="visible">
              <path
                 inkscape:connector-curvature="0"
                 id="path3508"
                 d="m 5.796875,-2.296875 c 0,1.40625 -0.96875,2.203125 -1.90625,2.203125 -0.46875,0 -1.640625,-0.25 -1.640625,-2.140625 l 0,-3.796875 C 2.25,-6.390625 2.265625,-6.5 3.03125,-6.5 l 0.234375,0 0,-0.3125 c -0.34375,0.03125 -1.078125,0.03125 -1.46875,0.03125 -0.375,0 -1.125,0 -1.46875,-0.03125 l 0,0.3125 0.234375,0 c 0.765625,0 0.796875,0.109375 0.796875,0.46875 l 0,3.765625 c 0,1.390625 1.15625,2.484375 2.515625,2.484375 1.140625,0 2.03125,-0.921875 2.203125,-2.0625 0.03125,-0.203125 0.03125,-0.296875 0.03125,-0.6875 l 0,-3.1875 c 0,-0.328125 0,-0.78125 1.03125,-0.78125 l 0,-0.3125 c -0.359375,0.015625 -0.84375,0.03125 -1.171875,0.03125 -0.359375,0 -0.828125,-0.015625 -1.1875,-0.03125 l 0,0.3125 c 1.015625,0 1.015625,0.46875 1.015625,0.734375 z m 0,0"
                 style="stroke:none" />
            </symbol>
            <symbol
               style="overflow:visible"
               id="textext-354745a9-2"
               overflow="visible">
              <path
                 inkscape:connector-curvature="0"
                 id="path3511"
                 d="m 6.640625,-6.75 -6.09375,0 -0.1875,2.25 0.25,0 C 0.75,-6.109375 0.890625,-6.4375 2.40625,-6.4375 c 0.171875,0 0.4375,0 0.53125,0.015625 0.21875,0.046875 0.21875,0.15625 0.21875,0.375 l 0,5.265625 c 0,0.328125 0,0.46875 -1.046875,0.46875 l -0.40625,0 0,0.3125 C 2.109375,-0.03125 3.125,-0.03125 3.59375,-0.03125 c 0.453125,0 1.484375,0 1.890625,0.03125 l 0,-0.3125 -0.40625,0 c -1.046875,0 -1.046875,-0.140625 -1.046875,-0.46875 l 0,-5.265625 c 0,-0.1875 0,-0.328125 0.1875,-0.375 0.109375,-0.015625 0.375,-0.015625 0.5625,-0.015625 1.515625,0 1.65625,0.328125 1.796875,1.9375 l 0.25,0 z m 0,0"
                 style="stroke:none" />
            </symbol>
          </g>
        </defs>
        <g
           id="textext-354745a9-3">
          <g
             id="g3514"
             style="fill:#000000;fill-opacity:1">
            <use
               height="262.20471"
               width="372.04724"
               id="use3516"
               y="134.765"
               x="223.43201"
               xlink:href="#textext-354745a9-0" />
            <use
               height="262.20471"
               width="372.04724"
               id="use3518"
               y="134.765"
               x="231.18091"
               xlink:href="#textext-354745a9-1" />
            <use
               height="262.20471"
               width="372.04724"
               id="use3520"
               y="134.765"
               x="238.65286"
               xlink:href="#textext-354745a9-2" />
          </g>
        </g>
      </g>
    </g>
    <g
       id="g3634"
       transform="matrix(1.9283787,0,0,1.9283787,-266.91686,703.01041)"
       ns0:preamble="/home/waldgeist/data/sphinx/inkscape-preamble.tex"
       ns0:text="GND">
      <defs
         id="defs3636">
        <g
           id="g3638">
          <symbol
             id="textext-ae1b11cf-0"
             overflow="visible"
             style="overflow:visible">
            <path
               id="path3641"
               d="m 5.90625,-0.625 c 0.140625,0.21875 0.53125,0.609375 0.640625,0.609375 0.09375,0 0.09375,-0.078125 0.09375,-0.21875 l 0,-1.734375 c 0,-0.390625 0.03125,-0.4375 0.6875,-0.4375 l 0,-0.3125 c -0.375,0 -0.921875,0.03125 -1.21875,0.03125 -0.390625,0 -1.25,0 -1.609375,-0.03125 l 0,0.3125 0.328125,0 C 5.71875,-2.40625 5.75,-2.296875 5.75,-1.9375 l 0,0.640625 c 0,1.125 -1.265625,1.203125 -1.546875,1.203125 -0.640625,0 -2.625,-0.34375 -2.625,-3.3125 0,-2.984375 1.96875,-3.3125 2.5625,-3.3125 1.078125,0 1.984375,0.890625 2.171875,2.359375 0.03125,0.140625 0.03125,0.171875 0.171875,0.171875 0.15625,0 0.15625,-0.03125 0.15625,-0.234375 l 0,-2.359375 c 0,-0.171875 0,-0.25 -0.109375,-0.25 -0.046875,0 -0.078125,0 -0.15625,0.125 l -0.5,0.734375 C 5.546875,-6.484375 5.015625,-7.03125 4.03125,-7.03125 c -1.859375,0 -3.46875,1.578125 -3.46875,3.625 0,2.046875 1.59375,3.625 3.484375,3.625 0.734375,0 1.53125,-0.265625 1.859375,-0.84375 z m 0,0"
               style="stroke:none"
               inkscape:connector-curvature="0" />
          </symbol>
          <symbol
             id="textext-ae1b11cf-1"
             overflow="visible"
             style="overflow:visible">
            <path
               id="path3644"
               d="M 2.3125,-6.671875 C 2.21875,-6.796875 2.21875,-6.8125 2.03125,-6.8125 l -1.703125,0 0,0.3125 0.296875,0 c 0.140625,0 0.34375,0.015625 0.484375,0.015625 0.234375,0.03125 0.25,0.046875 0.25,0.234375 l 0,5.203125 c 0,0.265625 0,0.734375 -1.03125,0.734375 l 0,0.3125 C 0.671875,-0.015625 1.171875,-0.03125 1.5,-0.03125 c 0.328125,0 0.8125,0.015625 1.15625,0.03125 l 0,-0.3125 c -1.015625,0 -1.015625,-0.46875 -1.015625,-0.734375 l 0,-5.1875 c 0.046875,0.046875 0.046875,0.0625 0.09375,0.125 L 5.796875,-0.125 C 5.890625,-0.015625 5.90625,0 5.96875,0 6.109375,0 6.109375,-0.0625 6.109375,-0.265625 l 0,-5.5 c 0,-0.265625 0,-0.734375 1.03125,-0.734375 l 0,-0.3125 c -0.359375,0.015625 -0.84375,0.03125 -1.171875,0.03125 -0.328125,0 -0.8125,-0.015625 -1.15625,-0.03125 l 0,0.3125 c 1.015625,0 1.015625,0.46875 1.015625,0.734375 l 0,4.265625 z m 0,0"
               style="stroke:none"
               inkscape:connector-curvature="0" />
          </symbol>
          <symbol
             id="textext-ae1b11cf-2"
             overflow="visible"
             style="overflow:visible">
            <path
               id="path3647"
               d="m 0.34375,-6.8125 0,0.3125 0.25,0 c 0.765625,0 0.78125,0.109375 0.78125,0.46875 l 0,5.25 c 0,0.359375 -0.015625,0.46875 -0.78125,0.46875 l -0.25,0 0,0.3125 L 4,0 C 5.671875,0 7.046875,-1.46875 7.046875,-3.34375 7.046875,-5.25 5.703125,-6.8125 4,-6.8125 z m 2.375,6.5 C 2.25,-0.3125 2.234375,-0.375 2.234375,-0.703125 l 0,-5.390625 C 2.234375,-6.4375 2.25,-6.5 2.71875,-6.5 l 1,0 c 0.625,0 1.3125,0.21875 1.8125,0.921875 0.4375,0.59375 0.515625,1.453125 0.515625,2.234375 0,1.09375 -0.1875,1.703125 -0.546875,2.1875 -0.203125,0.265625 -0.765625,0.84375 -1.765625,0.84375 z m 0,0"
               style="stroke:none"
               inkscape:connector-curvature="0" />
          </symbol>
        </g>
      </defs>
      <g
         id="textext-ae1b11cf-3">
        <g
           id="g3650"
           style="fill:#000000;fill-opacity:1">
          <use
             id="use3652"
             y="134.765"
             x="223.43201"
             xlink:href="#textext-ae1b11cf-0"
             width="372.04724"
             height="262.20471" />
          <use
             id="use3654"
             y="134.765"
             x="231.24965"
             xlink:href="#textext-ae1b11cf-1"
             width="372.04724"
             height="262.20471" />
          <use
             id="use3656"
             y="134.765"
             x="238.7216"
             xlink:href="#textext-ae1b11cf-2"
             width="372.04724"
             height="262.20471" />
        </g>
      </g>
    </g>
  </g>
</svg>
