<?xml version="1.0" encoding="UTF-8" standalone="no"?>
<!-- Created with Inkscape (http://www.inkscape.org/) -->

<svg
   xmlns:ns0="http://www.iki.fi/pav/software/textext/"
   xmlns:dc="http://purl.org/dc/elements/1.1/"
   xmlns:cc="http://creativecommons.org/ns#"
   xmlns:rdf="http://www.w3.org/1999/02/22-rdf-syntax-ns#"
   xmlns:svg="http://www.w3.org/2000/svg"
   xmlns="http://www.w3.org/2000/svg"
   xmlns:xlink="http://www.w3.org/1999/xlink"
   xmlns:sodipodi="http://sodipodi.sourceforge.net/DTD/sodipodi-0.dtd"
   xmlns:inkscape="http://www.inkscape.org/namespaces/inkscape"
   width="372.04724"
   height="262.20471"
   id="svg7549"
   version="1.1"
   inkscape:version="0.48.3.1 r9886"
   sodipodi:docname="schaltzeichen-roehrendiode.svg"
   inkscape:export-filename="/home/waldgeist/data/pics/physik/Own/elektrizitaet-magnetismus/bauteile/schaltzeichen-roehrendiode.png"
   inkscape:export-xdpi="90"
   inkscape:export-ydpi="90">
  <title
     id="title17142">Schaltzeichen Roehrendiode</title>
  <sodipodi:namedview
     id="base"
     pagecolor="#ffffff"
     bordercolor="#666666"
     borderopacity="1.0"
     inkscape:pageopacity="0.0"
     inkscape:pageshadow="2"
     inkscape:zoom="2.238963"
     inkscape:cx="262.83018"
     inkscape:cy="164.33699"
     inkscape:document-units="px"
     inkscape:current-layer="layer1"
     showgrid="false"
     inkscape:window-width="1280"
     inkscape:window-height="974"
     inkscape:window-x="0"
     inkscape:window-y="0"
     inkscape:window-maximized="1"
     inkscape:object-nodes="true"
     inkscape:snap-smooth-nodes="true"
     inkscape:object-paths="true"
     showguides="true"
     inkscape:guide-bbox="true">
    <sodipodi:guide
       id="guide14755"
       orientation="262.2047,0"
       position="0.0,0" />
    <sodipodi:guide
       id="guide14757"
       orientation="262.2047,0"
       position="186.0236,0" />
    <sodipodi:guide
       id="guide14759"
       orientation="262.2047,0"
       position="372.0472,0" />
    <sodipodi:guide
       id="guide14761"
       orientation="0,372.0472"
       position="0,0.0" />
    <sodipodi:guide
       id="guide14763"
       orientation="0,372.0472"
       position="0,131.1024" />
    <sodipodi:guide
       id="guide14765"
       orientation="0,372.0472"
       position="0,262.2047" />
    <sodipodi:guide
       orientation="1,0"
       position="73.010058,-78.00232"
       id="guide17230" />
    <sodipodi:guide
       orientation="1,0"
       position="299.48512,-95.634034"
       id="guide17232" />
    <sodipodi:guide
       orientation="0,1"
       position="186.0236,184.93892"
       id="guide3055" />
  </sodipodi:namedview>
  <defs
     id="defs7551">
    <marker
       inkscape:stockid="TriangleInM"
       orient="auto"
       refY="0"
       refX="0"
       id="TriangleInM"
       style="overflow:visible">
      <path
         id="path13059"
         d="m 5.77,0 -8.65,5 0,-10 8.65,5 z"
         style="fill-rule:evenodd;stroke:#000000;stroke-width:1pt;marker-start:none"
         transform="scale(-0.4,-0.4)"
         inkscape:connector-curvature="0" />
    </marker>
  </defs>
  <metadata
     id="metadata7554">
    <rdf:RDF>
      <cc:Work
         rdf:about="">
        <dc:format>image/svg+xml</dc:format>
        <dc:type
           rdf:resource="http://purl.org/dc/dcmitype/StillImage" />
        <dc:title>Schaltzeichen Roehrendiode</dc:title>
        <cc:license
           rdf:resource="http://creativecommons.org/licenses/by-nc-sa/3.0/" />
        <dc:date>2012-06-07</dc:date>
        <dc:creator>
          <cc:Agent>
            <dc:title>Bernhard Grotz</dc:title>
          </cc:Agent>
        </dc:creator>
        <dc:rights>
          <cc:Agent>
            <dc:title>Bernhard Grotz</dc:title>
          </cc:Agent>
        </dc:rights>
        <dc:publisher>
          <cc:Agent>
            <dc:title>Bernhard Grotz</dc:title>
          </cc:Agent>
        </dc:publisher>
        <dc:language>de-DE</dc:language>
        <dc:subject>
          <rdf:Bag>
            <rdf:li>Physik</rdf:li>
            <rdf:li>Elektronik</rdf:li>
            <rdf:li>Schaltzeichen</rdf:li>
            <rdf:li>Roehrendiode</rdf:li>
          </rdf:Bag>
        </dc:subject>
      </cc:Work>
      <cc:License
         rdf:about="http://creativecommons.org/licenses/by-nc-sa/3.0/">
        <cc:permits
           rdf:resource="http://creativecommons.org/ns#Reproduction" />
        <cc:permits
           rdf:resource="http://creativecommons.org/ns#Distribution" />
        <cc:requires
           rdf:resource="http://creativecommons.org/ns#Notice" />
        <cc:requires
           rdf:resource="http://creativecommons.org/ns#Attribution" />
        <cc:prohibits
           rdf:resource="http://creativecommons.org/ns#CommercialUse" />
        <cc:permits
           rdf:resource="http://creativecommons.org/ns#DerivativeWorks" />
        <cc:requires
           rdf:resource="http://creativecommons.org/ns#ShareAlike" />
      </cc:License>
    </rdf:RDF>
  </metadata>
  <g
     transform="translate(0,-790.15746)"
     id="layer1"
     inkscape:groupmode="layer"
     inkscape:label="Ebene 1">
    <g
       transform="matrix(0,1.929439,-1.929439,0,262.91854,863.84897)"
       id="g214270"
       style="fill-rule:evenodd;stroke-width:1.55485606;stroke-miterlimit:4;stroke-dasharray:none">
      <g
         id="Ebene_x0020_1-9"
         style="stroke-width:1.55485606;stroke-miterlimit:4;stroke-dasharray:none">
        <metadata
           id="CorelCorpID_0Corel-Layer-2" />
        <circle
           transform="translate(0,0.53542289)"
           d="m 57.123899,39.3181 c 0,15.262776 -12.372924,27.6357 -27.6357,27.6357 -15.262776,0 -27.6357,-12.372924 -27.6357,-27.6357 0,-15.262776 12.372924,-27.6357 27.6357,-27.6357 15.262776,0 27.6357,12.372924 27.6357,27.6357 z"
           style="fill:none;stroke:#1f1a17;stroke-width:1.55485606;stroke-miterlimit:4;stroke-dasharray:none"
           sodipodi:ry="27.6357"
           sodipodi:rx="27.6357"
           sodipodi:cy="39.3181"
           sodipodi:cx="29.488199"
           class="fil0 str0"
           cx="29.488199"
           cy="39.3181"
           r="27.6357"
           id="circle214253" />
        <path
           style="fill:none;stroke:#1f1a17;stroke-width:1.55485606;stroke-miterlimit:4;stroke-dasharray:none"
           inkscape:connector-curvature="0"
           class="fil0 str0"
           d="m 19.574,61.6242 c 0,-5.26043 4.26606,-9.52649 9.52649,-9.52649 5.26046,0 9.52649,4.26606 9.52649,9.52649"
           id="path214255" />
        <line
           style="fill:none;stroke:#1f1a17;stroke-width:1.55485618000000003;stroke-miterlimit:4;stroke-dasharray:none;stroke-linecap:round"
           class="fil0 str0"
           x1="19.573999"
           y1="61.624199"
           x2="19.573999"
           y2="98.426788"
           id="line214257" />
        <line
           style="fill:none;stroke:#1f1a17;stroke-width:1.55485606000000010;stroke-miterlimit:4;stroke-dasharray:none;stroke-linecap:round"
           class="fil0 str0"
           x1="38.6269"
           y1="61.624199"
           x2="38.6269"
           y2="98.426788"
           id="line214259" />
        <line
           style="fill:none;stroke:#1f1a17;stroke-width:1.55485618000000003;stroke-miterlimit:4;stroke-dasharray:none;stroke-linecap:round"
           class="fil0 str0"
           x1="29.488199"
           y1="-18.951923"
           x2="29.488199"
           y2="21.262098"
           id="line214261" />
        <line
           style="fill:none;stroke:#1f1a17;stroke-width:1.55485606000000010;stroke-miterlimit:4;stroke-dasharray:none;stroke-linecap:round"
           class="fil0 str0"
           x1="17.603901"
           y1="21.2621"
           x2="41.372601"
           y2="21.2621"
           id="line214263" />
      </g>
    </g>
    <g
       id="g3036"
       transform="translate(0,-3.1722702)">
      <g
         transform="translate(38.220383,115.24904)"
         id="g7116">
        <g
           transform="matrix(3.6155316,0,0,3.6155316,-599.51867,279.55009)"
           ns0:text="K"
           ns0:preamble="/home/waldgeist/data/sphinx/test.tex"
           id="g19041">
          <defs
             id="defs19043">
            <g
               id="g19045">
              <symbol
                 style="overflow:visible"
                 overflow="visible"
                 id="textext-0516fb6d-0">
                <path
                   inkscape:connector-curvature="0"
                   style="stroke:none"
                   d="M 3.984375,-4.171875 5.78125,-5.90625 C 5.859375,-5.984375 6.390625,-6.484375 7.203125,-6.5 l 0,-0.3125 C 6.9375,-6.78125 6.625,-6.78125 6.34375,-6.78125 c -0.359375,0 -0.921875,0 -1.265625,-0.03125 l 0,0.3125 c 0.40625,0.015625 0.46875,0.234375 0.46875,0.328125 0,0.15625 -0.109375,0.265625 -0.1875,0.328125 L 2.25,-2.859375 2.25,-6.03125 C 2.25,-6.390625 2.265625,-6.5 3.03125,-6.5 l 0.234375,0 0,-0.3125 c -0.34375,0.03125 -1.078125,0.03125 -1.46875,0.03125 -0.375,0 -1.125,0 -1.46875,-0.03125 l 0,0.3125 0.234375,0 c 0.765625,0 0.796875,0.109375 0.796875,0.46875 l 0,5.25 c 0,0.359375 -0.03125,0.46875 -0.796875,0.46875 l -0.234375,0 0,0.3125 c 0.34375,-0.03125 1.09375,-0.03125 1.46875,-0.03125 0.375,0 1.125,0 1.46875,0.03125 l 0,-0.3125 -0.234375,0 C 2.265625,-0.3125 2.25,-0.421875 2.25,-0.78125 l 0,-1.734375 1.15625,-1.109375 1.796875,2.671875 c 0.0625,0.09375 0.15625,0.21875 0.15625,0.34375 0,0.296875 -0.390625,0.296875 -0.59375,0.296875 l 0,0.3125 C 5.109375,-0.03125 5.8125,-0.03125 6.1875,-0.03125 c 0.359375,0 0.734375,0.015625 1.15625,0.03125 l 0,-0.3125 c -0.546875,0 -0.75,-0.03125 -1.046875,-0.46875 z m 0,0"
                   id="path19048" />
              </symbol>
            </g>
          </defs>
          <g
             id="textext-0516fb6d-1">
            <g
               style="fill:#000000;fill-opacity:1"
               id="g19051" />
          </g>
        </g>
        <g
           id="g19356"
           transform="matrix(3.6155316,0,0,3.6155316,-748.20723,279.89061)"
           ns0:preamble="/home/waldgeist/data/sphinx/test.tex"
           ns0:text="A">
          <defs
             id="defs19358">
            <g
               id="g19360">
              <symbol
                 id="textext-fe3b587e-0"
                 overflow="visible"
                 style="overflow:visible">
                <path
                   id="path19363"
                   d="m 3.96875,-6.9375 c -0.046875,-0.125 -0.078125,-0.203125 -0.234375,-0.203125 -0.15625,0 -0.1875,0.0625 -0.234375,0.203125 L 1.4375,-0.984375 C 1.25,-0.46875 0.859375,-0.3125 0.3125,-0.3125 l 0,0.3125 c 0.234375,-0.015625 0.671875,-0.03125 1.015625,-0.03125 0.3125,0 0.828125,0.015625 1.15625,0.03125 l 0,-0.3125 c -0.5,0 -0.75,-0.25 -0.75,-0.5 0,-0.03125 0.015625,-0.140625 0.015625,-0.15625 l 0.46875,-1.296875 2.453125,0 0.53125,1.515625 c 0.015625,0.046875 0.03125,0.109375 0.03125,0.140625 0,0.296875 -0.5625,0.296875 -0.828125,0.296875 l 0,0.3125 c 0.359375,-0.03125 1.0625,-0.03125 1.4375,-0.03125 0.421875,0 0.890625,0.015625 1.296875,0.03125 l 0,-0.3125 -0.171875,0 C 6.375,-0.3125 6.234375,-0.375 6.125,-0.703125 z m -0.53125,1.109375 1.125,3.25 -2.234375,0 z m 0,0"
                   style="stroke:none"
                   inkscape:connector-curvature="0" />
              </symbol>
            </g>
          </defs>
          <g
             id="textext-fe3b587e-1">
            <g
               id="g19366"
               style="fill:#000000;fill-opacity:1">
              <use
                 transform="translate(41.234326,-31.377233)"
                 height="262.20471"
                 width="372.04724"
                 xlink:href="#textext-fe3b587e-0"
                 x="223.43201"
                 y="134.765"
                 id="use7136" />
            </g>
          </g>
        </g>
      </g>
      <use
         height="262.20471"
         width="372.04724"
         xlink:href="#textext-0516fb6d-0"
         x="223.43201"
         y="134.765"
         id="use19053-5"
         style="fill:#000000;fill-opacity:1"
         transform="matrix(3.6155316,0,0,3.6155316,-710.3823,281.1011)" />
    </g>
  </g>
</svg>
