<?xml version="1.0" encoding="UTF-8" standalone="no"?>
<!-- Created with Inkscape (http://www.inkscape.org/) -->

<svg
   xmlns:ns0="http://www.iki.fi/pav/software/textext/"
   xmlns:dc="http://purl.org/dc/elements/1.1/"
   xmlns:cc="http://creativecommons.org/ns#"
   xmlns:rdf="http://www.w3.org/1999/02/22-rdf-syntax-ns#"
   xmlns:svg="http://www.w3.org/2000/svg"
   xmlns="http://www.w3.org/2000/svg"
   xmlns:xlink="http://www.w3.org/1999/xlink"
   xmlns:sodipodi="http://sodipodi.sourceforge.net/DTD/sodipodi-0.dtd"
   xmlns:inkscape="http://www.inkscape.org/namespaces/inkscape"
   inkscape:export-ydpi="90"
   inkscape:export-xdpi="90"
   inkscape:export-filename="/home/waldgeist/data/pics/physik/Own/elektrizitaet-magnetismus/bauteile/schaltzeichen-roehrentriode.png"
   sodipodi:docname="schaltzeichen-roehrentriode.svg"
   inkscape:version="0.48.3.1 r9886"
   version="1.1"
   id="svg7549"
   height="262.20471"
   width="372.04724">
  <title
     id="title17291">Schaltzeichen Roehrentriode</title>
  <sodipodi:namedview
     id="base"
     pagecolor="#ffffff"
     bordercolor="#666666"
     borderopacity="1.0"
     inkscape:pageopacity="0.0"
     inkscape:pageshadow="2"
     inkscape:zoom="1.5831859"
     inkscape:cx="64.650136"
     inkscape:cy="83.353071"
     inkscape:document-units="px"
     inkscape:current-layer="layer1"
     showgrid="false"
     inkscape:window-width="1280"
     inkscape:window-height="974"
     inkscape:window-x="0"
     inkscape:window-y="0"
     inkscape:window-maximized="1"
     inkscape:object-nodes="true"
     inkscape:snap-smooth-nodes="true"
     inkscape:object-paths="true"
     showguides="true"
     inkscape:guide-bbox="true">
    <sodipodi:guide
       position="0.0,0"
       orientation="262.2047,0"
       id="guide14755" />
    <sodipodi:guide
       position="186.0236,0"
       orientation="262.2047,0"
       id="guide14757" />
    <sodipodi:guide
       position="372.0472,0"
       orientation="262.2047,0"
       id="guide14759" />
    <sodipodi:guide
       position="0,0.0"
       orientation="0,372.0472"
       id="guide14761" />
    <sodipodi:guide
       position="0,131.1024"
       orientation="0,372.0472"
       id="guide14763" />
    <sodipodi:guide
       position="0,262.2047"
       orientation="0,372.0472"
       id="guide14765" />
    <sodipodi:guide
       id="guide17109"
       position="299.26116,-9.3793681"
       orientation="1,0" />
    <sodipodi:guide
       id="guide17111"
       position="72.78608,-9.3793681"
       orientation="1,0" />
    <sodipodi:guide
       orientation="0,1"
       position="186.02362,184.42164"
       id="guide3204" />
  </sodipodi:namedview>
  <defs
     id="defs7551">
    <marker
       style="overflow:visible"
       id="TriangleInM"
       refX="0"
       refY="0"
       orient="auto"
       inkscape:stockid="TriangleInM">
      <path
         inkscape:connector-curvature="0"
         transform="scale(-0.4,-0.4)"
         style="fill-rule:evenodd;stroke:#000000;stroke-width:1pt;marker-start:none"
         d="m 5.77,0 -8.65,5 0,-10 8.65,5 z"
         id="path13059" />
    </marker>
  </defs>
  <metadata
     id="metadata7554">
    <rdf:RDF>
      <cc:Work
         rdf:about="">
        <dc:format>image/svg+xml</dc:format>
        <dc:type
           rdf:resource="http://purl.org/dc/dcmitype/StillImage" />
        <dc:title>Schaltzeichen Roehrentriode</dc:title>
        <cc:license
           rdf:resource="http://creativecommons.org/licenses/by-nc-sa/3.0/" />
        <dc:date>2012-06-07</dc:date>
        <dc:creator>
          <cc:Agent>
            <dc:title>Bernhard Grotz</dc:title>
          </cc:Agent>
        </dc:creator>
        <dc:rights>
          <cc:Agent>
            <dc:title>Bernhard Grotz</dc:title>
          </cc:Agent>
        </dc:rights>
        <dc:publisher>
          <cc:Agent>
            <dc:title>Bernhard Grotz</dc:title>
          </cc:Agent>
        </dc:publisher>
        <dc:language>de-DE</dc:language>
        <dc:subject>
          <rdf:Bag>
            <rdf:li>Physik</rdf:li>
            <rdf:li>Elektronik</rdf:li>
            <rdf:li>Schaltzeichen</rdf:li>
            <rdf:li>Roehrentriode</rdf:li>
          </rdf:Bag>
        </dc:subject>
      </cc:Work>
      <cc:License
         rdf:about="http://creativecommons.org/licenses/by-nc-sa/3.0/">
        <cc:permits
           rdf:resource="http://creativecommons.org/ns#Reproduction" />
        <cc:permits
           rdf:resource="http://creativecommons.org/ns#Distribution" />
        <cc:requires
           rdf:resource="http://creativecommons.org/ns#Notice" />
        <cc:requires
           rdf:resource="http://creativecommons.org/ns#Attribution" />
        <cc:prohibits
           rdf:resource="http://creativecommons.org/ns#CommercialUse" />
        <cc:permits
           rdf:resource="http://creativecommons.org/ns#DerivativeWorks" />
        <cc:requires
           rdf:resource="http://creativecommons.org/ns#ShareAlike" />
      </cc:License>
    </rdf:RDF>
  </metadata>
  <g
     inkscape:label="Ebene 1"
     inkscape:groupmode="layer"
     id="layer1"
     transform="translate(0,-790.15746)">
    <circle
       transform="matrix(0,-2.8668575,-2.8668575,0,302.9527,991.16236)"
       d="m 42.981499,40.786499 c 0,10.271668 -8.326832,18.598499 -18.5985,18.598499 -10.271667,0 -18.5984989,-8.326831 -18.5984989,-18.598499 0,-10.271668 8.3268319,-18.598499 18.5984989,-18.598499 10.271668,0 18.5985,8.326831 18.5985,18.598499 z"
       style="fill:none;stroke:#1f1a17;stroke-width:1.04644191;stroke-miterlimit:4;stroke-dasharray:none"
       sodipodi:ry="18.598499"
       sodipodi:rx="18.598499"
       sodipodi:cy="40.786499"
       sodipodi:cx="24.382999"
       class="fil0 str0"
       cx="24.382999"
       cy="40.786499"
       r="18.598499"
       id="circle266750" />
    <g
       id="g17064">
      <g
         id="g17055">
        <path
           style="fill:none;stroke:#1f1a17;stroke-width:2.99999976;stroke-miterlimit:4;stroke-dasharray:none"
           inkscape:connector-curvature="0"
           class="fil0 str0"
           d="m 142.76293,940.38802 c 10.14924,0 18.38016,-8.23092 18.38016,-18.37991 0,-10.14951 -8.23092,-18.38017 -18.38016,-18.38017"
           id="path266752" />
        <line
           style="fill:none;stroke:#1f1a17;stroke-width:3;stroke-miterlimit:4;stroke-dasharray:none;stroke-linecap:round"
           class="fil0 str0"
           x1="142.76292"
           y1="940.388"
           x2="72.786079"
           y2="940.388"
           id="line266754" />
        <line
           style="fill:none;stroke:#1f1a17;stroke-width:3;stroke-miterlimit:4;stroke-dasharray:none;stroke-linecap:round"
           class="fil0 str0"
           x1="142.76292"
           y1="903.62805"
           x2="72.786079"
           y2="903.62805"
           id="line266756" />
      </g>
      <g
         id="g17060">
        <line
           style="fill:none;stroke:#1f1a17;stroke-width:3;stroke-miterlimit:4;stroke-dasharray:none;stroke-linecap:round"
           class="fil0 str0"
           x1="299.26114"
           y1="921.25977"
           x2="220.63622"
           y2="921.25977"
           id="line266758" />
        <line
           style="fill:none;stroke:#1f1a17;stroke-width:3;stroke-miterlimit:4;stroke-dasharray:none;stroke-linecap:round"
           class="fil0 str0"
           x1="220.63623"
           y1="944.18921"
           x2="220.63623"
           y2="898.33038"
           id="line266760" />
      </g>
    </g>
    <line
       style="fill:none;stroke:#1f1a17;stroke-width:3;stroke-miterlimit:4;stroke-dasharray:none;stroke-linecap:round"
       class="fil0 str0"
       x1="185.79962"
       y1="919.42499"
       x2="185.79962"
       y2="898.26758"
       id="line266762" />
    <line
       style="fill:none;stroke:#1f1a17;stroke-width:3;stroke-miterlimit:4;stroke-dasharray:none;stroke-linecap:round"
       class="fil0 str0"
       x1="185.79962"
       y1="892.35211"
       x2="185.79962"
       y2="871.1947"
       id="line266764" />
    <line
       style="fill:none;stroke:#1f1a17;stroke-width:3;stroke-miterlimit:4;stroke-dasharray:none;stroke-linecap:round"
       class="fil0 str0"
       x1="185.79962"
       y1="867.94055"
       x2="185.79962"
       y2="846.78314"
       id="line266766" />
    <line
       style="fill:none;stroke:#1f1a17;stroke-width:3;stroke-miterlimit:4;stroke-dasharray:none;stroke-linecap:round"
       class="fil0 str0"
       x1="185.79962"
       y1="846.78314"
       x2="185.79962"
       y2="825.62573"
       id="line266768" />
    <line
       style="fill:none;stroke:#1f1a17;stroke-width:3;stroke-miterlimit:4;stroke-dasharray:none;stroke-linecap:round"
       class="fil0 str0"
       x1="185.79962"
       y1="946.4718"
       x2="185.79962"
       y2="925.31439"
       id="line266770" />
  </g>
  <g
     id="g3881"
     transform="translate(50.246477,-822.01863)">
    <g
       id="g7116"
       transform="translate(-11.687135,141.81066)">
      <g
         id="g19041"
         ns0:preamble="/home/waldgeist/data/sphinx/test.tex"
         ns0:text="K"
         transform="matrix(3.6155316,0,0,3.6155316,-599.51867,279.55009)">
        <defs
           id="defs19043">
          <g
             id="g19045">
            <symbol
               id="textext-0516fb6d-0"
               overflow="visible"
               style="overflow:visible">
              <path
                 id="path19048"
                 d="M 3.984375,-4.171875 5.78125,-5.90625 C 5.859375,-5.984375 6.390625,-6.484375 7.203125,-6.5 l 0,-0.3125 C 6.9375,-6.78125 6.625,-6.78125 6.34375,-6.78125 c -0.359375,0 -0.921875,0 -1.265625,-0.03125 l 0,0.3125 c 0.40625,0.015625 0.46875,0.234375 0.46875,0.328125 0,0.15625 -0.109375,0.265625 -0.1875,0.328125 L 2.25,-2.859375 2.25,-6.03125 C 2.25,-6.390625 2.265625,-6.5 3.03125,-6.5 l 0.234375,0 0,-0.3125 c -0.34375,0.03125 -1.078125,0.03125 -1.46875,0.03125 -0.375,0 -1.125,0 -1.46875,-0.03125 l 0,0.3125 0.234375,0 c 0.765625,0 0.796875,0.109375 0.796875,0.46875 l 0,5.25 c 0,0.359375 -0.03125,0.46875 -0.796875,0.46875 l -0.234375,0 0,0.3125 c 0.34375,-0.03125 1.09375,-0.03125 1.46875,-0.03125 0.375,0 1.125,0 1.46875,0.03125 l 0,-0.3125 -0.234375,0 C 2.265625,-0.3125 2.25,-0.421875 2.25,-0.78125 l 0,-1.734375 1.15625,-1.109375 1.796875,2.671875 c 0.0625,0.09375 0.15625,0.21875 0.15625,0.34375 0,0.296875 -0.390625,0.296875 -0.59375,0.296875 l 0,0.3125 C 5.109375,-0.03125 5.8125,-0.03125 6.1875,-0.03125 c 0.359375,0 0.734375,0.015625 1.15625,0.03125 l 0,-0.3125 c -0.546875,0 -0.75,-0.03125 -1.046875,-0.46875 z m 0,0"
                 style="stroke:none"
                 inkscape:connector-curvature="0" />
            </symbol>
          </g>
        </defs>
        <g
           id="textext-0516fb6d-1">
          <g
             id="g19051"
             style="fill:#000000;fill-opacity:1" />
        </g>
      </g>
      <g
         ns0:text="A"
         ns0:preamble="/home/waldgeist/data/sphinx/test.tex"
         transform="matrix(3.6155316,0,0,3.6155316,-748.20723,279.89061)"
         id="g19356">
        <defs
           id="defs19358">
          <g
             id="g19360">
            <symbol
               style="overflow:visible"
               overflow="visible"
               id="textext-fe3b587e-0">
              <path
                 inkscape:connector-curvature="0"
                 style="stroke:none"
                 d="m 3.96875,-6.9375 c -0.046875,-0.125 -0.078125,-0.203125 -0.234375,-0.203125 -0.15625,0 -0.1875,0.0625 -0.234375,0.203125 L 1.4375,-0.984375 C 1.25,-0.46875 0.859375,-0.3125 0.3125,-0.3125 l 0,0.3125 c 0.234375,-0.015625 0.671875,-0.03125 1.015625,-0.03125 0.3125,0 0.828125,0.015625 1.15625,0.03125 l 0,-0.3125 c -0.5,0 -0.75,-0.25 -0.75,-0.5 0,-0.03125 0.015625,-0.140625 0.015625,-0.15625 l 0.46875,-1.296875 2.453125,0 0.53125,1.515625 c 0.015625,0.046875 0.03125,0.109375 0.03125,0.140625 0,0.296875 -0.5625,0.296875 -0.828125,0.296875 l 0,0.3125 c 0.359375,-0.03125 1.0625,-0.03125 1.4375,-0.03125 0.421875,0 0.890625,0.015625 1.296875,0.03125 l 0,-0.3125 -0.171875,0 C 6.375,-0.3125 6.234375,-0.375 6.125,-0.703125 z m -0.53125,1.109375 1.125,3.25 -2.234375,0 z m 0,0"
                 id="path19363" />
            </symbol>
          </g>
        </defs>
        <g
           id="textext-fe3b587e-1">
          <g
             style="fill:#000000;fill-opacity:1"
             id="g19366">
            <use
               id="use7136"
               y="134.765"
               x="223.43201"
               xlink:href="#textext-fe3b587e-0"
               width="372.04724"
               height="262.20471"
               transform="translate(41.234326,-31.377233)" />
          </g>
        </g>
      </g>
    </g>
    <use
       transform="matrix(3.6155316,0,0,3.6155316,-760.28982,307.66272)"
       style="fill:#000000;fill-opacity:1"
       id="use19053-5"
       y="134.765"
       x="223.43201"
       xlink:href="#textext-0516fb6d-0"
       width="372.04724"
       height="262.20471" />
  </g>
  <g
     id="g3815"
     transform="matrix(3.6155316,0,0,3.6155316,-636.06626,-561.41292)"
     ns0:preamble="/home/waldgeist/data/sphinx/test.tex"
     ns0:text="G">
    <defs
       id="defs3817">
      <g
         id="g3819">
        <symbol
           id="textext-9c67b69b-0"
           overflow="visible"
           style="overflow:visible">
          <path
             id="path3822"
             d="m 5.90625,-0.625 c 0.140625,0.21875 0.53125,0.609375 0.640625,0.609375 0.09375,0 0.09375,-0.078125 0.09375,-0.21875 l 0,-1.734375 c 0,-0.390625 0.03125,-0.4375 0.6875,-0.4375 l 0,-0.3125 c -0.375,0 -0.921875,0.03125 -1.21875,0.03125 -0.390625,0 -1.25,0 -1.609375,-0.03125 l 0,0.3125 0.328125,0 C 5.71875,-2.40625 5.75,-2.296875 5.75,-1.9375 l 0,0.640625 c 0,1.125 -1.265625,1.203125 -1.546875,1.203125 -0.640625,0 -2.625,-0.34375 -2.625,-3.3125 0,-2.984375 1.96875,-3.3125 2.5625,-3.3125 1.078125,0 1.984375,0.890625 2.171875,2.359375 0.03125,0.140625 0.03125,0.171875 0.171875,0.171875 0.15625,0 0.15625,-0.03125 0.15625,-0.234375 l 0,-2.359375 c 0,-0.171875 0,-0.25 -0.109375,-0.25 -0.046875,0 -0.078125,0 -0.15625,0.125 l -0.5,0.734375 C 5.546875,-6.484375 5.015625,-7.03125 4.03125,-7.03125 c -1.859375,0 -3.46875,1.578125 -3.46875,3.625 0,2.046875 1.59375,3.625 3.484375,3.625 0.734375,0 1.53125,-0.265625 1.859375,-0.84375 z m 0,0"
             style="stroke:none"
             inkscape:connector-curvature="0" />
        </symbol>
      </g>
    </defs>
    <g
       id="textext-9c67b69b-1">
      <g
         id="g3825"
         style="fill:#000000;fill-opacity:1">
        <use
           id="use3827"
           y="134.765"
           x="223.43201"
           xlink:href="#textext-9c67b69b-0"
           width="372.04724"
           height="262.20471" />
      </g>
    </g>
  </g>
</svg>
