<?xml version="1.0" encoding="UTF-8" standalone="no"?>
<!-- Created with Inkscape (http://www.inkscape.org/) -->

<svg
   xmlns:dc="http://purl.org/dc/elements/1.1/"
   xmlns:cc="http://creativecommons.org/ns#"
   xmlns:rdf="http://www.w3.org/1999/02/22-rdf-syntax-ns#"
   xmlns:svg="http://www.w3.org/2000/svg"
   xmlns="http://www.w3.org/2000/svg"
   xmlns:sodipodi="http://sodipodi.sourceforge.net/DTD/sodipodi-0.dtd"
   xmlns:inkscape="http://www.inkscape.org/namespaces/inkscape"
   width="372.04724"
   height="262.20471"
   id="svg7549"
   version="1.1"
   inkscape:version="0.48.3.1 r9886"
   sodipodi:docname="schaltzeichen-widerstand-kaltleiter.svg"
   inkscape:export-filename="/home/waldgeist/data/pics/physik/Own/elektrizitaet-magnetismus/bauteile/schaltzeichen-widerstand-kaltleiter.png"
   inkscape:export-xdpi="90"
   inkscape:export-ydpi="90">
  <title
     id="title19495">Schaltzeichen Widerstand (Kaltleiter)</title>
  <sodipodi:namedview
     id="base"
     pagecolor="#ffffff"
     bordercolor="#666666"
     borderopacity="1.0"
     inkscape:pageopacity="0.0"
     inkscape:pageshadow="2"
     inkscape:zoom="1.1194815"
     inkscape:cx="189.95925"
     inkscape:cy="87.768807"
     inkscape:document-units="px"
     inkscape:current-layer="layer1"
     showgrid="false"
     inkscape:window-width="1280"
     inkscape:window-height="974"
     inkscape:window-x="0"
     inkscape:window-y="0"
     inkscape:window-maximized="1"
     inkscape:object-nodes="true"
     inkscape:snap-smooth-nodes="true"
     inkscape:object-paths="true"
     showguides="true"
     inkscape:guide-bbox="true">
    <sodipodi:guide
       id="guide17380"
       orientation="262.2047,0"
       position="0.0,0" />
    <sodipodi:guide
       id="guide17382"
       orientation="262.2047,0"
       position="186.0236,0" />
    <sodipodi:guide
       id="guide17384"
       orientation="262.2047,0"
       position="372.0472,0" />
    <sodipodi:guide
       id="guide17386"
       orientation="0,372.0472"
       position="0,0.0" />
    <sodipodi:guide
       id="guide17388"
       orientation="0,372.0472"
       position="0,131.1024" />
    <sodipodi:guide
       id="guide17390"
       orientation="0,372.0472"
       position="0,262.2047" />
    <sodipodi:guide
       orientation="1,0"
       position="73.11215,131.10231"
       id="guide18960" />
    <sodipodi:guide
       orientation="1,0"
       position="298.93509,131.10231"
       id="guide19602" />
  </sodipodi:namedview>
  <defs
     id="defs7551">
    <marker
       style="overflow:visible"
       id="TriangleInM"
       refX="0"
       refY="0"
       orient="auto"
       inkscape:stockid="TriangleInM">
      <path
         inkscape:connector-curvature="0"
         transform="scale(-0.4,-0.4)"
         style="fill-rule:evenodd;stroke:#000000;stroke-width:1pt;marker-start:none"
         d="m 5.77,0 -8.65,5 0,-10 8.65,5 z"
         id="path13059" />
    </marker>
    <marker
       style="overflow:visible"
       id="TriangleInM-5"
       refX="0"
       refY="0"
       orient="auto"
       inkscape:stockid="TriangleInM">
      <path
         inkscape:connector-curvature="0"
         transform="scale(-0.4,-0.4)"
         style="fill-rule:evenodd;stroke:#000000;stroke-width:1pt;marker-start:none"
         d="m 5.77,0 -8.65,5 0,-10 8.65,5 z"
         id="path13059-5" />
    </marker>
    <marker
       style="overflow:visible"
       id="TriangleOutM"
       refX="0"
       refY="0"
       orient="auto"
       inkscape:stockid="TriangleOutM">
      <path
         inkscape:connector-curvature="0"
         transform="scale(0.4,0.4)"
         style="fill-rule:evenodd;stroke:#000000;stroke-width:1pt;marker-start:none"
         d="m 5.77,0 -8.65,5 0,-10 8.65,5 z"
         id="path13068" />
    </marker>
    <marker
       style="overflow:visible"
       id="marker18293"
       refX="0"
       refY="0"
       orient="auto"
       inkscape:stockid="TriangleOutM">
      <path
         inkscape:connector-curvature="0"
         transform="scale(0.4,0.4)"
         style="fill-rule:evenodd;stroke:#000000;stroke-width:1pt;marker-start:none"
         d="m 5.77,0 -8.65,5 0,-10 8.65,5 z"
         id="path18295" />
    </marker>
    <marker
       style="overflow:visible"
       id="TriangleOutM-0"
       refX="0"
       refY="0"
       orient="auto"
       inkscape:stockid="TriangleOutM">
      <path
         inkscape:connector-curvature="0"
         transform="scale(0.4,0.4)"
         style="fill-rule:evenodd;stroke:#000000;stroke-width:1pt;marker-start:none"
         d="m 5.77,0 -8.65,5 0,-10 8.65,5 z"
         id="path13068-6" />
    </marker>
    <marker
       style="overflow:visible"
       id="marker18346"
       refX="0"
       refY="0"
       orient="auto"
       inkscape:stockid="TriangleOutM">
      <path
         inkscape:connector-curvature="0"
         transform="scale(0.4,0.4)"
         style="fill-rule:evenodd;stroke:#000000;stroke-width:1pt;marker-start:none"
         d="m 5.77,0 -8.65,5 0,-10 8.65,5 z"
         id="path18348" />
    </marker>
    <marker
       style="overflow:visible"
       id="TriangleOutM-9"
       refX="0"
       refY="0"
       orient="auto"
       inkscape:stockid="TriangleOutM">
      <path
         inkscape:connector-curvature="0"
         transform="scale(0.4,0.4)"
         style="fill-rule:evenodd;stroke:#000000;stroke-width:1pt;marker-start:none"
         d="m 5.77,0 -8.65,5 0,-10 8.65,5 z"
         id="path13068-9" />
    </marker>
    <marker
       style="overflow:visible"
       id="marker18407"
       refX="0"
       refY="0"
       orient="auto"
       inkscape:stockid="TriangleOutM">
      <path
         inkscape:connector-curvature="0"
         transform="scale(0.4,0.4)"
         style="fill-rule:evenodd;stroke:#000000;stroke-width:1pt;marker-start:none"
         d="m 5.77,0 -8.65,5 0,-10 8.65,5 z"
         id="path18409" />
    </marker>
    <marker
       style="overflow:visible"
       id="TriangleOutM-02"
       refX="0"
       refY="0"
       orient="auto"
       inkscape:stockid="TriangleOutM">
      <path
         inkscape:connector-curvature="0"
         transform="scale(0.4,0.4)"
         style="fill-rule:evenodd;stroke:#000000;stroke-width:1pt;marker-start:none"
         d="m 5.77,0 -8.65,5 0,-10 8.65,5 z"
         id="path13068-0" />
    </marker>
    <marker
       style="overflow:visible"
       id="marker18451"
       refX="0"
       refY="0"
       orient="auto"
       inkscape:stockid="TriangleOutM">
      <path
         inkscape:connector-curvature="0"
         transform="scale(0.4,0.4)"
         style="fill-rule:evenodd;stroke:#000000;stroke-width:1pt;marker-start:none"
         d="m 5.77,0 -8.65,5 0,-10 8.65,5 z"
         id="path18453" />
    </marker>
    <marker
       style="overflow:visible"
       id="TriangleOutM-6"
       refX="0"
       refY="0"
       orient="auto"
       inkscape:stockid="TriangleOutM">
      <path
         inkscape:connector-curvature="0"
         transform="scale(0.4,0.4)"
         style="fill-rule:evenodd;stroke:#000000;stroke-width:1pt;marker-start:none"
         d="m 5.77,0 -8.65,5 0,-10 8.65,5 z"
         id="path13068-64" />
    </marker>
    <marker
       style="overflow:visible"
       id="marker18536"
       refX="0"
       refY="0"
       orient="auto"
       inkscape:stockid="TriangleOutM">
      <path
         inkscape:connector-curvature="0"
         transform="scale(0.4,0.4)"
         style="fill-rule:evenodd;stroke:#000000;stroke-width:1pt;marker-start:none"
         d="m 5.77,0 -8.65,5 0,-10 8.65,5 z"
         id="path18538" />
    </marker>
    <marker
       style="overflow:visible"
       id="TriangleOutM-4"
       refX="0"
       refY="0"
       orient="auto"
       inkscape:stockid="TriangleOutM">
      <path
         inkscape:connector-curvature="0"
         transform="scale(0.4,0.4)"
         style="fill-rule:evenodd;stroke:#000000;stroke-width:1pt;marker-start:none"
         d="m 5.77,0 -8.65,5 0,-10 8.65,5 z"
         id="path13068-1" />
    </marker>
    <marker
       style="overflow:visible"
       id="marker18536-7"
       refX="0"
       refY="0"
       orient="auto"
       inkscape:stockid="TriangleOutM">
      <path
         inkscape:connector-curvature="0"
         transform="scale(0.4,0.4)"
         style="fill-rule:evenodd;stroke:#000000;stroke-width:1pt;marker-start:none"
         d="m 5.77,0 -8.65,5 0,-10 8.65,5 z"
         id="path18538-8" />
    </marker>
    <marker
       style="overflow:visible"
       id="TriangleOutM-61"
       refX="0"
       refY="0"
       orient="auto"
       inkscape:stockid="TriangleOutM">
      <path
         inkscape:connector-curvature="0"
         transform="scale(0.4,0.4)"
         style="fill-rule:evenodd;stroke:#000000;stroke-width:1pt;marker-start:none"
         d="m 5.77,0 -8.65,5 0,-10 8.65,5 z"
         id="path13068-2" />
    </marker>
    <marker
       style="overflow:visible"
       id="marker18603"
       refX="0"
       refY="0"
       orient="auto"
       inkscape:stockid="TriangleOutM">
      <path
         inkscape:connector-curvature="0"
         transform="scale(0.4,0.4)"
         style="fill-rule:evenodd;stroke:#000000;stroke-width:1pt;marker-start:none"
         d="m 5.77,0 -8.65,5 0,-10 8.65,5 z"
         id="path18605" />
    </marker>
    <marker
       style="overflow:visible"
       id="TriangleOutM-46"
       refX="0"
       refY="0"
       orient="auto"
       inkscape:stockid="TriangleOutM">
      <path
         inkscape:connector-curvature="0"
         transform="scale(0.4,0.4)"
         style="fill-rule:evenodd;stroke:#000000;stroke-width:1pt;marker-start:none"
         d="m 5.77,0 -8.65,5 0,-10 8.65,5 z"
         id="path13068-7" />
    </marker>
    <marker
       style="overflow:visible"
       id="marker18647"
       refX="0"
       refY="0"
       orient="auto"
       inkscape:stockid="TriangleOutM">
      <path
         inkscape:connector-curvature="0"
         transform="scale(0.4,0.4)"
         style="fill-rule:evenodd;stroke:#000000;stroke-width:1pt;marker-start:none"
         d="m 5.77,0 -8.65,5 0,-10 8.65,5 z"
         id="path18649" />
    </marker>
    <marker
       style="overflow:visible"
       id="TriangleOutM-8"
       refX="0"
       refY="0"
       orient="auto"
       inkscape:stockid="TriangleOutM">
      <path
         inkscape:connector-curvature="0"
         transform="scale(0.4,0.4)"
         style="fill-rule:evenodd;stroke:#000000;stroke-width:1pt;marker-start:none"
         d="m 5.77,0 -8.65,5 0,-10 8.65,5 z"
         id="path13068-10" />
    </marker>
    <marker
       style="overflow:visible"
       id="marker18694"
       refX="0"
       refY="0"
       orient="auto"
       inkscape:stockid="TriangleOutM">
      <path
         inkscape:connector-curvature="0"
         transform="scale(0.4,0.4)"
         style="fill-rule:evenodd;stroke:#000000;stroke-width:1pt;marker-start:none"
         d="m 5.77,0 -8.65,5 0,-10 8.65,5 z"
         id="path18696" />
    </marker>
    <marker
       style="overflow:visible"
       id="TriangleOutM-7"
       refX="0"
       refY="0"
       orient="auto"
       inkscape:stockid="TriangleOutM">
      <path
         inkscape:connector-curvature="0"
         transform="scale(0.4,0.4)"
         style="fill-rule:evenodd;stroke:#000000;stroke-width:1pt;marker-start:none"
         d="m 5.77,0 -8.65,5 0,-10 8.65,5 z"
         id="path13068-71" />
    </marker>
    <marker
       style="overflow:visible"
       id="marker18877"
       refX="0"
       refY="0"
       orient="auto"
       inkscape:stockid="TriangleOutM">
      <path
         inkscape:connector-curvature="0"
         transform="scale(0.4,0.4)"
         style="fill-rule:evenodd;stroke:#000000;stroke-width:1pt;marker-start:none"
         d="m 5.77,0 -8.65,5 0,-10 8.65,5 z"
         id="path18879" />
    </marker>
    <marker
       style="overflow:visible"
       id="TriangleOutM-5"
       refX="0"
       refY="0"
       orient="auto"
       inkscape:stockid="TriangleOutM">
      <path
         inkscape:connector-curvature="0"
         transform="scale(0.4,0.4)"
         style="fill-rule:evenodd;stroke:#000000;stroke-width:1pt;marker-start:none"
         d="m 5.77,0 -8.65,5 0,-10 8.65,5 z"
         id="path13068-74" />
    </marker>
    <marker
       style="overflow:visible"
       id="marker19763"
       refX="0"
       refY="0"
       orient="auto"
       inkscape:stockid="TriangleOutM">
      <path
         inkscape:connector-curvature="0"
         transform="scale(0.4,0.4)"
         style="fill-rule:evenodd;stroke:#000000;stroke-width:1pt;marker-start:none"
         d="m 5.77,0 -8.65,5 0,-10 8.65,5 z"
         id="path19765" />
    </marker>
  </defs>
  <metadata
     id="metadata7554">
    <rdf:RDF>
      <cc:Work
         rdf:about="">
        <dc:format>image/svg+xml</dc:format>
        <dc:type
           rdf:resource="http://purl.org/dc/dcmitype/StillImage" />
        <dc:title>Schaltzeichen Widerstand (Kaltleiter)</dc:title>
        <cc:license
           rdf:resource="http://creativecommons.org/licenses/by-nc-sa/3.0/" />
        <dc:date>2012-06-07</dc:date>
        <dc:creator>
          <cc:Agent>
            <dc:title>Bernhard Grotz</dc:title>
          </cc:Agent>
        </dc:creator>
        <dc:rights>
          <cc:Agent>
            <dc:title>Bernhard Grotz</dc:title>
          </cc:Agent>
        </dc:rights>
        <dc:publisher>
          <cc:Agent>
            <dc:title>Bernhard Grotz</dc:title>
          </cc:Agent>
        </dc:publisher>
        <dc:language>de-DE</dc:language>
        <dc:subject>
          <rdf:Bag>
            <rdf:li>Physik</rdf:li>
            <rdf:li>Elektronik</rdf:li>
            <rdf:li>Schaltzeichen</rdf:li>
            <rdf:li>Kaltleiter</rdf:li>
            <rdf:li>NTC</rdf:li>
          </rdf:Bag>
        </dc:subject>
      </cc:Work>
      <cc:License
         rdf:about="http://creativecommons.org/licenses/by-nc-sa/3.0/">
        <cc:permits
           rdf:resource="http://creativecommons.org/ns#Reproduction" />
        <cc:permits
           rdf:resource="http://creativecommons.org/ns#Distribution" />
        <cc:requires
           rdf:resource="http://creativecommons.org/ns#Notice" />
        <cc:requires
           rdf:resource="http://creativecommons.org/ns#Attribution" />
        <cc:prohibits
           rdf:resource="http://creativecommons.org/ns#CommercialUse" />
        <cc:permits
           rdf:resource="http://creativecommons.org/ns#DerivativeWorks" />
        <cc:requires
           rdf:resource="http://creativecommons.org/ns#ShareAlike" />
      </cc:License>
    </rdf:RDF>
  </metadata>
  <g
     inkscape:label="Ebene 1"
     inkscape:groupmode="layer"
     id="layer1"
     transform="translate(0,-790.15746)">
    <g
       transform="translate(-203.99621,-50.814078)"
       id="g39231">
      <g
         transform="translate(254.13379,187.41389)"
         id="g39233">
        <g
           id="g39235"
           transform="translate(-2.5294723,-485.78374)">
          <path
             style="fill:none;stroke:#000000;stroke-width:3;stroke-linecap:round;stroke-linejoin:miter;stroke-miterlimit:4;stroke-opacity:1;stroke-dasharray:none"
             d="m 63.812468,1270.4437 -38.455578,0"
             id="path39237"
             inkscape:connector-curvature="0" />
          <rect
             transform="matrix(0,1,-1,0,0,0)"
             style="fill:none;stroke:#000000;stroke-width:3;stroke-linecap:round;stroke-miterlimit:4;stroke-dasharray:none;stroke-dashoffset:0"
             id="rect39239"
             width="59.901131"
             height="145.95154"
             x="1240.4932"
             y="-211.39128" />
          <path
             inkscape:connector-curvature="0"
             id="path20915"
             d="m 249.84686,1270.4437 -38.45558,0"
             style="fill:none;stroke:#000000;stroke-width:3;stroke-linecap:round;stroke-linejoin:miter;stroke-miterlimit:4;stroke-opacity:1;stroke-dasharray:none" />
        </g>
        <path
           inkscape:connector-curvature="0"
           style="fill:none;stroke:#000000;stroke-width:3;stroke-linecap:round;stroke-linejoin:miter;stroke-miterlimit:4;stroke-opacity:1;stroke-dasharray:none"
           d="M 97.195915,839.99365 182.665,726.03486 l 43.96885,0"
           id="path39241"
           sodipodi:nodetypes="ccc" />
      </g>
      <g
         transform="translate(-7.7490683,0)"
         id="g39243">
        <path
           id="path39245"
           d="m 465.89881,881.14689 c -3.70972,-0.82689 -6.36316,-1.82371 -7.96315,-2.98476 -1.6,-1.16106 -2.39858,-2.65628 -2.39858,-4.48848 0,-1.5915 0.61168,-2.92813 1.83787,-4.00989 1.22619,-1.08177 2.76105,-1.62266 4.60741,-1.62266 2.76955,0 4.81415,0.99115 6.13662,2.97345 1.31964,1.97945 2.03609,5.13414 2.14937,9.46686 0.65133,0.17557 1.66229,0.41911 3.03291,0.73912 0.39645,0.0963 0.69947,0.16991 0.90619,0.21521 l -0.23788,1.67079 c -1.05061,-0.23787 -1.82937,-0.41911 -2.3391,-0.54654 -0.50974,-0.12744 -0.97982,-0.25487 -1.41026,-0.38513 -0.26902,7.02015 -1.5915,12.56773 -3.96176,16.64276 -2.37025,4.0722 -5.43431,6.11113 -9.19217,6.11113 -1.6538,0 -3.07256,-0.61734 -4.24778,-1.8492 -1.17804,-1.23469 -1.76707,-2.72707 -1.76707,-4.47715 0,-1.40176 0.48992,-3.60777 1.46974,-6.62652 0.97981,-3.01309 1.46972,-5.20777 1.46972,-6.57555 0,-0.57203 -0.10478,-0.99115 -0.3115,-1.25167 -0.20673,-0.26337 -0.53239,-0.39647 -0.97982,-0.39647 -0.57204,0 -1.22902,0.43044 -1.96813,1.2885 -0.73912,0.86088 -1.4046,1.99078 -1.99363,3.38971 l -1.16954,-0.38229 c 0.84388,-2.11539 1.84919,-3.76353 3.01875,-4.94158 1.16954,-1.17804 2.38441,-1.76707 3.64175,-1.76707 1.2092,0 2.18052,0.42478 2.91397,1.27716 0.73062,0.85239 1.09875,1.97664 1.09875,3.3784 0,1.57733 -0.54087,4.03537 -1.62264,7.37413 -0.12744,0.41344 -0.22372,0.72495 -0.28602,0.93167 l -0.14442,0.47859 c -0.84389,2.78371 -1.26584,4.53662 -1.26584,5.25024 0,0.95433 0.29169,1.73875 0.87221,2.35043 0.58052,0.61451 1.3338,0.92035 2.25699,0.92035 2.3221,0 4.21378,-1.9115 5.66935,-5.72882 1.4584,-3.82299 2.18335,-8.93731 2.18335,-15.35145 v -1.07327 z m 0,-1.81238 c -0.11045,-2.95928 -0.55787,-5.21626 -1.33663,-6.76811 -0.77876,-1.55185 -1.84637,-2.32778 -3.19716,-2.32778 -0.90619,0 -1.65379,0.31717 -2.24282,0.95434 -0.58903,0.63999 -0.88354,1.44989 -0.88354,2.43538 0,1.32247 0.60319,2.43822 1.81522,3.35574 1.21202,0.91752 3.15468,1.69627 5.84493,2.35043 z"
           inkscape:connector-curvature="0" />
        <g
           id="g39247"
           transform="matrix(0.94656109,0,0,0.94656109,32.650064,54.452381)"
           style="stroke-width:3;stroke-miterlimit:2.61310005;stroke-dasharray:none">
          <g
             id="g39249"
             style="stroke-width:3;stroke-miterlimit:2.61310005;stroke-dasharray:none">
            <g
               id="g65221" />
            <g
               id="g65225">
              <g
                 id="g65231">
                <g
                   id="g65471">
                  <g
                     id="g65787">
                    <g
                       id="g65793">
                      <g
                         id="g65798">
                        <line
                           stroke-miterlimit="2.6131"
                           x1="481.59778"
                           y1="896.64197"
                           x2="481.59778"
                           y2="867.95441"
                           id="line65227"
                           style="fill:none;stroke:#000000;stroke-width:3.16936731000000016;stroke-linecap:round;stroke-miterlimit:2.61310004999999990;stroke-dasharray:none;marker-end:url(#TriangleOutM)" />
                        <line
                           style="fill:none;stroke:#000000;stroke-width:3.16936731000000016;stroke-linecap:round;stroke-miterlimit:2.61310004999999990;stroke-dasharray:none;marker-end:url(#TriangleOutM)"
                           id="line65469"
                           y2="867.95441"
                           x2="499.62698"
                           y1="896.64197"
                           x1="499.62698"
                           stroke-miterlimit="2.6131" />
                      </g>
                    </g>
                  </g>
                </g>
              </g>
            </g>
          </g>
          <g
             id="g39255"
             style="stroke-width:3;stroke-miterlimit:2.61310005;stroke-dasharray:none">
            <g
               id="g43549"
               transform="matrix(1,0,0,-1,0,1756.1625)" />
          </g>
        </g>
      </g>
    </g>
  </g>
</svg>
